<svg width="275" height="300" viewBox="0 0 275 300" fill="none" xmlns="http://www.w3.org/2000/svg">
<rect width="275" height="300" fill="white"/>
<path fill-rule="evenodd" clip-rule="evenodd" d="M133.88 70.6611L136.819 67.6808L139.686 64.6652L142.233 61.4895L144.893 58.3704L148.493 51.2717L150.504 47.8273L152.584 44.4177L159.115 34.3358L162.691 30.7461L165.774 28.7657L169.905 26.3819L171.59 25.8178L173.42 25.2134L176.039 25L180.488 27.2246L183.576 30.1303L185.808 33.4637L186.353 34.6064L186.975 37.33L187.858 41.3375L189.992 44.7197L193.509 47.4104L195.872 48.2646L202.736 59.4434L210.868 69.8771L212.814 73.3533L215.074 76.6728L218.427 81.7892L219.685 83.2656L222.079 86.5185L224.28 89.165L226.371 93.2715L227.176 97.3183L227.4 101.656L228.127 105.741L228.77 109.869L229.432 113.988L230.405 117.951L231.253 119.348L232.347 121.429L235.059 124.522L237.561 127.721L240.17 130.865L242.089 134.355L242.78 138.46L244.654 141.972L245.574 145.961L245.94 150.228L246.234 154.53L246.566 158.15L245.34 166.436L243.678 174.503L238.331 185.178L237.837 189.381L236.057 192.94L233.881 196.301L230.269 198.945L224.982 205.2L223.153 208.735L221.989 212.602L219.013 215.564L217.181 219.097L215.182 222.547L213.366 226.089L211.634 229.672L209.798 233.203L207.848 236.678L205.893 240.15L203.232 243.268L200.475 246.34L193.607 251.804L190.129 254.515L184.938 257.926L183.582 260.139L181.551 263.573L179.254 266.874L176.039 269.717L174.351 273.322L173.337 274.482L171.59 275L168.766 274.979L162.691 271.941L158.242 269.317L155.87 266.453L153.246 263.316L151.071 259.953L148.694 256.693L146.467 253.357L143.466 250.408L140.21 247.586L137.278 244.603L135.003 241.291L132.87 237.909L130.709 234.539L129.962 230.464L129.041 226.475L128.082 222.505L126.319 218.937L123.584 215.855L120.597 212.899L116.232 210.632L113.151 207.723L111.096 206.099L110.943 204.378L109.298 200.751L106.544 197.678L104.302 194.35L103.002 190.551L101.701 186.752L100.836 183.171L100.4 180.715V178.504L101.223 174.466L102.364 170.587L103.84 166.876L104.318 162.666L105.055 158.585L106.124 154.67L107.346 150.832L108.68 147.049L110.126 143.323L112.188 139.904L114.733 135.742L115.161 128.043L115.025 122.248L115.672 119.399L116.797 115.512L117.17 111.25L118.197 107.314L119.951 103.741L120.997 99.815L121.791 95.7628L122.647 91.7408L127.096 85.0669L133.88 70.6611Z" fill="white" stroke="black" stroke-width="2.98474" stroke-miterlimit="1" stroke-linecap="round"/>
<path d="M126.111 124.616V121.157V120.167L122.652 121.595L121.095 122.108L118.203 122.319L116.276 121.625L115.676 119.399" stroke="black" stroke-width="1.49237" stroke-miterlimit="1" stroke-linecap="round"/>
<path fill-rule="evenodd" clip-rule="evenodd" d="M165.767 28.7735L165.772 33.2128L166.521 38.0367L167.145 40.9259L167.887 44.623L168.869 48.1097L169.489 50.5243L170.323 53.2857L170.711 54.3627L171.594 56.2844L172.461 57.9374L174.243 61.4957L174.639 64.3427L174.686 65.7231L176.043 69.4943L176.68 70.9987L179.202 72.3642L180.493 74.5197L180.853 75.9881L181.97 79.8788L182.006 81.3721L182.004 81.3731L180.762 85.2016L179.395 88.9673L178.366 92.9022L176.457 96.3973L171.594 100.834L169.847 101.991L166.395 104.714L162.695 107.694L159.399 110.115L156.612 113.171L154.578 116.604L151.963 119.745L148.557 122.492L144.576 124.95L140.448 125.911L135.999 126.512L133.437 126.664L127.1 125.112L126.11 124.616V120.167L122.651 121.596L121.094 122.108L118.202 122.319L116.275 121.625L115.676 119.4L116.801 115.513L117.174 111.25L118.202 107.314L119.955 103.741L121.002 99.8153L121.796 95.7631L122.651 91.7411L127.1 85.0672L128.993 81.5641L130.972 78.1043L132.243 74.2903L133.884 70.6614L136.823 67.6811L139.69 64.6655L142.237 61.4898L144.898 58.3707L148.498 51.272L150.508 47.8276L152.588 44.418L159.119 34.3361L162.695 30.7464L165.767 28.7735V28.7735Z" stroke="black" stroke-width="1.49237" stroke-miterlimit="1" stroke-linecap="round"/>
<path fill-rule="evenodd" clip-rule="evenodd" d="M165.76 28.7732L165.771 28.7657L169.902 26.3819L171.587 25.8178L173.417 25.2134L176.036 25L180.486 27.2246L183.573 30.1303L185.805 33.4637L186.351 34.6064L186.972 37.33L187.856 41.3375L189.99 44.7197L193.507 47.4104L195.87 48.2646L202.733 59.4434L205.396 62.8605L202.497 64.9269L199.102 67.6783L196.332 70.7427L194.555 74.304L191.962 77.4568L189.385 77.6658L186.231 79.0402L181.999 81.3718L181.963 79.8785L180.846 75.9878L180.486 74.5194L179.195 72.3639L176.673 70.9984L176.036 69.494L174.679 65.7228L174.632 64.3424L174.236 61.4954L172.454 57.9371L171.587 56.2841L170.704 54.3624L170.316 53.2854L169.482 50.524L168.862 48.1094L167.88 44.6227L167.138 40.9256L166.514 38.0364L165.765 33.2125L165.76 28.7732V28.7732Z" stroke="black" stroke-width="1.49237" stroke-miterlimit="1" stroke-linecap="round"/>
<path fill-rule="evenodd" clip-rule="evenodd" d="M246.565 157.653L245.34 165.939L243.677 174.006L238.33 184.681L233.881 181.361L231.656 179.119L229.979 175.508L228.617 171.74L228.008 168.155L228.654 167.272L228.962 166.649L229.431 165.674L231.357 163.397L234.843 160.69L239.553 158.596L242.779 157.401L246.565 157.653V157.653Z" stroke="black" stroke-width="1.49237" stroke-miterlimit="1" stroke-linecap="round"/>
<path d="M161.393 134.096L173.399 134.215L177.6 133.269L180.488 131.846L184.938 130.703L187.347 130.581L189.387 129.561L189.812 131.107" stroke="black" stroke-miterlimit="1" stroke-linecap="round"/>
<path d="M158.236 96.19L153.787 95.122L152.514 94.6021L149.337 92.5198L148.831 91.994L147.53 88.1949L147.923 83.5486L149.337 81.9443L151.614 79.5312L153.787 77.5488L154.724 76.6365L158.236 75.3242L162.685 74.8043L167.135 73.9432L171.584 72.728" stroke="black" stroke-miterlimit="1" stroke-linecap="round"/>
<path d="M133.906 70.6784L135.987 71.719L139.239 74.5421L140.436 75.7738L142.421 77.4005L144.885 80.6175L146.18 84.4196L147.041 86.1448L147.528 88.1953" stroke="black" stroke-width="1.49237" stroke-miterlimit="1" stroke-linecap="round"/>
<path fill-rule="evenodd" clip-rule="evenodd" d="M133.874 70.6614L136.813 67.6811L139.68 64.6655L142.227 61.4898L144.887 58.3707L148.487 51.272L150.498 47.8276L152.577 44.418L159.109 34.3361L162.685 30.7464L165.757 28.7735L165.762 33.2128L166.511 38.0367L167.134 40.9259L167.876 44.623L168.859 48.1097L169.479 50.5243L170.312 53.2857L170.7 54.3627L171.584 56.2844L172.45 57.9374L174.233 61.4957L174.629 64.3427L174.676 65.7231L176.033 69.4943L176.669 70.9987L176.726 71.0295L176.033 71.6075L171.584 72.7283L167.134 73.9436L162.685 74.8047L158.235 75.3245L154.723 76.6368L153.786 77.5492L151.614 79.5315L149.336 81.9447L147.923 83.549L147.53 88.1953L147.043 86.1447L146.182 84.4195L144.887 80.6175L142.423 77.4004L140.438 75.7737L139.241 74.542L135.989 71.719L133.874 70.6614V70.6614Z" stroke="black" stroke-width="1.49237" stroke-miterlimit="1" stroke-linecap="round"/>
<path fill-rule="evenodd" clip-rule="evenodd" d="M210.87 69.8774L212.816 73.3536L215.076 76.6731L218.429 81.7895L219.688 83.2659L222.081 86.5188L224.283 89.1653L226.373 93.2718L227.178 97.3186L227.402 101.656L228.129 105.742L228.772 109.869L229.434 113.988L230.407 117.951L231.255 119.348L232.349 121.429L235.062 124.523L237.234 127.301L233.884 127.199L230.743 127.991L229.434 129.651L228.393 131.265L227.788 132.609L226.72 134.878L226.456 136.438L224.985 137.72L224.586 138.26L223.629 142.231L223.224 143.79C223.224 143.79 222.758 145.736 222.647 146.19L221.59 147.3L220.535 148.217L219.66 149.146L216.086 151.106L214.711 151.12L211.636 149.583L209.767 146.068L207.187 144.643L204.759 141.695L198.288 136.754L191.918 132.746L189.814 131.107L189.389 129.561L189.122 124.978L188.803 120.369L188.473 115.755L188.653 112.131L188.723 107.647L188.25 103.434L187.342 99.4387L187.261 97.3509L187.351 94.985L187.695 93.118L188.768 89.2055L189.679 85.2115L190.636 81.2408L191.311 78.7102L191.967 77.4571L194.56 74.3042L196.336 70.7429L199.107 67.6786L202.502 64.9272L205.401 62.8607L210.87 69.8774V69.8774Z" stroke="black" stroke-width="1.49237" stroke-miterlimit="1" stroke-linecap="round"/>
<path fill-rule="evenodd" clip-rule="evenodd" d="M237.23 127.301L237.559 127.72L240.168 130.865L242.087 134.355L242.778 138.459V141.113L240.366 141.703L238.329 141.747L236.972 141.362L233.88 140.489L231.616 139.591L229.43 138.227L227.872 137.013L226.452 136.437L226.716 134.877L227.784 132.608L228.389 131.264L229.43 129.651L230.739 127.99L233.88 127.199L237.23 127.301V127.301Z" stroke="black" stroke-width="1.49237" stroke-miterlimit="1" stroke-linecap="round"/>
<path fill-rule="evenodd" clip-rule="evenodd" d="M246.559 158.15L242.773 157.899L239.547 159.093L234.836 161.188L231.35 163.894L229.424 166.172L228.956 167.146L228.647 167.769L228.001 168.652L226.898 168.644L224.975 168.206L220.526 167.381L218.754 166.495L216.077 166.819L212.238 167.686L206.526 169.279L201.944 171.438L197.253 173.542L193.829 174.862L192.421 172.535L190.922 168.834L189.38 162.655L187.34 160.208L187.444 159.738L188.259 155.697L190.017 152.126L191.698 150.649L191.844 146.127L191.556 139.548L190.899 133.251L189.805 131.108L189.38 129.561L189.805 131.107L191.909 132.746L198.279 136.754L204.75 141.695L207.178 144.643L209.757 146.068L211.627 149.583L214.701 151.12L216.077 151.106L219.651 149.146L220.526 148.217L221.581 147.3L222.638 146.19C222.749 145.736 223.214 143.789 223.214 143.789L223.62 142.231L224.576 138.26L224.975 137.72L226.446 136.438L227.867 137.014L229.424 138.227L231.61 139.591L233.874 140.49L236.966 141.363L238.323 141.747L240.361 141.703L242.773 141.114V138.46L242.114 134.547L242.773 138.46L244.647 141.972L245.567 145.961L245.933 150.228L246.227 154.53L246.559 158.15V158.15Z" stroke="black" stroke-width="1.49237" stroke-miterlimit="1" stroke-linecap="round"/>
<path fill-rule="evenodd" clip-rule="evenodd" d="M237.83 189.381L236.05 192.94L233.874 196.302L232.159 192.71L231.057 190.444L231.538 186.235L231.983 183.899L231.657 179.624L233.874 181.859L238.324 185.179L237.83 189.381V189.381Z" stroke="black" stroke-width="1.49237" stroke-miterlimit="1" stroke-linecap="round"/>
<path fill-rule="evenodd" clip-rule="evenodd" d="M211.636 213.742L213.453 208.334L214.029 206.228L214.737 204.526L216.571 200.994L219.018 197.768L221.21 194.414L224.99 191.855L229.434 190.78L231.066 190.444L232.168 192.71L233.883 196.302L230.271 198.945L224.984 205.201L223.155 208.736L222.185 211.961L221.667 211.308L216.086 211.712L213.531 212.822L211.906 213.862L211.636 214.035V213.742V213.742Z" stroke="black" stroke-width="1.49237" stroke-miterlimit="1" stroke-linecap="round"/>
<path fill-rule="evenodd" clip-rule="evenodd" d="M219.012 215.564L217.179 219.098L215.18 222.547L213.365 226.089L211.632 229.672L209.796 233.204L207.847 236.678L205.891 240.15L203.23 243.269L203.21 243.291L198.284 245.245L193.835 245.298L196.475 241.701L196.778 240.043L198.284 236.347L199.849 232.679L201.449 229.03L202.734 225.223L204.555 221.684L206.794 218.355L209.624 215.32L213.528 212.822L216.082 211.712L221.664 211.309L222.181 211.961L221.988 212.603L219.012 215.564V215.564Z" stroke="black" stroke-width="1.49237" stroke-miterlimit="1" stroke-linecap="round"/>
<path fill-rule="evenodd" clip-rule="evenodd" d="M200.483 246.34L193.614 251.804L190.136 254.515L184.945 257.926L183.589 260.14L181.558 263.574L179.261 266.874L176.046 269.717L174.972 268.252L174.598 265.992L174.319 264.403L172.936 262.373L171.597 261.371L170.56 260.29L170.524 259.13L171.597 256.868L174.268 255.479L177.757 252.774L181.294 250.093L185.263 247.629L189.395 245.245L193.844 245.297L198.293 245.245L203.219 243.291L200.483 246.34V246.34Z" stroke="black" stroke-width="1.49237" stroke-miterlimit="1" stroke-linecap="round"/>
<path fill-rule="evenodd" clip-rule="evenodd" d="M189.388 245.244L185.257 247.628L181.288 250.093L177.751 252.774L174.262 255.479L171.591 256.868L171.538 256.979L169.262 255.307L166.578 252.2L163.863 249.108L162.692 247.887L161 246.091L158.523 242.88L156.613 239.385L157.197 238.048L158.473 234.237L160.505 230.803L162.692 227.447L164.518 223.911L166.428 220.416L168.215 216.861L170.517 213.562L172.532 210.12L174.477 206.643L176.409 203.16L178.52 199.766L180.259 196.186L181.807 192.511L183.832 189.074L186.202 185.809L188.464 182.491L190.932 179.276L193.837 174.861L197.261 173.541L201.952 171.437L206.534 169.279L212.246 167.686L216.085 166.818L218.762 166.495L220.534 167.38L224.983 168.205L226.906 168.644L228.009 168.652L228.618 172.237L229.98 176.005L231.658 179.616L231.665 179.623L231.991 183.899L231.546 186.235L231.065 190.443L229.433 190.779L224.989 191.855L221.209 194.414L219.017 197.768L216.57 200.993L214.736 204.526L214.028 206.228L213.452 208.333L211.635 213.741V214.034L209.627 215.319L206.797 218.354L204.557 221.683L202.737 225.222L201.452 229.029L199.851 232.678L198.287 236.346L196.78 240.042L196.477 241.7L193.837 245.297L189.388 245.244V245.244Z" stroke="black" stroke-width="1.49237" stroke-miterlimit="1" stroke-linecap="round"/>
<path fill-rule="evenodd" clip-rule="evenodd" d="M130.623 234.032L129.969 230.463L129.048 226.474L128.089 222.505L126.326 218.936L123.591 215.855L120.604 212.899L116.239 210.632L113.158 207.723L111.103 206.099L111.103 206.096L113.755 205.938L116.784 205.91L123.983 208.089L127.103 207.643L131.552 208.624L136.002 209.141L140.451 210.724L144.9 214.099L148.164 216.917L148.804 220.5L148.832 224.964L149.35 229.672V231.532L146.582 231.707L145.844 231.425L144.9 230.708L143.05 230.971L140.451 231.268L138.11 230.842L136.002 231.125L135.149 231.47L131.552 233.301L130.623 234.032V234.032Z" stroke="black" stroke-width="1.49237" stroke-miterlimit="1" stroke-linecap="round"/>
<path fill-rule="evenodd" clip-rule="evenodd" d="M149.093 232.001L149.342 231.533V229.672L151.434 233.076L152.692 235.796L153.791 237.432L156.612 239.385L154.825 241.313L153.791 242.862L153.119 244.909L153.128 244.935L153.093 244.896L151.065 242.159L149.752 238.366L148.385 234.604L148.293 233.597L149.093 232.001V232.001Z" stroke="black" stroke-miterlimit="1" stroke-linecap="round"/>
<path fill-rule="evenodd" clip-rule="evenodd" d="M144.82 230.718L144.896 230.748L143.03 231.538L142.841 232.923L143.755 236.921L144.896 240.795L146.333 244.526L146.896 246.245L147.963 248.161L149.345 250.445L150.051 251.566L151.365 252.929L153.343 254.369L153.351 254.367L155.442 255.97L153.795 258.593L151.12 259.93L151.089 259.976L151.074 259.953L148.697 256.692L146.47 253.357L143.469 250.408L140.213 247.586L137.281 244.603L135.005 241.291L132.872 237.909L130.712 234.539L130.619 234.032L131.548 233.301L135.144 231.47L135.997 231.125L138.105 230.842L140.447 231.268L143.045 230.971L144.82 230.718V230.718Z" stroke="black" stroke-miterlimit="1" stroke-linecap="round"/>
<path fill-rule="evenodd" clip-rule="evenodd" d="M144.825 230.719L144.9 230.708L145.844 231.425L146.582 231.708L149.35 231.532L149.101 232.001L148.3 233.597L148.392 234.604L149.76 238.366L151.073 242.159L153.101 244.896L153.136 244.934L153.799 246.853L152.733 249.161L152.778 250.205L153.355 254.366L153.356 254.367L153.347 254.37L151.37 252.929L150.056 251.566L149.35 250.445L147.967 248.161L146.901 246.245L146.337 244.527L144.9 240.796L143.759 236.921L142.846 232.924L143.035 231.538L144.9 230.748L144.825 230.719V230.719Z" stroke="black" stroke-miterlimit="1" stroke-linecap="round"/>
<path fill-rule="evenodd" clip-rule="evenodd" d="M127.096 207.643L131.545 208.624L135.995 209.142L140.444 210.724L144.894 214.099L148.157 216.917L148.798 220.5L148.826 224.964L149.343 229.672V231.532L146.575 231.707L145.837 231.425L144.894 230.708L143.043 230.971L140.444 231.268L138.103 230.842L135.995 231.125L135.142 231.47L131.545 233.301L130.617 234.032L129.963 230.464L129.042 226.474L128.082 222.505L126.32 218.937L123.585 215.855L122.647 214.927V211.874L125.39 208.796L127.096 207.65V207.643V207.643Z" stroke="black" stroke-width="1.49237" stroke-miterlimit="1" stroke-linecap="round"/>
<path fill-rule="evenodd" clip-rule="evenodd" d="M111.105 206.096L113.754 205.938L116.783 205.91L123.982 208.089L127.102 207.643V207.65L125.397 208.796L122.653 211.874V214.926L120.604 212.899L116.238 210.632L113.157 207.723L111.103 206.099V206.099L111.105 206.096V206.096Z" stroke="black" stroke-width="1.49237" stroke-miterlimit="1" stroke-linecap="round"/>
<path fill-rule="evenodd" clip-rule="evenodd" d="M123.972 188.998L126.431 192.835L127.093 207.643L123.973 208.089L116.774 205.91L113.745 205.938L111.095 206.096L111.093 206.099L110.941 204.377L109.295 200.751L109.292 200.747L109.31 200.742L112.272 199.857L114.134 199.094L116.593 197.861L118.237 196.346L120.04 194.033L121.69 191.313L123.514 189.821L123.972 188.998V188.998Z" stroke="black" stroke-width="0.497457" stroke-miterlimit="1" stroke-linecap="round"/>
<path fill-rule="evenodd" clip-rule="evenodd" d="M106.112 183.202L108.438 182.52L117.344 180.04L119.632 177.79L122.653 176.279L123.937 176.922L123.791 180.159L123.792 180.158L123.981 188.997L123.981 188.998L123.523 189.821L121.699 191.313L120.049 194.033L118.246 196.347L116.602 197.862L114.143 199.095L112.281 199.857L109.319 200.742L109.301 200.747L106.55 197.678L104.308 194.35L103.009 190.551L102.337 188.59L102.347 188.589L104.71 186.389L106.112 183.202V183.202Z" stroke="black" stroke-miterlimit="1" stroke-linecap="round"/>
<path fill-rule="evenodd" clip-rule="evenodd" d="M102.331 188.59L101.701 186.752L100.836 183.171L100.4 180.715V178.503L101.779 179.676L103.608 181.349L106.097 183.204L106.106 183.202L104.704 186.388L102.341 188.589L102.331 188.59V188.59Z" stroke="black" stroke-width="1.49237" stroke-miterlimit="1" stroke-linecap="round"/>
<path fill-rule="evenodd" clip-rule="evenodd" d="M129.333 180.128L129.942 179.923L131.552 179.258L132.926 178.571L133.887 178.659L134.275 179.367L135.096 182.501L135.269 183.32L135.989 185.498L135.544 187.174L135.279 188.531L133.738 189.918L131.552 189.627L130.173 188.938L130.314 185.832L130.052 184.428L129.686 181.661L129.333 180.128V180.128Z" stroke="black" stroke-width="1.49237" stroke-miterlimit="1" stroke-linecap="round"/>
<path fill-rule="evenodd" clip-rule="evenodd" d="M130.107 190.348L129.844 193.224L127.1 193.232L126.44 192.801L126.422 192.81L123.979 188.997L123.79 180.158L127.1 177.916L128.462 177.823L129.065 179.486L129.33 180.128L129.684 181.661L130.049 184.428L130.311 185.832L130.107 190.348V190.348Z" stroke="black" stroke-width="1.49237" stroke-miterlimit="1" stroke-linecap="round"/>
<path fill-rule="evenodd" clip-rule="evenodd" d="M135.987 185.535L139.569 184.744L140.437 184.319L142.796 183.999L144.886 183.465L149.335 183.001L153.785 182.421L158.234 181.367L162.683 180.095L167.133 178.601L171.582 177.197L174.413 175.47L178.8 173.214L182.757 170.744L184.931 168.878L186.556 163.744L187.444 159.739L187.34 160.208L189.38 162.655L190.922 168.835L192.42 172.535L193.829 174.862L190.924 179.276L188.456 182.492L186.193 185.81L183.824 189.075L181.799 192.511L180.251 196.187L178.512 199.767L176.401 203.161L174.469 206.644L172.524 210.121L170.509 213.563L168.207 216.861L166.419 220.417L164.51 223.912L162.683 227.448L160.497 230.803L158.465 234.237L157.189 238.048L156.605 239.386L153.785 237.432L152.685 235.796L151.427 233.076L149.335 229.672L148.818 224.964L148.79 220.501L148.149 216.917L144.886 214.099L140.437 210.725L135.987 209.142L131.538 208.625L127.088 207.644V207.651V207.644L126.427 192.836L126.41 192.81L126.428 192.802L127.088 193.233L129.833 193.225L130.096 190.349L130.159 188.938L131.538 189.628L133.725 189.919L135.265 188.532L135.53 187.175L135.975 185.499L135.987 185.535V185.535Z" stroke="black" stroke-width="1.49237" stroke-miterlimit="1" stroke-linecap="round"/>
<path fill-rule="evenodd" clip-rule="evenodd" d="M133.402 71.7187L133.88 70.6611L136.819 67.6808L139.686 64.6652L142.233 61.4895L144.893 58.3704L148.493 51.2717L150.504 47.8273L152.584 44.4177L159.115 34.3358L162.691 30.7461L165.774 28.7658L169.905 26.3819L171.59 25.8178L173.42 25.2134L176.039 25L180.488 27.2246L183.576 30.1303L185.808 33.4637L186.353 34.6064L186.975 37.33L187.858 41.3375L189.992 44.7197L193.509 47.4104L195.872 48.2646L202.736 59.4434L205.399 62.8605L202.5 64.9269L199.105 67.6783L196.334 70.7427L194.558 74.304L191.965 77.4568L191.309 78.7099L190.634 81.2405L189.676 85.2112L188.766 89.2053L187.693 93.1178L187.349 94.9847L187.259 97.3507L187.34 99.4385L188.248 103.434L188.721 107.647L188.651 112.131L188.471 115.755L188.801 120.368L189.12 124.977L189.387 129.56L189.812 131.108L190.906 133.251L191.563 139.547L191.851 146.126L191.706 150.649L190.024 152.126L188.267 155.696L187.451 159.738L186.564 163.744L184.938 168.878L182.764 170.743L178.807 173.214L174.42 175.47L171.59 177.196L167.141 178.6L162.691 180.095L158.242 181.366L153.792 182.421L149.343 183.001L144.893 183.465L142.803 183.999L140.444 184.318L139.577 184.744L135.995 185.535L135.262 183.32L135.089 182.501L134.268 179.367L133.88 178.66L132.919 178.571L131.545 179.258L129.936 179.924L129.326 180.129L129.061 179.486L128.458 177.823L127.096 177.916L123.785 180.159L123.93 176.921L122.647 176.279L119.626 177.789L117.338 180.039L108.432 182.52L106.097 183.205L103.608 181.349L101.779 179.677L100.4 178.504L101.223 174.466L102.364 170.587L103.84 166.876L104.318 162.666L105.055 158.585L106.124 154.67L107.346 150.832L108.68 147.049L110.126 143.323L112.188 139.904L114.284 136.476L114.402 136.562L118.197 134.01L122.647 131.785L125.871 132.449L126.078 130.07L125.977 129.001L126.105 124.616L127.096 125.111L133.433 126.663L135.995 126.512L140.444 125.911L144.571 124.95L148.553 122.492L151.958 119.745L154.574 116.603L156.607 113.171L159.394 110.115L162.691 107.693L166.39 104.714L169.843 101.991L171.59 100.834L176.453 96.397L178.361 92.9019L179.39 88.967L180.758 85.2013L182 81.3728L182.002 81.3718L181.966 79.8785L180.849 75.9878L180.488 74.5194L179.197 72.3639L176.732 71.0292L176.039 71.6072L171.59 72.728L167.141 73.9433L162.691 74.8044L158.242 75.3242L154.729 76.6365L153.792 77.5489L151.62 79.5312L149.343 81.9444L147.929 83.5487L147.536 88.195L147.049 86.1444L146.188 84.4192L144.893 80.6172L142.429 77.4001L140.444 75.7734L139.247 74.5417L135.995 71.7187L133.88 70.6611L133.402 71.7187V71.7187Z" stroke="black" stroke-width="1.49237" stroke-miterlimit="1" stroke-linecap="round"/>
<path fill-rule="evenodd" clip-rule="evenodd" d="M125.971 129.001L126.072 130.07L125.865 132.449L122.641 131.785L118.192 134.01L114.396 136.562L114.279 136.476L114.727 135.743L115.155 128.043L115.019 122.248L115.666 119.4L116.265 121.625L118.192 122.319L121.084 122.108L122.641 121.596L126.1 120.167V124.616L125.971 129.001V129.001Z" stroke="black" stroke-width="1.49237" stroke-miterlimit="1" stroke-linecap="round"/>
<path fill-rule="evenodd" clip-rule="evenodd" d="M100.4 178.504L101.223 174.466L102.364 170.587L103.84 166.876L104.318 162.666L105.055 158.585L106.124 154.67L107.346 150.832L108.68 147.049L110.126 143.323L112.188 139.904L114.733 135.742L115.161 128.043L115.025 122.248L115.672 119.399L116.797 115.512L117.17 111.25L118.197 107.314L119.951 103.741L120.997 99.8151L121.791 95.7628L122.647 91.7408L127.096 85.0669L128.989 81.5638L130.968 78.104L132.239 74.29L133.88 70.6611L136.819 67.6808L139.686 64.6652L142.233 61.4895L144.893 58.3704L148.493 51.2717L150.504 47.8273L152.584 44.4177L159.115 34.3358L162.691 30.7461L165.774 28.7658L169.905 26.3819L171.59 25.8178L173.42 25.2134L176.039 25L180.488 27.2246L183.576 30.1303L185.808 33.4637L186.353 34.6064L186.975 37.33L187.858 41.3375L189.992 44.7197L193.509 47.4104L195.872 48.2646L202.736 59.4434L205.399 62.8605L202.5 64.9269L199.105 67.6783L196.334 70.7427L194.558 74.304L191.965 77.4568L191.309 78.7099L190.634 81.2405L189.676 85.2112L188.766 89.2053L187.693 93.1178L187.349 94.9847L187.259 97.3507L187.34 99.4385L188.248 103.434L188.721 107.647L188.651 112.131L188.471 115.755L188.801 120.368L189.12 124.977L189.387 129.56L189.812 131.108L190.906 133.251L191.563 139.547L191.851 146.126L191.706 150.649L190.024 152.126L188.267 155.696L187.451 159.738L186.564 163.744L184.938 168.878L182.764 170.743L178.807 173.214L174.42 175.47L171.59 177.196L167.141 178.6L162.691 180.095L158.242 181.366L153.792 182.421L149.343 183.001L144.893 183.465L142.803 183.999L140.444 184.318L139.577 184.744L135.995 185.535L135.262 183.32L135.089 182.501L134.268 179.367L133.88 178.66L132.919 178.571L131.545 179.258L129.936 179.924L129.326 180.129L129.061 179.486L128.458 177.823L127.096 177.916L123.785 180.159L123.93 176.921L122.647 176.279L119.626 177.789L117.338 180.039L108.432 182.52L106.097 183.205L103.608 181.349L101.779 179.677L100.4 178.504V178.504Z" stroke="black" stroke-width="1.49237" stroke-miterlimit="1" stroke-linecap="round"/>
<path fill-rule="evenodd" clip-rule="evenodd" d="M133.884 70.6617L135.999 71.7193L139.251 74.5424L140.448 75.7741L142.433 77.4008L144.898 80.6178L146.193 84.4199L147.054 86.145L147.54 88.1956L147.933 83.5493L149.347 81.945L151.624 79.5319L153.797 77.5495L154.733 76.6372L158.246 75.3249L162.695 74.805L167.145 73.9439L171.594 72.7286L176.043 71.6079L176.736 71.0298L179.202 72.3645L180.493 74.52L180.853 75.9885L181.97 79.8791L182.006 81.3724L182.004 81.3734L180.762 85.2019L179.395 88.9676L178.366 92.9025L176.457 96.3976L171.594 100.834L169.847 101.992L166.395 104.715L162.695 107.694L159.399 110.116L156.612 113.171L154.578 116.604L151.963 119.745L148.557 122.492L144.576 124.951L140.448 125.911L135.999 126.512L133.437 126.664L127.1 125.112L126.11 124.616V120.167L122.651 121.596L121.094 122.109L118.202 122.32L116.275 121.626L115.676 119.4L116.801 115.513L117.174 111.25L118.202 107.314L119.955 103.742L121.002 99.8157L121.796 95.7634L122.651 91.7414L127.1 85.0676L128.993 81.5645L130.972 78.1047L132.243 74.2906L133.884 70.6617V70.6617Z" stroke="black" stroke-width="1.49237" stroke-miterlimit="1" stroke-linecap="round"/>
<path fill-rule="evenodd" clip-rule="evenodd" d="M31.5551 33.9728L29.3997 38.7515L28.6616 41.276L28.376 42.6582L27.1365 46.4573L26.352 50.4836L25.7271 54.5899L25.2607 56.2325L24.7618 58.5258L24.3927 61.0853L23.9318 62.5293L23.2481 66.0764L22.718 68.0486L21.6425 70.2223L21.1218 71.5581L20.1708 73.9052L18.2994 77.3881L16.8129 81.0636L16.3925 82.7601L15.569 84.8602L14.9692 87.8905L14.8902 88.9393L14.7237 92.4321L14.7613 101.25L15.7434 109.596L14.3981 119.106L13.8804 123.784L13.4136 132.388L12.63 136.415L10.7226 139.88L10.0389 143.957L9.46186 146.022L8.3266 148.654L7.7397 151.645L6.98829 153.742L6.28826 155.338L5.04332 158.505L3.86211 162.962L3.67537 164.236L3.03116 166.965L2.66361 171.2L2.3909 175.482L2.27234 178.194L2.46007 179.936L2.73425 182.381L2.71795 184.483L2.86517 186.735L2.80588 188.946L2.37016 191.401L2.28765 193.105L2.5811 195.714L2.85776 197.809L3.07167 199.888L3.29546 202.447L3.23272 204.226L2.93087 206.683L2.92593 208.798L2.70609 210.989L2.91605 213.221L2.72042 215.415L2.94223 217.627L4.22324 220.585L5.04332 221.538L6.87269 224.499L8.80382 227.952L9.46186 230.211L9.97466 231.786L11.2764 235.553L12.14 237.8L12.4413 239.39L13.8804 243.089L17.26 245.818L18.2994 246.595L20.2923 248.72L22.2561 252.157L24.4352 255.486L25.3022 257.637L26.0151 259.115L27.5999 262.741L28.6063 263.708L29.9268 265.996L31.5551 268.147L32.0056 269.376L34.3369 272.629L35.9741 273.756L38.4309 275L40.3927 274.865L43.8439 271.326L47.2858 268.629L50.6412 265.888L51.6915 261.994L53.057 258.258L53.6488 254.135L56.3319 251.058L60.4797 248.713L61.8817 245.6L63.0343 241.153L63.8054 237.12L65.0751 233.337L66.4445 229.603L67.932 225.928L68.6523 221.869L69.5292 220.228L71.3235 218.786L75.742 216.577L81.6338 210.685L83.8282 207.364L84.5796 203.321L87.3175 200.271L88.9982 196.692L89.6957 191.925L90.0001 187.354L89.5712 183.15L88.9982 179.018L88.2833 174.957L87.9158 170.721L87.1589 166.681L86.6328 162.526L86.2894 159.988L86.0192 158.414L85.791 154.109L84.7777 150.197L84.3109 146.012L83.3297 142.084L82.5284 138.066L81.5275 135.514L80.1606 133.319L79.6631 130.661L78.2838 126.932L77.4583 124.642L74.957 119.758L73.6894 115.973L73.4315 113.792L73.2848 111.757L72.5842 107.689L71.3235 105.014L70.8626 103.67L69.8138 100.236L68.3035 96.573L66.9049 92.8535L64.6952 89.5396L63.5431 85.6966L62.2754 81.9119L60.9989 78.1316L59.7515 74.3365L58.3628 70.6121L57.2878 66.731L56.1071 62.9028L54.9481 59.0638L53.6488 55.2949L52.0373 51.6816L50.784 47.8894L48.92 44.4026L46.9988 40.945L44.8112 37.6202L42.926 34.1437L40.8576 30.7597L39.6022 29.1383L37.9151 27.8118L35.9741 26.6237L33.6843 25.5087L33.3731 27.4823L32.6992 31.5639L31.5551 33.9728Z" fill="white" stroke="black" stroke-width="2.47012" stroke-miterlimit="1" stroke-linecap="round"/>
<mask id="mask0" mask-type="alpha" maskUnits="userSpaceOnUse" x="1" y="24" width="91" height="253">
<path fill-rule="evenodd" clip-rule="evenodd" d="M31.555 33.9728L29.3995 38.7515L28.6615 41.276L28.3759 42.6582L27.1364 46.4573L26.3519 50.4836L25.727 54.5899L25.2606 56.2325L24.7616 58.5258L24.3926 61.0853L23.9317 62.5293L23.248 66.0764L22.7179 68.0486L21.6424 70.2223L21.1217 71.5581L20.1707 73.9052L18.2993 77.3881L16.8128 81.0636L16.3924 82.7601L15.5689 84.8602L14.9691 87.8905L14.8901 88.9393L14.7236 92.4321L14.7611 101.25L15.7432 109.596L14.398 119.106L13.8803 123.784L13.4134 132.388L12.6299 136.415L10.7225 139.88L10.0388 143.957L9.46174 146.022L8.32648 148.654L7.73958 151.645L6.98817 153.742L6.28813 155.338L5.04319 158.505L3.86198 162.962L3.67524 164.236L3.03104 166.965L2.66348 171.2L2.39078 175.482L2.27222 178.194L2.45995 179.936L2.73413 182.381L2.71783 184.483L2.86504 186.735L2.80576 188.946L2.37003 191.401L2.28753 193.105L2.58098 195.714L2.85763 197.809L3.07155 199.888L3.29534 202.447L3.2326 204.226L2.93075 206.683L2.92581 208.798L2.70597 210.989L2.91593 213.221L2.7203 215.415L2.94211 217.627L4.22312 220.585L5.04319 221.538L6.87256 224.499L8.8037 227.952L9.46174 230.211L9.97454 231.786L11.2763 235.553L12.1398 237.8L12.4412 239.39L13.8803 243.089L17.2599 245.818L18.2993 246.595L20.2922 248.72L22.256 252.157L24.4351 255.486L25.3021 257.637L26.015 259.115L27.5998 262.741L28.6061 263.708L29.9267 265.996L31.555 268.147L32.0055 269.376L34.3368 272.629L35.974 273.756L38.4308 275L40.3926 274.865L43.8438 271.326L47.2857 268.629L50.6411 265.888L51.6914 261.994L53.0568 258.258L53.6487 254.135L56.3317 251.058L60.4796 248.713L61.8816 245.6L63.0341 241.153L63.8053 237.12L65.075 233.337L66.4444 229.603L67.9319 225.928L68.6522 221.869L69.5291 220.228L71.3234 218.786L75.7419 216.577L81.6336 210.685L83.8281 207.364L84.5795 203.321L87.3174 200.271L88.998 196.692L89.6956 191.925L89.9999 187.354L89.5711 183.15L88.998 179.018L88.2832 174.957L87.9156 170.721L87.1588 166.681L86.6327 162.526L86.2893 159.988L86.0191 158.414L85.7909 154.109L84.7776 150.197L84.3108 146.012L83.3296 142.084L82.5283 138.066L81.5274 135.514L80.1605 133.319L79.663 130.661L78.2837 126.932L77.4582 124.642L74.9569 119.758L73.6893 115.973L73.4314 113.792L73.2846 111.757L72.5841 107.689L71.3234 105.014L70.8624 103.67L69.8136 100.236L68.3034 96.573L66.9048 92.8535L64.6951 89.5396L63.543 85.6966L62.2753 81.9119L60.9988 78.1316L59.7514 74.3365L58.3627 70.6121L57.2877 66.731L56.1069 62.9028L54.948 59.0638L53.6487 55.2949L52.0372 51.6816L50.7838 47.8894L48.9199 44.4026L46.9986 40.945L44.8111 37.6202L42.9259 34.1437L40.8574 30.7597L39.6021 29.1383L37.915 27.8118L35.974 26.6237L33.6842 25.5087L33.373 27.4823L32.6991 31.5639L31.555 33.9728V33.9728Z" fill="white" stroke="black" stroke-width="2.47012" stroke-miterlimit="1" stroke-linecap="round"/>
</mask>
<g mask="url(#mask0)">
<path d="M33.7132 25L34.4942 31.9682L34.0422 36.1605L33.0996 40.1077L33.3768 42.8431L33.3679 44.6606L32.8961 47.5018L32.6061 48.6988L32.4342 52.1515L32.2059 52.9173L31.0529 56.7593L30.3133 60.8083L29.8223 62.2948L31.5543 65.8473L33.0991 69.4937L34.6237 73.15L34.4305 76.123L35.9734 81.3127L36.9831 85.2264L38.9844 88.6445L39.8188 92.0731L39.3851 96.2747L38.4894 100.246L37.8358 104.338L37.7005 106.961L38.2508 111.105L38.3545 113.434L38.3476 115.475L38.5724 117.962L38.5739 119.781L39.2981 122.744L39.6049 127.316L39.4488 128.181L40.3919 130.352L40.9581 131.844L42.7435 135.37L43.7666 139.278L44.8104 143.174L45.8311 147.083L48.1634 150.335L49.229 155.858V163.058L48.5907 167.797L47.743 171.153L47.6916 175.546L47.6946 179.966L46.7707 183.923L46.1354 188.024L46.8597 192.804L47.4194 197.503L48.0764 202.25L49.018 202.932L51.3088 206.205L53.1846 209.686L54.7285 213.333L54.6099 214.354L54.9053 217.663L55.1113 219.024L55.8119 221.629L55.094 223.433L53.648 226.411L51.6517 230.55L49.4612 233.873L47.5725 237.348L47.4994 239.041L47.4634 241.712L47.0958 256.423L46.2253 258.767L44.8104 262.479L43.9667 266.476L41.9644 269.893L40.3919 274.371" stroke="black" stroke-width="4.94024" stroke-miterlimit="1" stroke-linecap="round"/>
</g>
</svg>
