<svg width="633" height="300" viewBox="0 0 633 300" fill="none" xmlns="http://www.w3.org/2000/svg">
<rect width="633" height="300" fill="white"/>
<path fill-rule="evenodd" clip-rule="evenodd" d="M358.314 70.6611L361.253 67.6808L364.12 64.6652L366.667 61.4895L369.327 58.3704L372.927 51.2717L374.938 47.8273L377.017 44.4177L383.549 34.3358L387.125 30.7461L390.208 28.7657L394.339 26.3819L396.024 25.8178L397.853 25.2134L400.473 25L404.922 27.2246L408.01 30.1303L410.242 33.4637L410.787 34.6064L411.409 37.33L412.292 41.3375L414.426 44.7197L417.943 47.4104L420.306 48.2646L427.17 59.4434L435.302 69.8771L437.248 73.3533L439.508 76.6728L442.861 81.7892L444.119 83.2656L446.513 86.5185L448.714 89.165L450.805 93.2715L451.61 97.3183L451.833 101.656L452.561 105.741L453.204 109.869L453.866 113.988L454.839 117.951L455.687 119.348L456.781 121.429L459.493 124.522L461.995 127.721L464.604 130.865L466.523 134.355L467.214 138.46L469.088 141.972L470.008 145.961L470.374 150.228L470.668 154.53L471 158.15L469.774 166.436L468.112 174.503L462.765 185.178L462.271 189.381L460.491 192.94L458.315 196.301L454.703 198.945L449.416 205.2L447.587 208.735L446.423 212.602L443.447 215.564L441.615 219.097L439.616 222.547L437.8 226.089L436.068 229.672L434.232 233.203L432.282 236.678L430.327 240.15L427.666 243.268L424.909 246.34L418.041 251.804L414.563 254.515L409.372 257.926L408.015 260.139L405.985 263.573L403.688 266.874L400.473 269.717L398.785 273.322L397.771 274.482L396.024 275L393.2 274.979L387.125 271.941L382.676 269.317L380.304 266.453L377.68 263.316L375.505 259.953L373.128 256.693L370.901 253.357L367.9 250.408L364.644 247.586L361.712 244.603L359.437 241.291L357.304 237.909L355.143 234.539L354.396 230.464L353.475 226.475L352.516 222.505L350.753 218.937L348.018 215.855L345.031 212.899L340.666 210.632L337.585 207.723L335.53 206.099L335.377 204.378L333.732 200.751L330.978 197.678L328.736 194.35L327.436 190.551L326.135 186.752L325.27 183.171L324.834 180.715V178.504L325.657 174.466L326.798 170.587L328.274 166.876L328.752 162.666L329.489 158.585L330.558 154.67L331.78 150.832L333.114 147.049L334.56 143.323L336.622 139.904L339.166 135.742L339.595 128.043L339.458 122.248L340.106 119.399L341.231 115.512L341.604 111.25L342.631 107.314L344.385 103.741L345.431 99.815L346.225 95.7628L347.08 91.7408L351.53 85.0669L358.314 70.6611Z" fill="white" stroke="black" stroke-width="2.98474" stroke-miterlimit="1" stroke-linecap="round"/>
<path d="M350.545 124.616V121.157V120.167L347.086 121.595L345.529 122.108L342.637 122.319L340.71 121.625L340.11 119.399" stroke="black" stroke-width="1.49237" stroke-miterlimit="1" stroke-linecap="round"/>
<path fill-rule="evenodd" clip-rule="evenodd" d="M390.201 28.7735L390.206 33.2128L390.955 38.0367L391.579 40.9259L392.321 44.623L393.303 48.1097L393.923 50.5243L394.757 53.2857L395.145 54.3627L396.028 56.2844L396.895 57.9374L398.677 61.4957L399.073 64.3427L399.12 65.7231L400.477 69.4943L401.114 70.9987L403.636 72.3642L404.927 74.5197L405.287 75.9881L406.404 79.8788L406.44 81.3721L406.438 81.3731L405.196 85.2016L403.829 88.9673L402.799 92.9022L400.891 96.3973L396.028 100.834L394.281 101.991L390.829 104.714L387.129 107.694L383.832 110.115L381.046 113.171L379.012 116.604L376.396 119.745L372.991 122.492L369.01 124.95L364.882 125.911L360.433 126.512L357.871 126.664L351.534 125.112L350.544 124.616V120.167L347.085 121.596L345.528 122.108L342.636 122.319L340.709 121.625L340.11 119.4L341.235 115.513L341.608 111.25L342.636 107.314L344.389 103.741L345.436 99.8153L346.23 95.7631L347.085 91.7411L351.534 85.0672L353.427 81.5641L355.406 78.1043L356.677 74.2903L358.318 70.6614L361.257 67.6811L364.124 64.6655L366.671 61.4898L369.332 58.3707L372.932 51.272L374.942 47.8276L377.022 44.418L383.553 34.3361L387.129 30.7464L390.201 28.7735V28.7735Z" stroke="black" stroke-width="1.49237" stroke-miterlimit="1" stroke-linecap="round"/>
<path fill-rule="evenodd" clip-rule="evenodd" d="M390.194 28.7732L390.205 28.7657L394.336 26.3819L396.021 25.8178L397.851 25.2134L400.47 25L404.92 27.2246L408.007 30.1303L410.239 33.4637L410.785 34.6064L411.406 37.33L412.289 41.3375L414.424 44.7197L417.941 47.4104L420.304 48.2646L427.167 59.4434L429.83 62.8605L426.931 64.9269L423.536 67.6783L420.766 70.7427L418.989 74.304L416.396 77.4568L413.819 77.6658L410.665 79.0402L406.433 81.3718L406.397 79.8785L405.28 75.9878L404.92 74.5194L403.629 72.3639L401.107 70.9984L400.47 69.494L399.113 65.7228L399.066 64.3424L398.67 61.4954L396.888 57.9371L396.021 56.2841L395.138 54.3624L394.75 53.2854L393.916 50.524L393.296 48.1094L392.314 44.6227L391.572 40.9256L390.948 38.0364L390.199 33.2125L390.194 28.7732V28.7732Z" stroke="black" stroke-width="1.49237" stroke-miterlimit="1" stroke-linecap="round"/>
<path fill-rule="evenodd" clip-rule="evenodd" d="M470.999 157.653L469.774 165.939L468.111 174.006L462.764 184.681L458.315 181.361L456.09 179.119L454.413 175.508L453.051 171.74L452.442 168.155L453.088 167.272L453.396 166.649L453.865 165.674L455.791 163.397L459.277 160.69L463.987 158.596L467.213 157.401L470.999 157.653V157.653Z" stroke="black" stroke-width="1.49237" stroke-miterlimit="1" stroke-linecap="round"/>
<path d="M385.827 134.096L397.833 134.215L402.034 133.269L404.922 131.846L409.372 130.703L411.781 130.581L413.821 129.561L414.246 131.107" stroke="black" stroke-miterlimit="1" stroke-linecap="round"/>
<path d="M382.67 96.19L378.221 95.122L376.948 94.6021L373.771 92.5198L373.265 91.994L371.964 88.1949L372.357 83.5486L373.771 81.9443L376.048 79.5312L378.221 77.5488L379.157 76.6365L382.67 75.3242L387.119 74.8043L391.569 73.9432L396.018 72.728" stroke="black" stroke-miterlimit="1" stroke-linecap="round"/>
<path d="M358.339 70.6784L360.421 71.719L363.673 74.5421L364.87 75.7738L366.855 77.4005L369.319 80.6175L370.614 84.4196L371.475 86.1448L371.962 88.1953" stroke="black" stroke-width="1.49237" stroke-miterlimit="1" stroke-linecap="round"/>
<path fill-rule="evenodd" clip-rule="evenodd" d="M358.308 70.6614L361.246 67.6811L364.114 64.6655L366.661 61.4898L369.321 58.3707L372.921 51.272L374.932 47.8276L377.011 44.418L383.543 34.3361L387.119 30.7464L390.19 28.7735L390.195 33.2128L390.945 38.0367L391.568 40.9259L392.31 44.623L393.293 48.1097L393.912 50.5243L394.746 53.2857L395.134 54.3627L396.018 56.2844L396.884 57.9374L398.667 61.4957L399.063 64.3427L399.11 65.7231L400.467 69.4943L401.103 70.9987L401.16 71.0295L400.467 71.6075L396.018 72.7283L391.568 73.9436L387.119 74.8047L382.669 75.3245L379.157 76.6368L378.22 77.5492L376.048 79.5315L373.77 81.9447L372.357 83.549L371.964 88.1953L371.477 86.1447L370.616 84.4195L369.321 80.6175L366.857 77.4004L364.872 75.7737L363.675 74.542L360.423 71.719L358.308 70.6614V70.6614Z" stroke="black" stroke-width="1.49237" stroke-miterlimit="1" stroke-linecap="round"/>
<path fill-rule="evenodd" clip-rule="evenodd" d="M435.304 69.8774L437.25 73.3536L439.51 76.6731L442.863 81.7895L444.122 83.2659L446.515 86.5188L448.717 89.1653L450.807 93.2718L451.612 97.3186L451.836 101.656L452.563 105.742L453.206 109.869L453.868 113.988L454.841 117.951L455.689 119.348L456.783 121.429L459.495 124.523L461.668 127.301L458.317 127.199L455.177 127.991L453.868 129.651L452.827 131.265L452.222 132.609L451.154 134.878L450.889 136.438L449.418 137.72L449.019 138.26L448.063 142.231L447.657 143.79C447.657 143.79 447.192 145.736 447.081 146.19L446.024 147.3L444.969 148.217L444.094 149.146L440.52 151.106L439.144 151.12L436.07 149.583L434.201 146.068L431.621 144.643L429.193 141.695L422.722 136.754L416.352 132.746L414.248 131.107L413.823 129.561L413.556 124.978L413.237 120.369L412.907 115.755L413.087 112.131L413.157 107.647L412.684 103.434L411.776 99.4387L411.695 97.3509L411.785 94.985L412.129 93.118L413.202 89.2055L414.112 85.2115L415.07 81.2408L415.745 78.7102L416.401 77.4571L418.994 74.3042L420.77 70.7429L423.541 67.6786L426.936 64.9272L429.835 62.8607L435.304 69.8774V69.8774Z" stroke="black" stroke-width="1.49237" stroke-miterlimit="1" stroke-linecap="round"/>
<path fill-rule="evenodd" clip-rule="evenodd" d="M461.664 127.301L461.993 127.72L464.602 130.865L466.521 134.355L467.212 138.459V141.113L464.8 141.703L462.763 141.747L461.406 141.362L458.314 140.489L456.05 139.591L453.864 138.227L452.306 137.013L450.885 136.437L451.15 134.877L452.218 132.608L452.823 131.264L453.864 129.651L455.173 127.99L458.314 127.199L461.664 127.301V127.301Z" stroke="black" stroke-width="1.49237" stroke-miterlimit="1" stroke-linecap="round"/>
<path fill-rule="evenodd" clip-rule="evenodd" d="M470.993 158.15L467.207 157.899L463.981 159.093L459.27 161.188L455.784 163.894L453.858 166.172L453.39 167.146L453.081 167.769L452.435 168.652L451.332 168.644L449.409 168.206L444.96 167.381L443.188 166.495L440.511 166.819L436.672 167.686L430.96 169.279L426.378 171.438L421.687 173.542L418.263 174.862L416.855 172.535L415.356 168.834L413.814 162.655L411.774 160.208L411.878 159.738L412.693 155.697L414.451 152.126L416.132 150.649L416.278 146.127L415.99 139.548L415.333 133.251L414.239 131.108L413.814 129.561L414.239 131.107L416.343 132.746L422.713 136.754L429.184 141.695L431.612 144.643L434.191 146.068L436.061 149.583L439.135 151.12L440.511 151.106L444.085 149.146L444.96 148.217L446.015 147.3L447.072 146.19C447.183 145.736 447.648 143.789 447.648 143.789L448.054 142.231L449.01 138.26L449.409 137.72L450.88 136.438L452.301 137.014L453.858 138.227L456.044 139.591L458.308 140.49L461.4 141.363L462.757 141.747L464.795 141.703L467.207 141.114V138.46L466.548 134.547L467.207 138.46L469.081 141.972L470.001 145.961L470.367 150.228L470.661 154.53L470.993 158.15V158.15Z" stroke="black" stroke-width="1.49237" stroke-miterlimit="1" stroke-linecap="round"/>
<path fill-rule="evenodd" clip-rule="evenodd" d="M462.264 189.381L460.484 192.94L458.308 196.302L456.593 192.71L455.491 190.444L455.972 186.235L456.417 183.899L456.091 179.624L458.308 181.859L462.758 185.179L462.264 189.381V189.381Z" stroke="black" stroke-width="1.49237" stroke-miterlimit="1" stroke-linecap="round"/>
<path fill-rule="evenodd" clip-rule="evenodd" d="M436.07 213.742L437.887 208.334L438.463 206.228L439.171 204.526L441.005 200.994L443.452 197.768L445.643 194.414L449.424 191.855L453.867 190.78L455.5 190.444L456.601 192.71L458.317 196.302L454.705 198.945L449.418 205.201L447.589 208.736L446.618 211.961L446.101 211.308L440.52 211.712L437.965 212.822L436.34 213.862L436.07 214.035V213.742V213.742Z" stroke="black" stroke-width="1.49237" stroke-miterlimit="1" stroke-linecap="round"/>
<path fill-rule="evenodd" clip-rule="evenodd" d="M443.446 215.564L441.613 219.098L439.614 222.547L437.799 226.089L436.066 229.672L434.23 233.204L432.281 236.678L430.325 240.15L427.664 243.269L427.644 243.291L422.718 245.245L418.269 245.298L420.909 241.701L421.212 240.043L422.718 236.347L424.283 232.679L425.883 229.03L427.168 225.223L428.989 221.684L431.228 218.355L434.058 215.32L437.962 212.822L440.516 211.712L446.098 211.309L446.615 211.961L446.422 212.603L443.446 215.564V215.564Z" stroke="black" stroke-width="1.49237" stroke-miterlimit="1" stroke-linecap="round"/>
<path fill-rule="evenodd" clip-rule="evenodd" d="M424.917 246.34L418.048 251.804L414.57 254.515L409.379 257.926L408.023 260.14L405.992 263.574L403.695 266.874L400.48 269.717L399.406 268.252L399.032 265.992L398.753 264.403L397.37 262.373L396.031 261.371L394.994 260.29L394.958 259.13L396.031 256.868L398.702 255.479L402.191 252.774L405.728 250.093L409.697 247.629L413.829 245.245L418.278 245.297L422.727 245.245L427.653 243.291L424.917 246.34V246.34Z" stroke="black" stroke-width="1.49237" stroke-miterlimit="1" stroke-linecap="round"/>
<path fill-rule="evenodd" clip-rule="evenodd" d="M413.822 245.244L409.691 247.628L405.722 250.093L402.185 252.774L398.696 255.479L396.025 256.868L395.972 256.979L393.696 255.307L391.012 252.2L388.297 249.108L387.126 247.887L385.434 246.091L382.957 242.88L381.047 239.385L381.631 238.048L382.907 234.237L384.939 230.803L387.126 227.447L388.952 223.911L390.862 220.416L392.649 216.861L394.951 213.562L396.966 210.12L398.911 206.643L400.843 203.16L402.954 199.766L404.693 196.186L406.241 192.511L408.266 189.074L410.636 185.809L412.898 182.491L415.366 179.276L418.271 174.861L421.695 173.541L426.386 171.437L430.968 169.279L436.68 167.686L440.519 166.818L443.196 166.495L444.968 167.38L449.417 168.205L451.34 168.644L452.443 168.652L453.052 172.237L454.414 176.005L456.092 179.616L456.099 179.623L456.425 183.899L455.98 186.235L455.499 190.443L453.867 190.779L449.423 191.855L445.643 194.414L443.451 197.768L441.004 200.993L439.17 204.526L438.462 206.228L437.886 208.333L436.069 213.741V214.034L434.061 215.319L431.231 218.354L428.991 221.683L427.17 225.222L425.886 229.029L424.285 232.678L422.721 236.346L421.214 240.042L420.911 241.7L418.271 245.297L413.822 245.244V245.244Z" stroke="black" stroke-width="1.49237" stroke-miterlimit="1" stroke-linecap="round"/>
<path fill-rule="evenodd" clip-rule="evenodd" d="M355.057 234.032L354.403 230.463L353.482 226.474L352.523 222.505L350.76 218.936L348.025 215.855L345.038 212.899L340.673 210.632L337.592 207.723L335.537 206.099L335.537 206.096L338.189 205.938L341.218 205.91L348.417 208.089L351.537 207.643L355.986 208.624L360.436 209.141L364.885 210.724L369.334 214.099L372.598 216.917L373.238 220.5L373.266 224.964L373.784 229.672V231.532L371.016 231.707L370.278 231.425L369.334 230.708L367.484 230.971L364.885 231.268L362.544 230.842L360.436 231.125L359.583 231.47L355.986 233.301L355.057 234.032V234.032Z" stroke="black" stroke-width="1.49237" stroke-miterlimit="1" stroke-linecap="round"/>
<path fill-rule="evenodd" clip-rule="evenodd" d="M373.527 232.001L373.776 231.533V229.672L375.867 233.076L377.126 235.796L378.225 237.432L381.046 239.385L379.259 241.313L378.225 242.862L377.553 244.909L377.562 244.935L377.527 244.896L375.499 242.159L374.186 238.366L372.819 234.604L372.727 233.597L373.527 232.001V232.001Z" stroke="black" stroke-miterlimit="1" stroke-linecap="round"/>
<path fill-rule="evenodd" clip-rule="evenodd" d="M369.254 230.718L369.33 230.748L367.464 231.538L367.275 232.923L368.189 236.921L369.33 240.795L370.767 244.526L371.33 246.245L372.397 248.161L373.779 250.445L374.485 251.566L375.799 252.929L377.777 254.369L377.785 254.367L379.876 255.97L378.229 258.593L375.554 259.93L375.523 259.976L375.508 259.953L373.131 256.692L370.904 253.357L367.903 250.408L364.647 247.586L361.715 244.603L359.439 241.291L357.306 237.909L355.146 234.539L355.053 234.032L355.981 233.301L359.578 231.47L360.431 231.125L362.539 230.842L364.88 231.268L367.479 230.971L369.254 230.718V230.718Z" stroke="black" stroke-miterlimit="1" stroke-linecap="round"/>
<path fill-rule="evenodd" clip-rule="evenodd" d="M369.259 230.719L369.334 230.708L370.278 231.425L371.016 231.708L373.783 231.532L373.535 232.001L372.734 233.597L372.826 234.604L374.194 238.366L375.507 242.159L377.535 244.896L377.57 244.934L378.233 246.853L377.167 249.161L377.212 250.205L377.789 254.366L377.789 254.367L377.781 254.37L375.804 252.929L374.49 251.566L373.783 250.445L372.401 248.161L371.334 246.245L370.771 244.527L369.334 240.796L368.193 236.921L367.28 232.924L367.469 231.538L369.334 230.748L369.259 230.719V230.719Z" stroke="black" stroke-miterlimit="1" stroke-linecap="round"/>
<path fill-rule="evenodd" clip-rule="evenodd" d="M351.53 207.643L355.979 208.624L360.429 209.142L364.878 210.724L369.328 214.099L372.591 216.917L373.232 220.5L373.26 224.964L373.777 229.672V231.532L371.009 231.707L370.271 231.425L369.328 230.708L367.477 230.971L364.878 231.268L362.537 230.842L360.429 231.125L359.576 231.47L355.979 233.301L355.051 234.032L354.396 230.464L353.476 226.474L352.516 222.505L350.754 218.937L348.019 215.855L347.081 214.927V211.874L349.824 208.796L351.53 207.65V207.643V207.643Z" stroke="black" stroke-width="1.49237" stroke-miterlimit="1" stroke-linecap="round"/>
<path fill-rule="evenodd" clip-rule="evenodd" d="M335.539 206.096L338.188 205.938L341.217 205.91L348.416 208.089L351.536 207.643V207.65L349.831 208.796L347.087 211.874V214.926L345.038 212.899L340.672 210.632L337.591 207.723L335.537 206.099V206.099L335.539 206.096V206.096Z" stroke="black" stroke-width="1.49237" stroke-miterlimit="1" stroke-linecap="round"/>
<path fill-rule="evenodd" clip-rule="evenodd" d="M348.406 188.998L350.865 192.835L351.527 207.643L348.407 208.089L341.208 205.91L338.179 205.938L335.529 206.096L335.527 206.099L335.375 204.377L333.729 200.751L333.726 200.747L333.744 200.742L336.706 199.857L338.568 199.094L341.027 197.861L342.671 196.346L344.474 194.033L346.124 191.313L347.948 189.821L348.406 188.998V188.998Z" stroke="black" stroke-width="0.497457" stroke-miterlimit="1" stroke-linecap="round"/>
<path fill-rule="evenodd" clip-rule="evenodd" d="M330.546 183.202L332.872 182.52L341.778 180.04L344.066 177.79L347.087 176.279L348.371 176.922L348.225 180.159L348.226 180.158L348.415 188.997L348.415 188.998L347.957 189.821L346.133 191.313L344.483 194.033L342.68 196.347L341.036 197.862L338.577 199.095L336.715 199.857L333.753 200.742L333.735 200.747L330.984 197.678L328.742 194.35L327.443 190.551L326.771 188.59L326.781 188.589L329.144 186.389L330.546 183.202V183.202Z" stroke="black" stroke-miterlimit="1" stroke-linecap="round"/>
<path fill-rule="evenodd" clip-rule="evenodd" d="M326.765 188.59L326.135 186.752L325.27 183.171L324.834 180.715V178.503L326.213 179.676L328.042 181.349L330.531 183.204L330.54 183.202L329.138 186.388L326.775 188.589L326.765 188.59V188.59Z" stroke="black" stroke-width="1.49237" stroke-miterlimit="1" stroke-linecap="round"/>
<path fill-rule="evenodd" clip-rule="evenodd" d="M353.766 180.128L354.376 179.923L355.986 179.258L357.36 178.571L358.321 178.659L358.709 179.367L359.53 182.501L359.703 183.32L360.423 185.498L359.978 187.174L359.713 188.531L358.172 189.918L355.986 189.627L354.607 188.938L354.747 185.832L354.486 184.428L354.12 181.661L353.766 180.128V180.128Z" stroke="black" stroke-width="1.49237" stroke-miterlimit="1" stroke-linecap="round"/>
<path fill-rule="evenodd" clip-rule="evenodd" d="M354.541 190.348L354.278 193.224L351.534 193.232L350.874 192.801L350.856 192.81L348.413 188.997L348.224 180.158L351.534 177.916L352.896 177.823L353.499 179.486L353.764 180.128L354.118 181.661L354.483 184.428L354.745 185.832L354.541 190.348V190.348Z" stroke="black" stroke-width="1.49237" stroke-miterlimit="1" stroke-linecap="round"/>
<path fill-rule="evenodd" clip-rule="evenodd" d="M360.421 185.535L364.003 184.744L364.871 184.319L367.23 183.999L369.32 183.465L373.769 183.001L378.219 182.421L382.668 181.367L387.117 180.095L391.567 178.601L396.016 177.197L398.847 175.47L403.234 173.214L407.191 170.744L409.365 168.878L410.99 163.744L411.878 159.739L411.774 160.208L413.814 162.655L415.356 168.835L416.854 172.535L418.263 174.862L415.358 179.276L412.89 182.492L410.627 185.81L408.258 189.075L406.233 192.511L404.685 196.187L402.945 199.767L400.835 203.161L398.903 206.644L396.958 210.121L394.943 213.563L392.641 216.861L390.853 220.417L388.944 223.912L387.117 227.448L384.931 230.803L382.899 234.237L381.622 238.048L381.039 239.386L378.219 237.432L377.119 235.796L375.861 233.076L373.769 229.672L373.252 224.964L373.224 220.501L372.583 216.917L369.32 214.099L364.871 210.725L360.421 209.142L355.972 208.625L351.522 207.644V207.651V207.644L350.861 192.836L350.844 192.81L350.862 192.802L351.522 193.233L354.267 193.225L354.529 190.349L354.593 188.938L355.972 189.628L358.158 189.919L359.699 188.532L359.964 187.175L360.409 185.499L360.421 185.535V185.535Z" stroke="black" stroke-width="1.49237" stroke-miterlimit="1" stroke-linecap="round"/>
<path fill-rule="evenodd" clip-rule="evenodd" d="M357.836 71.7187L358.314 70.6611L361.253 67.6808L364.12 64.6652L366.667 61.4895L369.327 58.3704L372.927 51.2717L374.938 47.8273L377.017 44.4177L383.549 34.3358L387.125 30.7461L390.208 28.7658L394.339 26.3819L396.024 25.8178L397.853 25.2134L400.473 25L404.922 27.2246L408.01 30.1303L410.242 33.4637L410.787 34.6064L411.409 37.33L412.292 41.3375L414.426 44.7197L417.943 47.4104L420.306 48.2646L427.17 59.4434L429.833 62.8605L426.934 64.9269L423.539 67.6783L420.768 70.7427L418.992 74.304L416.399 77.4568L415.742 78.7099L415.067 81.2405L414.11 85.2112L413.2 89.2053L412.126 93.1178L411.783 94.9847L411.693 97.3507L411.774 99.4385L412.682 103.434L413.155 107.647L413.085 112.131L412.905 115.755L413.235 120.368L413.554 124.977L413.821 129.56L414.246 131.108L415.34 133.251L415.997 139.547L416.285 146.126L416.139 150.649L414.458 152.126L412.701 155.696L411.885 159.738L410.998 163.744L409.372 168.878L407.198 170.743L403.241 173.214L398.854 175.47L396.024 177.196L391.575 178.6L387.125 180.095L382.676 181.366L378.226 182.421L373.777 183.001L369.327 183.465L367.237 183.999L364.878 184.318L364.01 184.744L360.429 185.535L359.696 183.32L359.523 182.501L358.702 179.367L358.314 178.66L357.353 178.571L355.979 179.258L354.37 179.924L353.76 180.129L353.495 179.486L352.892 177.823L351.53 177.916L348.219 180.159L348.364 176.921L347.08 176.279L344.06 177.789L341.772 180.039L332.866 182.52L330.531 183.205L328.042 181.349L326.213 179.677L324.834 178.504L325.657 174.466L326.798 170.587L328.274 166.876L328.752 162.666L329.489 158.585L330.558 154.67L331.78 150.832L333.114 147.049L334.56 143.323L336.622 139.904L338.718 136.476L338.836 136.562L342.631 134.01L347.08 131.785L350.305 132.449L350.511 130.07L350.41 129.001L350.539 124.616L351.53 125.111L357.867 126.663L360.429 126.512L364.878 125.911L369.005 124.95L372.987 122.492L376.392 119.745L379.008 116.603L381.041 113.171L383.828 110.115L387.125 107.693L390.824 104.714L394.277 101.991L396.024 100.834L400.887 96.397L402.795 92.9019L403.824 88.967L405.192 85.2013L406.434 81.3728L406.436 81.3718L406.4 79.8785L405.282 75.9878L404.922 74.5194L403.631 72.3639L401.166 71.0292L400.473 71.6072L396.024 72.728L391.575 73.9433L387.125 74.8044L382.676 75.3242L379.163 76.6365L378.226 77.5489L376.054 79.5312L373.777 81.9444L372.363 83.5487L371.97 88.195L371.483 86.1444L370.622 84.4192L369.327 80.6172L366.863 77.4001L364.878 75.7734L363.681 74.5417L360.429 71.7187L358.314 70.6611L357.836 71.7187V71.7187Z" stroke="black" stroke-width="1.49237" stroke-miterlimit="1" stroke-linecap="round"/>
<path fill-rule="evenodd" clip-rule="evenodd" d="M350.405 129.001L350.506 130.07L350.299 132.449L347.075 131.785L342.626 134.01L338.83 136.562L338.713 136.476L339.161 135.743L339.589 128.043L339.453 122.248L340.1 119.4L340.699 121.625L342.626 122.319L345.518 122.108L347.075 121.596L350.534 120.167V124.616L350.405 129.001V129.001Z" stroke="black" stroke-width="1.49237" stroke-miterlimit="1" stroke-linecap="round"/>
<path fill-rule="evenodd" clip-rule="evenodd" d="M324.834 178.504L325.657 174.466L326.798 170.587L328.274 166.876L328.752 162.666L329.489 158.585L330.558 154.67L331.78 150.832L333.114 147.049L334.56 143.323L336.622 139.904L339.166 135.742L339.595 128.043L339.458 122.248L340.106 119.399L341.231 115.512L341.604 111.25L342.631 107.314L344.385 103.741L345.431 99.8151L346.225 95.7628L347.08 91.7408L351.53 85.0669L353.423 81.5638L355.402 78.104L356.672 74.29L358.314 70.6611L361.253 67.6808L364.12 64.6652L366.667 61.4895L369.327 58.3704L372.927 51.2717L374.938 47.8273L377.017 44.4177L383.549 34.3358L387.125 30.7461L390.208 28.7658L394.339 26.3819L396.024 25.8178L397.853 25.2134L400.473 25L404.922 27.2246L408.01 30.1303L410.242 33.4637L410.787 34.6064L411.409 37.33L412.292 41.3375L414.426 44.7197L417.943 47.4104L420.306 48.2646L427.17 59.4434L429.833 62.8605L426.934 64.9269L423.539 67.6783L420.768 70.7427L418.992 74.304L416.399 77.4568L415.742 78.7099L415.067 81.2405L414.11 85.2112L413.2 89.2053L412.126 93.1178L411.783 94.9847L411.693 97.3507L411.774 99.4385L412.682 103.434L413.155 107.647L413.085 112.131L412.905 115.755L413.235 120.368L413.554 124.977L413.821 129.56L414.246 131.108L415.34 133.251L415.997 139.547L416.285 146.126L416.139 150.649L414.458 152.126L412.701 155.696L411.885 159.738L410.998 163.744L409.372 168.878L407.198 170.743L403.241 173.214L398.854 175.47L396.024 177.196L391.575 178.6L387.125 180.095L382.676 181.366L378.226 182.421L373.777 183.001L369.327 183.465L367.237 183.999L364.878 184.318L364.01 184.744L360.429 185.535L359.696 183.32L359.523 182.501L358.702 179.367L358.314 178.66L357.353 178.571L355.979 179.258L354.37 179.924L353.76 180.129L353.495 179.486L352.892 177.823L351.53 177.916L348.219 180.159L348.364 176.921L347.08 176.279L344.06 177.789L341.772 180.039L332.866 182.52L330.531 183.205L328.042 181.349L326.213 179.677L324.834 178.504V178.504Z" stroke="black" stroke-width="1.49237" stroke-miterlimit="1" stroke-linecap="round"/>
<path fill-rule="evenodd" clip-rule="evenodd" d="M358.318 70.6617L360.433 71.7193L363.685 74.5424L364.882 75.7741L366.867 77.4008L369.332 80.6178L370.626 84.4199L371.488 86.145L371.974 88.1956L372.367 83.5493L373.781 81.945L376.058 79.5319L378.231 77.5495L379.167 76.6372L382.68 75.3249L387.129 74.805L391.579 73.9439L396.028 72.7286L400.477 71.6079L401.17 71.0298L403.636 72.3645L404.927 74.52L405.287 75.9885L406.404 79.8791L406.44 81.3724L406.438 81.3734L405.196 85.2019L403.829 88.9676L402.799 92.9025L400.891 96.3976L396.028 100.834L394.281 101.992L390.829 104.715L387.129 107.694L383.832 110.116L381.046 113.171L379.012 116.604L376.396 119.745L372.991 122.492L369.01 124.951L364.882 125.911L360.433 126.512L357.871 126.664L351.534 125.112L350.544 124.616V120.167L347.085 121.596L345.528 122.109L342.636 122.32L340.709 121.626L340.11 119.4L341.235 115.513L341.608 111.25L342.636 107.314L344.389 103.742L345.436 99.8157L346.23 95.7634L347.085 91.7414L351.534 85.0676L353.427 81.5645L355.406 78.1047L356.677 74.2906L358.318 70.6617V70.6617Z" stroke="black" stroke-width="1.49237" stroke-miterlimit="1" stroke-linecap="round"/>
<path fill-rule="evenodd" clip-rule="evenodd" d="M240.989 33.9728L238.834 38.7515L238.095 41.276L237.81 42.6582L236.57 46.4573L235.786 50.4836L235.161 54.5899L234.695 56.2325L234.196 58.5258L233.827 61.0853L233.366 62.5293L232.682 66.0764L232.152 68.0486L231.076 70.2223L230.556 71.5581L229.605 73.9052L227.733 77.3881L226.247 81.0636L225.826 82.7601L225.003 84.8602L224.403 87.8905L224.324 88.9393L224.158 92.4321L224.195 101.25L225.177 109.596L223.832 119.106L223.314 123.784L222.847 132.388L222.064 136.415L220.157 139.88L219.473 143.957L218.896 146.022L217.76 148.654L217.174 151.645L216.422 153.742L215.722 155.338L214.477 158.505L213.296 162.962L213.109 164.236L212.465 166.965L212.098 171.2L211.825 175.482L211.706 178.194L211.894 179.936L212.168 182.381L212.152 184.483L212.299 186.735L212.24 188.946L211.804 191.401L211.722 193.105L212.015 195.714L212.292 197.809L212.506 199.888L212.729 202.447L212.667 204.226L212.365 206.683L212.36 208.798L212.14 210.989L212.35 213.221L212.154 215.415L212.376 217.627L213.657 220.585L214.477 221.538L216.307 224.499L218.238 227.952L218.896 230.211L219.409 231.786L220.71 235.553L221.574 237.8L221.875 239.39L223.314 243.089L226.694 245.818L227.733 246.595L229.726 248.72L231.69 252.157L233.869 255.486L234.736 257.637L235.449 259.115L237.034 262.741L238.04 263.708L239.361 265.996L240.989 268.147L241.44 269.376L243.771 272.629L245.408 273.756L247.865 275L249.827 274.865L253.278 271.326L256.72 268.629L260.075 265.888L261.125 261.994L262.491 258.258L263.083 254.135L265.766 251.058L269.914 248.713L271.316 245.6L272.468 241.153L273.239 237.12L274.509 233.337L275.878 229.603L277.366 225.928L278.086 221.869L278.963 220.228L280.757 218.786L285.176 216.577L291.068 210.685L293.262 207.364L294.014 203.321L296.751 200.271L298.432 196.692L299.13 191.925L299.434 187.354L299.005 183.15L298.432 179.018L297.717 174.957L297.35 170.721L296.593 166.681L296.067 162.526L295.723 159.988L295.453 158.414L295.225 154.109L294.212 150.197L293.745 146.012L292.764 142.084L291.962 138.066L290.961 135.514L289.594 133.319L289.097 130.661L287.718 126.932L286.892 124.642L284.391 119.758L283.123 115.973L282.865 113.792L282.719 111.757L282.018 107.689L280.757 105.014L280.296 103.67L279.248 100.236L277.737 96.573L276.339 92.8535L274.129 89.5396L272.977 85.6966L271.709 81.9119L270.433 78.1316L269.185 74.3365L267.797 70.6121L266.722 66.731L265.541 62.9028L264.382 59.0638L263.083 55.2949L261.471 51.6816L260.218 47.8894L258.354 44.4026L256.433 40.945L254.245 37.6202L252.36 34.1437L250.291 30.7597L249.036 29.1383L247.349 27.8118L245.408 26.6237L243.118 25.5087L242.807 27.4823L242.133 31.5639L240.989 33.9728Z" fill="white" stroke="black" stroke-width="2.47012" stroke-miterlimit="1" stroke-linecap="round"/>
<mask id="mask0" mask-type="alpha" maskUnits="userSpaceOnUse" x="210" y="24" width="91" height="253">
<path fill-rule="evenodd" clip-rule="evenodd" d="M240.989 33.9728L238.834 38.7515L238.096 41.276L237.81 42.6582L236.57 46.4573L235.786 50.4836L235.161 54.5899L234.695 56.2325L234.196 58.5258L233.827 61.0853L233.366 62.5293L232.682 66.0764L232.152 68.0486L231.076 70.2223L230.556 71.5581L229.605 73.9052L227.733 77.3881L226.247 81.0636L225.826 82.7601L225.003 84.8602L224.403 87.8905L224.324 88.9393L224.158 92.4321L224.195 101.25L225.177 109.596L223.832 119.106L223.314 123.784L222.847 132.388L222.064 136.415L220.157 139.88L219.473 143.957L218.896 146.022L217.761 148.654L217.174 151.645L216.422 153.742L215.722 155.338L214.477 158.505L213.296 162.962L213.109 164.236L212.465 166.965L212.098 171.2L211.825 175.482L211.706 178.194L211.894 179.936L212.168 182.381L212.152 184.483L212.299 186.735L212.24 188.946L211.804 191.401L211.722 193.105L212.015 195.714L212.292 197.809L212.506 199.888L212.729 202.447L212.667 204.226L212.365 206.683L212.36 208.798L212.14 210.989L212.35 213.221L212.154 215.415L212.376 217.627L213.657 220.585L214.477 221.538L216.307 224.499L218.238 227.952L218.896 230.211L219.409 231.786L220.71 235.553L221.574 237.8L221.875 239.39L223.314 243.089L226.694 245.818L227.733 246.595L229.726 248.72L231.69 252.157L233.869 255.486L234.736 257.637L235.449 259.115L237.034 262.741L238.04 263.708L239.361 265.996L240.989 268.147L241.44 269.376L243.771 272.629L245.408 273.756L247.865 275L249.827 274.865L253.278 271.326L256.72 268.629L260.075 265.888L261.125 261.994L262.491 258.258L263.083 254.135L265.766 251.058L269.914 248.713L271.316 245.6L272.468 241.153L273.239 237.12L274.509 233.337L275.878 229.603L277.366 225.928L278.086 221.869L278.963 220.228L280.757 218.786L285.176 216.577L291.068 210.685L293.262 207.364L294.014 203.321L296.751 200.271L298.432 196.692L299.13 191.925L299.434 187.354L299.005 183.15L298.432 179.018L297.717 174.957L297.35 170.721L296.593 166.681L296.067 162.526L295.723 159.988L295.453 158.414L295.225 154.109L294.212 150.197L293.745 146.012L292.764 142.084L291.962 138.066L290.961 135.514L289.595 133.319L289.097 130.661L287.718 126.932L286.892 124.642L284.391 119.758L283.123 115.973L282.865 113.792L282.719 111.757L282.018 107.689L280.757 105.014L280.297 103.67L279.248 100.236L277.737 96.573L276.339 92.8535L274.129 89.5396L272.977 85.6966L271.709 81.9119L270.433 78.1316L269.185 74.3365L267.797 70.6121L266.722 66.731L265.541 62.9028L264.382 59.0638L263.083 55.2949L261.471 51.6816L260.218 47.8894L258.354 44.4026L256.433 40.945L254.245 37.6202L252.36 34.1437L250.291 30.7597L249.036 29.1383L247.349 27.8118L245.408 26.6237L243.118 25.5087L242.807 27.4823L242.133 31.5639L240.989 33.9728V33.9728Z" fill="white" stroke="black" stroke-width="2.47012" stroke-miterlimit="1" stroke-linecap="round"/>
</mask>
<g mask="url(#mask0)">
<path d="M243.147 25L243.928 31.9682L243.476 36.1605L242.534 40.1077L242.811 42.8431L242.802 44.6606L242.33 47.5018L242.04 48.6988L241.868 52.1515L241.64 52.9173L240.487 56.7593L239.747 60.8083L239.256 62.2948L240.988 65.8473L242.533 69.4937L244.058 73.15L243.864 76.123L245.407 81.3127L246.417 85.2264L248.418 88.6445L249.253 92.0731L248.819 96.2747L247.923 100.246L247.27 104.338L247.134 106.961L247.685 111.105L247.789 113.434L247.782 115.475L248.006 117.962L248.008 119.781L248.732 122.744L249.039 127.316L248.883 128.181L249.826 130.352L250.392 131.844L252.177 135.37L253.201 139.278L254.244 143.174L255.265 147.083L257.597 150.335L258.663 155.858V163.058L258.025 167.797L257.177 171.153L257.126 175.546L257.129 179.966L256.205 183.923L255.569 188.024L256.294 192.804L256.853 197.503L257.51 202.25L258.452 202.932L260.743 206.205L262.619 209.686L264.162 213.333L264.044 214.354L264.339 217.663L264.545 219.024L265.246 221.629L264.528 223.433L263.082 226.411L261.086 230.55L258.895 233.873L257.006 237.348L256.933 239.041L256.897 241.712L256.53 256.423L255.659 258.767L254.244 262.479L253.401 266.476L251.398 269.893L249.826 274.371" stroke="black" stroke-width="4.94024" stroke-miterlimit="1" stroke-linecap="round"/>
</g>
</svg>
