<svg width="585" height="300" viewBox="0 0 585 300" fill="none" xmlns="http://www.w3.org/2000/svg">
<rect width="585" height="300" fill="white"/>
<path fill-rule="evenodd" clip-rule="evenodd" d="M326.509 70.6611L329.447 67.6808L332.315 64.6652L334.862 61.4895L337.522 58.3704L341.122 51.2717L343.132 47.8273L345.212 44.4177L351.744 34.3358L355.32 30.7461L358.402 28.7657L362.534 26.3819L364.219 25.8178L366.048 25.2134L368.668 25L373.117 27.2246L376.205 30.1303L378.436 33.4637L378.982 34.6064L379.603 37.33L380.487 41.3375L382.621 44.7197L386.138 47.4104L388.501 48.2646L395.364 59.4434L403.497 69.8771L405.442 73.3533L407.703 76.6728L411.056 81.7892L412.314 83.2656L414.708 86.5185L416.909 89.165L419 93.2715L419.804 97.3183L420.028 101.656L420.756 105.741L421.399 109.869L422.06 113.988L423.033 117.951L423.882 119.348L424.976 121.429L427.688 124.522L430.189 127.721L432.799 130.865L434.718 134.355L435.409 138.46L437.283 141.972L438.203 145.961L438.569 150.228L438.863 154.53L439.195 158.15L437.969 166.436L436.307 174.503L430.959 185.178L430.466 189.381L428.686 192.94L426.51 196.301L422.898 198.945L417.611 205.2L415.782 208.735L414.618 212.602L411.642 215.564L409.81 219.097L407.811 222.547L405.995 226.089L404.263 229.672L402.427 233.203L400.477 236.678L398.522 240.15L395.86 243.268L393.104 246.34L386.236 251.804L382.758 254.515L377.567 257.926L376.21 260.139L374.18 263.573L371.882 266.874L368.668 269.717L366.98 273.322L365.966 274.482L364.219 275L361.395 274.979L355.32 271.941L350.87 269.317L348.499 266.453L345.874 263.316L343.7 259.953L341.323 256.693L339.096 253.357L336.095 250.408L332.839 247.586L329.907 244.603L327.632 241.291L325.499 237.909L323.338 234.539L322.591 230.464L321.67 226.475L320.711 222.505L318.948 218.937L316.213 215.855L313.226 212.899L308.861 210.632L305.779 207.723L303.725 206.099L303.572 204.378L301.927 200.751L299.173 197.678L296.931 194.35L295.631 190.551L294.33 186.752L293.465 183.171L293.029 180.715V178.504L293.852 174.466L294.993 170.587L296.469 166.876L296.947 162.666L297.684 158.585L298.753 154.67L299.975 150.832L301.309 147.049L302.755 143.323L304.817 139.904L307.361 135.742L307.79 128.043L307.653 122.248L308.3 119.399L309.426 115.512L309.799 111.25L310.826 107.314L312.58 103.741L313.626 99.815L314.42 95.7628L315.275 91.7408L319.725 85.0669L326.509 70.6611Z" fill="white" stroke="black" stroke-width="2.98474" stroke-miterlimit="1" stroke-linecap="round"/>
<path d="M318.74 124.616V121.157V120.167L315.281 121.595L313.724 122.108L310.832 122.319L308.905 121.625L308.305 119.399" stroke="black" stroke-width="1.49237" stroke-miterlimit="1" stroke-linecap="round"/>
<path fill-rule="evenodd" clip-rule="evenodd" d="M358.396 28.7735L358.401 33.2128L359.15 38.0367L359.774 40.9259L360.515 44.623L361.498 48.1097L362.118 50.5243L362.951 53.2857L363.339 54.3627L364.223 56.2844L365.09 57.9374L366.872 61.4957L367.268 64.3427L367.315 65.7231L368.672 69.4943L369.308 70.9987L371.831 72.3642L373.121 74.5197L373.482 75.9881L374.599 79.8788L374.635 81.3721L374.633 81.3731L373.391 85.2016L372.024 88.9673L370.994 92.9022L369.086 96.3973L364.223 100.834L362.476 101.991L359.024 104.714L355.324 107.694L352.027 110.115L349.241 113.171L347.207 116.604L344.591 119.745L341.186 122.492L337.205 124.95L333.077 125.911L328.628 126.512L326.066 126.664L319.729 125.112L318.738 124.616V120.167L315.28 121.596L313.723 122.108L310.83 122.319L308.904 121.625L308.305 119.4L309.43 115.513L309.803 111.25L310.83 107.314L312.584 103.741L313.631 99.8153L314.425 95.7631L315.28 91.7411L319.729 85.0672L321.622 81.5641L323.601 78.1043L324.872 74.2903L326.513 70.6614L329.452 67.6811L332.319 64.6655L334.866 61.4898L337.526 58.3707L341.127 51.272L343.137 47.8276L345.217 44.418L351.748 34.3361L355.324 30.7464L358.396 28.7735V28.7735Z" stroke="black" stroke-width="1.49237" stroke-miterlimit="1" stroke-linecap="round"/>
<path fill-rule="evenodd" clip-rule="evenodd" d="M358.389 28.7732L358.4 28.7657L362.531 26.3819L364.216 25.8178L366.046 25.2134L368.665 25L373.115 27.2246L376.202 30.1303L378.434 33.4637L378.98 34.6064L379.601 37.33L380.484 41.3375L382.618 44.7197L386.135 47.4104L388.498 48.2646L395.362 59.4434L398.025 62.8605L395.126 64.9269L391.731 67.6783L388.961 70.7427L387.184 74.304L384.591 77.4568L382.014 77.6658L378.86 79.0402L374.628 81.3718L374.592 79.8785L373.475 75.9878L373.115 74.5194L371.824 72.3639L369.302 70.9984L368.665 69.494L367.308 65.7228L367.261 64.3424L366.865 61.4954L365.083 57.9371L364.216 56.2841L363.333 54.3624L362.945 53.2854L362.111 50.524L361.491 48.1094L360.508 44.6227L359.767 40.9256L359.143 38.0364L358.394 33.2125L358.389 28.7732V28.7732Z" stroke="black" stroke-width="1.49237" stroke-miterlimit="1" stroke-linecap="round"/>
<path fill-rule="evenodd" clip-rule="evenodd" d="M439.194 157.653L437.968 165.939L436.306 174.006L430.959 184.681L426.51 181.361L424.285 179.119L422.608 175.508L421.245 171.74L420.637 168.155L421.283 167.272L421.591 166.649L422.06 165.674L423.985 163.397L427.472 160.69L432.182 158.596L435.408 157.401L439.194 157.653V157.653Z" stroke="black" stroke-width="1.49237" stroke-miterlimit="1" stroke-linecap="round"/>
<path d="M354.022 134.096L366.027 134.215L370.229 133.269L373.117 131.846L377.566 130.703L379.976 130.581L382.016 129.561L382.441 131.107" stroke="black" stroke-miterlimit="1" stroke-linecap="round"/>
<path d="M350.865 96.19L346.416 95.122L345.143 94.6021L341.966 92.5198L341.46 91.994L340.159 88.1949L340.552 83.5486L341.966 81.9443L344.243 79.5312L346.416 77.5488L347.352 76.6365L350.865 75.3242L355.314 74.8043L359.764 73.9432L364.213 72.728" stroke="black" stroke-miterlimit="1" stroke-linecap="round"/>
<path d="M326.534 70.6784L328.616 71.719L331.868 74.5421L333.065 75.7738L335.05 77.4005L337.514 80.6175L338.809 84.4196L339.67 86.1448L340.157 88.1953" stroke="black" stroke-width="1.49237" stroke-miterlimit="1" stroke-linecap="round"/>
<path fill-rule="evenodd" clip-rule="evenodd" d="M326.503 70.6614L329.441 67.6811L332.309 64.6655L334.856 61.4898L337.516 58.3707L341.116 51.272L343.126 47.8276L345.206 44.418L351.738 34.3361L355.314 30.7464L358.385 28.7735L358.39 33.2128L359.14 38.0367L359.763 40.9259L360.505 44.623L361.488 48.1097L362.107 50.5243L362.941 53.2857L363.329 54.3627L364.213 56.2844L365.079 57.9374L366.862 61.4957L367.258 64.3427L367.305 65.7231L368.662 69.4943L369.298 70.9987L369.355 71.0295L368.662 71.6075L364.213 72.7283L359.763 73.9436L355.314 74.8047L350.864 75.3245L347.352 76.6368L346.415 77.5492L344.243 79.5315L341.965 81.9447L340.552 83.549L340.159 88.1953L339.672 86.1447L338.811 84.4195L337.516 80.6175L335.052 77.4004L333.067 75.7737L331.869 74.542L328.618 71.719L326.503 70.6614V70.6614Z" stroke="black" stroke-width="1.49237" stroke-miterlimit="1" stroke-linecap="round"/>
<path fill-rule="evenodd" clip-rule="evenodd" d="M403.499 69.8774L405.445 73.3536L407.705 76.6731L411.058 81.7895L412.316 83.2659L414.71 86.5188L416.911 89.1653L419.002 93.2718L419.807 97.3186L420.03 101.656L420.758 105.742L421.401 109.869L422.063 113.988L423.036 117.951L423.884 119.348L424.978 121.429L427.69 124.523L429.863 127.301L426.512 127.199L423.372 127.991L422.063 129.651L421.021 131.265L420.416 132.609L419.348 134.878L419.084 136.438L417.613 137.72L417.214 138.26L416.258 142.231L415.852 143.79C415.852 143.79 415.387 145.736 415.276 146.19L414.219 147.3L413.164 148.217L412.289 149.146L408.715 151.106L407.339 151.12L404.265 149.583L402.396 146.068L399.816 144.643L397.388 141.695L390.917 136.754L384.547 132.746L382.443 131.107L382.018 129.561L381.751 124.978L381.432 120.369L381.102 115.755L381.282 112.131L381.352 107.647L380.879 103.434L379.971 99.4387L379.89 97.3509L379.98 94.985L380.323 93.118L381.397 89.2055L382.307 85.2115L383.264 81.2408L383.939 78.7102L384.596 77.4571L387.189 74.3042L388.965 70.7429L391.736 67.6786L395.131 64.9272L398.03 62.8607L403.499 69.8774V69.8774Z" stroke="black" stroke-width="1.49237" stroke-miterlimit="1" stroke-linecap="round"/>
<path fill-rule="evenodd" clip-rule="evenodd" d="M429.859 127.301L430.188 127.72L432.797 130.865L434.716 134.355L435.407 138.459V141.113L432.995 141.703L430.958 141.747L429.601 141.362L426.508 140.489L424.244 139.591L422.059 138.227L420.501 137.013L419.08 136.437L419.344 134.877L420.413 132.608L421.017 131.264L422.059 129.651L423.368 127.99L426.508 127.199L429.859 127.301V127.301Z" stroke="black" stroke-width="1.49237" stroke-miterlimit="1" stroke-linecap="round"/>
<path fill-rule="evenodd" clip-rule="evenodd" d="M439.188 158.15L435.402 157.899L432.176 159.093L427.465 161.188L423.979 163.894L422.053 166.172L421.585 167.146L421.276 167.769L420.63 168.652L419.527 168.644L417.604 168.206L413.155 167.381L411.383 166.495L408.706 166.819L404.867 167.686L399.154 169.279L394.573 171.438L389.882 173.542L386.458 174.862L385.049 172.535L383.551 168.834L382.009 162.655L379.969 160.208L380.073 159.738L380.888 155.697L382.646 152.126L384.327 150.649L384.473 146.127L384.185 139.548L383.528 133.251L382.434 131.108L382.009 129.561L382.434 131.107L384.538 132.746L390.908 136.754L397.379 141.695L399.807 144.643L402.386 146.068L404.256 149.583L407.33 151.12L408.706 151.106L412.28 149.146L413.155 148.217L414.209 147.3L415.266 146.19C415.378 145.736 415.843 143.789 415.843 143.789L416.249 142.231L417.205 138.26L417.604 137.72L419.075 136.438L420.496 137.014L422.053 138.227L424.239 139.591L426.503 140.49L429.595 141.363L430.952 141.747L432.99 141.703L435.402 141.114V138.46L434.742 134.547L435.402 138.46L437.276 141.972L438.196 145.961L438.561 150.228L438.855 154.53L439.188 158.15V158.15Z" stroke="black" stroke-width="1.49237" stroke-miterlimit="1" stroke-linecap="round"/>
<path fill-rule="evenodd" clip-rule="evenodd" d="M430.459 189.381L428.679 192.94L426.503 196.302L424.787 192.71L423.686 190.444L424.167 186.235L424.612 183.899L424.285 179.624L426.503 181.859L430.952 185.179L430.459 189.381V189.381Z" stroke="black" stroke-width="1.49237" stroke-miterlimit="1" stroke-linecap="round"/>
<path fill-rule="evenodd" clip-rule="evenodd" d="M404.265 213.742L406.081 208.334L406.658 206.228L407.366 204.526L409.2 200.994L411.647 197.768L413.838 194.414L417.619 191.855L422.062 190.78L423.694 190.444L424.796 192.71L426.512 196.302L422.9 198.945L417.613 205.201L415.784 208.736L414.813 211.961L414.296 211.308L408.715 211.712L406.16 212.822L404.534 213.862L404.265 214.035V213.742V213.742Z" stroke="black" stroke-width="1.49237" stroke-miterlimit="1" stroke-linecap="round"/>
<path fill-rule="evenodd" clip-rule="evenodd" d="M411.641 215.564L409.808 219.098L407.809 222.547L405.993 226.089L404.261 229.672L402.425 233.204L400.476 236.678L398.52 240.15L395.859 243.269L395.838 243.291L390.913 245.245L386.464 245.298L389.104 241.701L389.407 240.043L390.913 236.347L392.478 232.679L394.078 229.03L395.363 225.223L397.184 221.684L399.423 218.355L402.253 215.32L406.157 212.822L408.711 211.712L414.293 211.309L414.81 211.961L414.616 212.603L411.641 215.564V215.564Z" stroke="black" stroke-width="1.49237" stroke-miterlimit="1" stroke-linecap="round"/>
<path fill-rule="evenodd" clip-rule="evenodd" d="M393.111 246.34L386.243 251.804L382.765 254.515L377.574 257.926L376.218 260.14L374.187 263.574L371.89 266.874L368.675 269.717L367.601 268.252L367.227 265.992L366.948 264.403L365.565 262.373L364.226 261.371L363.189 260.29L363.153 259.13L364.226 256.868L366.897 255.479L370.386 252.774L373.923 250.093L377.892 247.629L382.024 245.245L386.473 245.297L390.922 245.245L395.847 243.291L393.111 246.34V246.34Z" stroke="black" stroke-width="1.49237" stroke-miterlimit="1" stroke-linecap="round"/>
<path fill-rule="evenodd" clip-rule="evenodd" d="M382.017 245.244L377.886 247.628L373.916 250.093L370.38 252.774L366.89 255.479L364.22 256.868L364.167 256.979L361.891 255.307L359.207 252.2L356.492 249.108L355.321 247.887L353.629 246.091L351.152 242.88L349.242 239.385L349.826 238.048L351.102 234.237L353.134 230.803L355.321 227.447L357.147 223.911L359.056 220.416L360.844 216.861L363.146 213.562L365.161 210.12L367.106 206.643L369.038 203.16L371.149 199.766L372.888 196.186L374.436 192.511L376.461 189.074L378.83 185.809L381.093 182.491L383.561 179.276L386.466 174.861L389.89 173.541L394.581 171.437L399.162 169.279L404.875 167.686L408.714 166.818L411.391 166.495L413.163 167.38L417.612 168.205L419.535 168.644L420.638 168.652L421.247 172.237L422.609 176.005L424.287 179.616L424.293 179.623L424.62 183.899L424.175 186.235L423.694 190.443L422.061 190.779L417.618 191.855L413.837 194.414L411.646 197.768L409.199 200.993L407.365 204.526L406.657 206.228L406.081 208.333L404.264 213.741V214.034L402.256 215.319L399.426 218.354L397.186 221.683L395.365 225.222L394.08 229.029L392.48 232.678L390.916 236.346L389.409 240.042L389.106 241.7L386.466 245.297L382.017 245.244V245.244Z" stroke="black" stroke-width="1.49237" stroke-miterlimit="1" stroke-linecap="round"/>
<path fill-rule="evenodd" clip-rule="evenodd" d="M323.252 234.032L322.598 230.463L321.677 226.474L320.718 222.505L318.955 218.936L316.22 215.855L313.233 212.899L308.868 210.632L305.787 207.723L303.732 206.099L303.732 206.096L306.383 205.938L309.412 205.91L316.612 208.089L319.732 207.643L324.181 208.624L328.631 209.141L333.08 210.724L337.529 214.099L340.793 216.917L341.433 220.5L341.461 224.964L341.978 229.672V231.532L339.211 231.707L338.473 231.425L337.529 230.708L335.679 230.971L333.08 231.268L330.739 230.842L328.631 231.125L327.778 231.47L324.181 233.301L323.252 234.032V234.032Z" stroke="black" stroke-width="1.49237" stroke-miterlimit="1" stroke-linecap="round"/>
<path fill-rule="evenodd" clip-rule="evenodd" d="M341.722 232.001L341.971 231.533V229.672L344.062 233.076L345.32 235.796L346.42 237.432L349.24 239.385L347.454 241.313L346.42 242.862L345.748 244.909L345.757 244.935L345.722 244.896L343.694 242.159L342.381 238.366L341.013 234.604L340.921 233.597L341.722 232.001V232.001Z" stroke="black" stroke-miterlimit="1" stroke-linecap="round"/>
<path fill-rule="evenodd" clip-rule="evenodd" d="M337.449 230.718L337.525 230.748L335.659 231.538L335.47 232.923L336.383 236.921L337.525 240.795L338.962 244.526L339.525 246.245L340.591 248.161L341.974 250.445L342.68 251.566L343.994 252.929L345.971 254.369L345.98 254.367L348.071 255.97L346.424 258.593L343.749 259.93L343.718 259.976L343.702 259.953L341.326 256.692L339.099 253.357L336.097 250.408L332.842 247.586L329.91 244.603L327.634 241.291L325.501 237.909L323.341 234.539L323.248 234.032L324.176 233.301L327.773 231.47L328.626 231.125L330.734 230.842L333.075 231.268L335.674 230.971L337.449 230.718V230.718Z" stroke="black" stroke-miterlimit="1" stroke-linecap="round"/>
<path fill-rule="evenodd" clip-rule="evenodd" d="M337.453 230.719L337.529 230.708L338.473 231.425L339.211 231.708L341.978 231.532L341.73 232.001L340.929 233.597L341.021 234.604L342.389 238.366L343.702 242.159L345.73 244.896L345.765 244.934L346.428 246.853L345.362 249.161L345.407 250.205L345.983 254.366L345.984 254.367L345.976 254.37L343.999 252.929L342.685 251.566L341.978 250.445L340.596 248.161L339.529 246.245L338.966 244.527L337.529 240.796L336.388 236.921L335.475 232.924L335.664 231.538L337.529 230.748L337.453 230.719V230.719Z" stroke="black" stroke-miterlimit="1" stroke-linecap="round"/>
<path fill-rule="evenodd" clip-rule="evenodd" d="M319.725 207.643L324.174 208.624L328.624 209.142L333.073 210.724L337.523 214.099L340.786 216.917L341.427 220.5L341.454 224.964L341.972 229.672V231.532L339.204 231.707L338.466 231.425L337.523 230.708L335.672 230.971L333.073 231.268L330.732 230.842L328.624 231.125L327.771 231.47L324.174 233.301L323.246 234.032L322.591 230.464L321.671 226.474L320.711 222.505L318.948 218.937L316.213 215.855L315.276 214.927V211.874L318.019 208.796L319.725 207.65V207.643V207.643Z" stroke="black" stroke-width="1.49237" stroke-miterlimit="1" stroke-linecap="round"/>
<path fill-rule="evenodd" clip-rule="evenodd" d="M303.733 206.096L306.383 205.938L309.412 205.91L316.611 208.089L319.731 207.643V207.65L318.025 208.796L315.282 211.874V214.926L313.232 212.899L308.867 210.632L305.786 207.723L303.732 206.099V206.099L303.733 206.096V206.096Z" stroke="black" stroke-width="1.49237" stroke-miterlimit="1" stroke-linecap="round"/>
<path fill-rule="evenodd" clip-rule="evenodd" d="M316.601 188.998L319.06 192.835L319.722 207.643L316.602 208.089L309.403 205.91L306.374 205.938L303.724 206.096L303.722 206.099L303.569 204.377L301.924 200.751L301.921 200.747L301.939 200.742L304.901 199.857L306.763 199.094L309.222 197.861L310.866 196.346L312.669 194.033L314.319 191.313L316.143 189.821L316.601 188.998V188.998Z" stroke="black" stroke-width="0.497457" stroke-miterlimit="1" stroke-linecap="round"/>
<path fill-rule="evenodd" clip-rule="evenodd" d="M298.741 183.202L301.067 182.52L309.973 180.04L312.261 177.79L315.281 176.279L316.565 176.922L316.42 180.159L316.421 180.158L316.61 188.997L316.61 188.998L316.152 189.821L314.328 191.313L312.678 194.033L310.875 196.347L309.231 197.862L306.771 199.095L304.91 199.857L301.948 200.742L301.93 200.747L299.179 197.678L296.937 194.35L295.637 190.551L294.966 188.59L294.976 188.589L297.339 186.389L298.741 183.202V183.202Z" stroke="black" stroke-miterlimit="1" stroke-linecap="round"/>
<path fill-rule="evenodd" clip-rule="evenodd" d="M294.96 188.59L294.33 186.752L293.465 183.171L293.029 180.715V178.503L294.408 179.676L296.237 181.349L298.726 183.204L298.735 183.202L297.333 186.388L294.97 188.589L294.96 188.59V188.59Z" stroke="black" stroke-width="1.49237" stroke-miterlimit="1" stroke-linecap="round"/>
<path fill-rule="evenodd" clip-rule="evenodd" d="M321.961 180.128L322.571 179.923L324.18 179.258L325.554 178.571L326.516 178.659L326.904 179.367L327.725 182.501L327.897 183.32L328.618 185.498L328.173 187.174L327.907 188.531L326.367 189.918L324.18 189.627L322.802 188.938L322.942 185.832L322.681 184.428L322.315 181.661L321.961 180.128V180.128Z" stroke="black" stroke-width="1.49237" stroke-miterlimit="1" stroke-linecap="round"/>
<path fill-rule="evenodd" clip-rule="evenodd" d="M322.736 190.348L322.473 193.224L319.729 193.232L319.069 192.801L319.051 192.81L316.608 188.997L316.419 180.158L319.729 177.916L321.091 177.823L321.694 179.486L321.959 180.128L322.312 181.661L322.678 184.428L322.94 185.832L322.736 190.348V190.348Z" stroke="black" stroke-width="1.49237" stroke-miterlimit="1" stroke-linecap="round"/>
<path fill-rule="evenodd" clip-rule="evenodd" d="M328.616 185.535L332.198 184.744L333.065 184.319L335.424 183.999L337.515 183.465L341.964 183.001L346.414 182.421L350.863 181.367L355.312 180.095L359.762 178.601L364.211 177.197L367.042 175.47L371.429 173.214L375.386 170.744L377.56 168.878L379.185 163.744L380.073 159.739L379.969 160.208L382.009 162.655L383.551 168.835L385.049 172.535L386.458 174.862L383.552 179.276L381.085 182.492L378.822 185.81L376.453 189.075L374.428 192.511L372.88 196.187L371.14 199.767L369.03 203.161L367.098 206.644L365.152 210.121L363.138 213.563L360.836 216.861L359.048 220.417L357.139 223.912L355.312 227.448L353.125 230.803L351.094 234.237L349.817 238.048L349.234 239.386L346.414 237.432L345.314 235.796L344.056 233.076L341.964 229.672L341.447 224.964L341.419 220.501L340.778 216.917L337.515 214.099L333.065 210.725L328.616 209.142L324.166 208.625L319.717 207.644V207.651V207.644L319.056 192.836L319.039 192.81L319.057 192.802L319.717 193.233L322.462 193.225L322.724 190.349L322.788 188.938L324.166 189.628L326.353 189.919L327.893 188.532L328.159 187.175L328.604 185.499L328.616 185.535V185.535Z" stroke="black" stroke-width="1.49237" stroke-miterlimit="1" stroke-linecap="round"/>
<path fill-rule="evenodd" clip-rule="evenodd" d="M326.031 71.7187L326.509 70.6611L329.447 67.6808L332.315 64.6652L334.862 61.4895L337.522 58.3704L341.122 51.2717L343.132 47.8273L345.212 44.4177L351.744 34.3358L355.32 30.7461L358.402 28.7658L362.534 26.3819L364.219 25.8178L366.048 25.2134L368.668 25L373.117 27.2246L376.205 30.1303L378.436 33.4637L378.982 34.6064L379.603 37.33L380.487 41.3375L382.621 44.7197L386.138 47.4104L388.501 48.2646L395.364 59.4434L398.028 62.8605L395.129 64.9269L391.733 67.6783L388.963 70.7427L387.187 74.304L384.593 77.4568L383.937 78.7099L383.262 81.2405L382.305 85.2112L381.395 89.2053L380.321 93.1178L379.978 94.9847L379.888 97.3507L379.969 99.4385L380.876 103.434L381.35 107.647L381.28 112.131L381.1 115.755L381.43 120.368L381.749 124.977L382.016 129.56L382.441 131.108L383.535 133.251L384.192 139.547L384.48 146.126L384.334 150.649L382.653 152.126L380.895 155.696L380.08 159.738L379.193 163.744L377.567 168.878L375.393 170.743L371.436 173.214L367.049 175.47L364.219 177.196L359.769 178.6L355.32 180.095L350.87 181.366L346.421 182.421L341.971 183.001L337.522 183.465L335.432 183.999L333.073 184.318L332.205 184.744L328.624 185.535L327.891 183.32L327.718 182.501L326.897 179.367L326.509 178.66L325.548 178.571L324.174 179.258L322.565 179.924L321.955 180.129L321.69 179.486L321.087 177.823L319.725 177.916L316.414 180.159L316.559 176.921L315.275 176.279L312.255 177.789L309.966 180.039L301.061 182.52L298.726 183.205L296.237 181.349L294.408 179.677L293.029 178.504L293.852 174.466L294.993 170.587L296.469 166.876L296.947 162.666L297.684 158.585L298.753 154.67L299.975 150.832L301.309 147.049L302.755 143.323L304.817 139.904L306.913 136.476L307.03 136.562L310.826 134.01L315.275 131.785L318.5 132.449L318.706 130.07L318.605 129.001L318.734 124.616L319.725 125.111L326.062 126.663L328.624 126.512L333.073 125.911L337.2 124.95L341.182 122.492L344.587 119.745L347.203 116.603L349.236 113.171L352.023 110.115L355.32 107.693L359.019 104.714L362.472 101.991L364.219 100.834L369.082 96.397L370.99 92.9019L372.019 88.967L373.387 85.2013L374.628 81.3728L374.63 81.3718L374.595 79.8785L373.477 75.9878L373.117 74.5194L371.826 72.3639L369.361 71.0292L368.668 71.6072L364.219 72.728L359.769 73.9433L355.32 74.8044L350.87 75.3242L347.358 76.6365L346.421 77.5489L344.249 79.5312L341.971 81.9444L340.558 83.5487L340.165 88.195L339.678 86.1444L338.817 84.4192L337.522 80.6172L335.058 77.4001L333.073 75.7734L331.875 74.5417L328.624 71.7187L326.509 70.6611L326.031 71.7187V71.7187Z" stroke="black" stroke-width="1.49237" stroke-miterlimit="1" stroke-linecap="round"/>
<path fill-rule="evenodd" clip-rule="evenodd" d="M318.6 129.001L318.701 130.07L318.494 132.449L315.27 131.785L310.821 134.01L307.025 136.562L306.908 136.476L307.356 135.743L307.784 128.043L307.648 122.248L308.295 119.4L308.894 121.625L310.821 122.319L313.713 122.108L315.27 121.596L318.729 120.167V124.616L318.6 129.001V129.001Z" stroke="black" stroke-width="1.49237" stroke-miterlimit="1" stroke-linecap="round"/>
<path fill-rule="evenodd" clip-rule="evenodd" d="M293.029 178.504L293.852 174.466L294.993 170.587L296.469 166.876L296.947 162.666L297.684 158.585L298.753 154.67L299.975 150.832L301.309 147.049L302.755 143.323L304.817 139.904L307.361 135.742L307.79 128.043L307.653 122.248L308.3 119.399L309.426 115.512L309.799 111.25L310.826 107.314L312.58 103.741L313.626 99.8151L314.42 95.7628L315.275 91.7408L319.725 85.0669L321.617 81.5638L323.597 78.104L324.867 74.29L326.509 70.6611L329.447 67.6808L332.315 64.6652L334.862 61.4895L337.522 58.3704L341.122 51.2717L343.132 47.8273L345.212 44.4177L351.744 34.3358L355.32 30.7461L358.402 28.7658L362.534 26.3819L364.219 25.8178L366.048 25.2134L368.668 25L373.117 27.2246L376.205 30.1303L378.436 33.4637L378.982 34.6064L379.603 37.33L380.487 41.3375L382.621 44.7197L386.138 47.4104L388.501 48.2646L395.364 59.4434L398.028 62.8605L395.129 64.9269L391.733 67.6783L388.963 70.7427L387.187 74.304L384.593 77.4568L383.937 78.7099L383.262 81.2405L382.305 85.2112L381.395 89.2053L380.321 93.1178L379.978 94.9847L379.888 97.3507L379.969 99.4385L380.876 103.434L381.35 107.647L381.28 112.131L381.1 115.755L381.43 120.368L381.749 124.977L382.016 129.56L382.441 131.108L383.535 133.251L384.192 139.547L384.48 146.126L384.334 150.649L382.653 152.126L380.895 155.696L380.08 159.738L379.193 163.744L377.567 168.878L375.393 170.743L371.436 173.214L367.049 175.47L364.219 177.196L359.769 178.6L355.32 180.095L350.87 181.366L346.421 182.421L341.971 183.001L337.522 183.465L335.432 183.999L333.073 184.318L332.205 184.744L328.624 185.535L327.891 183.32L327.718 182.501L326.897 179.367L326.509 178.66L325.548 178.571L324.174 179.258L322.565 179.924L321.955 180.129L321.69 179.486L321.087 177.823L319.725 177.916L316.414 180.159L316.559 176.921L315.275 176.279L312.255 177.789L309.966 180.039L301.061 182.52L298.726 183.205L296.237 181.349L294.408 179.677L293.029 178.504V178.504Z" stroke="black" stroke-width="1.49237" stroke-miterlimit="1" stroke-linecap="round"/>
<path fill-rule="evenodd" clip-rule="evenodd" d="M326.513 70.6617L328.628 71.7193L331.88 74.5424L333.077 75.7741L335.062 77.4008L337.526 80.6178L338.821 84.4199L339.682 86.145L340.169 88.1956L340.562 83.5493L341.976 81.945L344.253 79.5319L346.425 77.5495L347.362 76.6372L350.875 75.3249L355.324 74.805L359.774 73.9439L364.223 72.7286L368.672 71.6079L369.365 71.0298L371.831 72.3645L373.121 74.52L373.482 75.9885L374.599 79.8791L374.635 81.3724L374.633 81.3734L373.391 85.2019L372.024 88.9676L370.994 92.9025L369.086 96.3976L364.223 100.834L362.476 101.992L359.024 104.715L355.324 107.694L352.027 110.116L349.241 113.171L347.207 116.604L344.591 119.745L341.186 122.492L337.205 124.951L333.077 125.911L328.628 126.512L326.066 126.664L319.729 125.112L318.738 124.616V120.167L315.28 121.596L313.723 122.109L310.83 122.32L308.904 121.626L308.305 119.4L309.43 115.513L309.803 111.25L310.83 107.314L312.584 103.742L313.631 99.8157L314.425 95.7634L315.28 91.7414L319.729 85.0676L321.622 81.5645L323.601 78.1047L324.872 74.2906L326.513 70.6617V70.6617Z" stroke="black" stroke-width="1.49237" stroke-miterlimit="1" stroke-linecap="round"/>
<path fill-rule="evenodd" clip-rule="evenodd" d="M209.184 33.9728L207.028 38.7515L206.29 41.276L206.005 42.6582L204.765 46.4573L203.981 50.4836L203.356 54.5899L202.89 56.2325L202.391 58.5258L202.022 61.0853L201.561 62.5293L200.877 66.0764L200.347 68.0486L199.271 70.2223L198.751 71.5581L197.8 73.9052L195.928 77.3881L194.442 81.0636L194.021 82.7601L193.198 84.8602L192.598 87.8905L192.519 88.9393L192.352 92.4321L192.39 101.25L193.372 109.596L192.027 119.106L191.509 123.784L191.042 132.388L190.259 136.415L188.351 139.88L187.668 143.957L187.091 146.022L185.955 148.654L185.368 151.645L184.617 153.742L183.917 155.338L182.672 158.505L181.491 162.962L181.304 164.236L180.66 166.965L180.292 171.2L180.02 175.482L179.901 178.194L180.089 179.936L180.363 182.381L180.347 184.483L180.494 186.735L180.435 188.946L179.999 191.401L179.916 193.105L180.21 195.714L180.487 197.809L180.7 199.888L180.924 202.447L180.862 204.226L180.56 206.683L180.555 208.798L180.335 210.989L180.545 213.221L180.349 215.415L180.571 217.627L181.852 220.585L182.672 221.538L184.501 224.499L186.433 227.952L187.091 230.211L187.603 231.786L188.905 235.553L189.769 237.8L190.07 239.39L191.509 243.089L194.889 245.818L195.928 246.595L197.921 248.72L199.885 252.157L202.064 255.486L202.931 257.637L203.644 259.115L205.229 262.741L206.235 263.708L207.556 265.996L209.184 268.147L209.634 269.376L211.966 272.629L213.603 273.756L216.06 275L218.021 274.865L221.473 271.326L224.915 268.629L228.27 265.888L229.32 261.994L230.686 258.258L231.278 254.135L233.961 251.058L238.108 248.713L239.51 245.6L240.663 241.153L241.434 237.12L242.704 233.337L244.073 229.603L245.561 225.928L246.281 221.869L247.158 220.228L248.952 218.786L253.371 216.577L259.263 210.685L261.457 207.364L262.208 203.321L264.946 200.271L266.627 196.692L267.325 191.925L267.629 187.354L267.2 183.15L266.627 179.018L265.912 174.957L265.545 170.721L264.788 166.681L264.262 162.526L263.918 159.988L263.648 158.414L263.42 154.109L262.407 150.197L261.94 146.012L260.959 142.084L260.157 138.066L259.156 135.514L257.789 133.319L257.292 130.661L255.913 126.932L255.087 124.642L252.586 119.758L251.318 115.973L251.06 113.792L250.914 111.757L250.213 107.689L248.952 105.014L248.491 103.67L247.443 100.236L245.932 96.573L244.534 92.8535L242.324 89.5396L241.172 85.6966L239.904 81.9119L238.628 78.1316L237.38 74.3365L235.992 70.6121L234.917 66.731L233.736 62.9028L232.577 59.0638L231.278 55.2949L229.666 51.6816L228.413 47.8894L226.549 44.4026L224.628 40.945L222.44 37.6202L220.555 34.1437L218.486 30.7597L217.231 29.1383L215.544 27.8118L213.603 26.6237L211.313 25.5087L211.002 27.4823L210.328 31.5639L209.184 33.9728Z" fill="white" stroke="black" stroke-width="2.47012" stroke-miterlimit="1" stroke-linecap="round"/>
<mask id="mask0" mask-type="alpha" maskUnits="userSpaceOnUse" x="178" y="24" width="91" height="253">
<path fill-rule="evenodd" clip-rule="evenodd" d="M209.184 33.9728L207.028 38.7515L206.29 41.276L206.005 42.6582L204.765 46.4573L203.981 50.4836L203.356 54.5899L202.89 56.2325L202.391 58.5258L202.022 61.0853L201.561 62.5293L200.877 66.0764L200.347 68.0486L199.271 70.2223L198.751 71.5581L197.8 73.9052L195.928 77.3881L194.442 81.0636L194.021 82.7601L193.198 84.8602L192.598 87.8905L192.519 88.9393L192.352 92.4321L192.39 101.25L193.372 109.596L192.027 119.106L191.509 123.784L191.042 132.388L190.259 136.415L188.351 139.88L187.668 143.957L187.091 146.022L185.955 148.654L185.368 151.645L184.617 153.742L183.917 155.338L182.672 158.505L181.491 162.962L181.304 164.236L180.66 166.965L180.292 171.2L180.02 175.482L179.901 178.194L180.089 179.936L180.363 182.381L180.347 184.483L180.494 186.735L180.435 188.946L179.999 191.401L179.916 193.105L180.21 195.714L180.487 197.809L180.7 199.888L180.924 202.447L180.862 204.226L180.56 206.683L180.555 208.798L180.335 210.989L180.545 213.221L180.349 215.415L180.571 217.627L181.852 220.585L182.672 221.538L184.501 224.499L186.433 227.952L187.091 230.211L187.603 231.786L188.905 235.553L189.769 237.8L190.07 239.39L191.509 243.089L194.889 245.818L195.928 246.595L197.921 248.72L199.885 252.157L202.064 255.486L202.931 257.637L203.644 259.115L205.229 262.741L206.235 263.708L207.556 265.996L209.184 268.147L209.634 269.376L211.966 272.629L213.603 273.756L216.06 275L218.021 274.865L221.473 271.326L224.915 268.629L228.27 265.888L229.32 261.994L230.686 258.258L231.278 254.135L233.961 251.058L238.108 248.713L239.51 245.6L240.663 241.153L241.434 237.12L242.704 233.337L244.073 229.603L245.561 225.928L246.281 221.869L247.158 220.228L248.952 218.786L253.371 216.577L259.263 210.685L261.457 207.364L262.208 203.321L264.946 200.271L266.627 196.692L267.325 191.925L267.629 187.354L267.2 183.15L266.627 179.018L265.912 174.957L265.545 170.721L264.788 166.681L264.262 162.526L263.918 159.988L263.648 158.414L263.42 154.109L262.407 150.197L261.94 146.012L260.959 142.084L260.157 138.066L259.156 135.514L257.789 133.319L257.292 130.661L255.913 126.932L255.087 124.642L252.586 119.758L251.318 115.973L251.06 113.792L250.914 111.757L250.213 107.689L248.952 105.014L248.491 103.67L247.443 100.236L245.932 96.573L244.534 92.8535L242.324 89.5396L241.172 85.6966L239.904 81.9119L238.628 78.1316L237.38 74.3365L235.992 70.6121L234.917 66.731L233.736 62.9028L232.577 59.0638L231.278 55.2949L229.666 51.6816L228.413 47.8894L226.549 44.4026L224.628 40.945L222.44 37.6202L220.555 34.1437L218.486 30.7597L217.231 29.1383L215.544 27.8118L213.603 26.6237L211.313 25.5087L211.002 27.4823L210.328 31.5639L209.184 33.9728V33.9728Z" fill="white" stroke="black" stroke-width="2.47012" stroke-miterlimit="1" stroke-linecap="round"/>
</mask>
<g mask="url(#mask0)">
<path d="M211.342 25L212.123 31.9682L211.671 36.1605L210.728 40.1077L211.006 42.8431L210.997 44.6606L210.525 47.5018L210.235 48.6988L210.063 52.1515L209.835 52.9173L208.682 56.7593L207.942 60.8083L207.451 62.2948L209.183 65.8473L210.728 69.4937L212.253 73.15L212.059 76.123L213.602 81.3127L214.612 85.2264L216.613 88.6445L217.448 92.0731L217.014 96.2747L216.118 100.246L215.465 104.338L215.329 106.961L215.88 111.105L215.983 113.434L215.976 115.475L216.201 117.962L216.203 119.781L216.927 122.744L217.234 127.316L217.078 128.181L218.021 130.352L218.587 131.844L220.372 135.37L221.395 139.278L222.439 143.174L223.46 147.083L225.792 150.335L226.858 155.858V163.058L226.22 167.797L225.372 171.153L225.32 175.546L225.323 179.966L224.4 183.923L223.764 188.024L224.489 192.804L225.048 197.503L225.705 202.25L226.647 202.932L228.938 206.205L230.813 209.686L232.357 213.333L232.239 214.354L232.534 217.663L232.74 219.024L233.441 221.629L232.723 223.433L231.277 226.411L229.281 230.55L227.09 233.873L225.201 237.348L225.128 239.041L225.092 241.712L224.725 256.423L223.854 258.767L222.439 262.479L221.596 266.476L219.593 269.893L218.021 274.371" stroke="black" stroke-width="4.94024" stroke-miterlimit="1" stroke-linecap="round"/>
</g>
</svg>
