<svg width="633" height="300" viewBox="0 0 633 300" fill="none" xmlns="http://www.w3.org/2000/svg">
<rect width="633" height="300" fill="white"/>
<path fill-rule="evenodd" clip-rule="evenodd" d="M400 39.0077C400 31.2768 393.723 25 385.992 25H270.774C263.043 25 256.767 31.2768 256.767 39.0077V260.992C256.767 268.724 263.043 275 270.774 275H385.992C393.723 275 400 268.724 400 260.992V39.0077Z" fill="white" stroke="black" stroke-width="2.61468"/>
<path d="M256.767 52.7783H400" stroke="black" stroke-width="1.57828"/>
<path d="M256.767 242.691H400" stroke="black" stroke-width="1.57828"/>
<path d="M328.379 265.771C332.774 265.771 336.337 262.208 336.337 257.814C336.337 253.419 332.774 249.856 328.379 249.856C323.984 249.856 320.422 253.419 320.422 257.814C320.422 262.208 323.984 265.771 328.379 265.771Z" stroke="black" stroke-miterlimit="1" stroke-linecap="round"/>
<path d="M312.116 40.049H346.598" stroke="black" stroke-miterlimit="1" stroke-linecap="round"/>
<path d="M300.042 140.717V242.732" stroke="black" stroke-width="1.57828" stroke-miterlimit="1" stroke-linecap="round"/>
<path fill-rule="evenodd" clip-rule="evenodd" d="M337.999 112.248L361.723 143.089L337.999 154.951L314.275 124.109L337.999 112.248Z" stroke="black" stroke-width="1.57828" stroke-miterlimit="1" stroke-linecap="round"/>
<path fill-rule="evenodd" clip-rule="evenodd" d="M266.826 100.385L314.275 124.11L337.999 112.248L290.55 88.523L266.826 100.385Z" stroke="black" stroke-width="1.57828" stroke-miterlimit="1" stroke-linecap="round"/>
<path d="M266.826 100.385V124.109L337.999 159.696V154.951L314.275 124.109" stroke="black" stroke-width="1.57828" stroke-miterlimit="1" stroke-linecap="round"/>
<path fill-rule="evenodd" clip-rule="evenodd" d="M338 154.951L361.724 143.089V147.834L338 159.696V154.951Z" stroke="black" stroke-width="1.57828" stroke-miterlimit="1" stroke-linecap="round"/>
<path fill-rule="evenodd" clip-rule="evenodd" d="M302.129 106.456C300.834 107.103 300.016 108.427 300.016 109.874C300.016 111.322 300.834 112.645 302.129 113.293C305.16 114.808 308.584 116.52 311.021 117.739C313.067 118.762 315.476 118.762 317.522 117.739C318.757 117.122 320.214 116.393 321.656 115.672C322.954 115.024 323.773 113.698 323.773 112.247C323.773 110.796 322.954 109.471 321.656 108.822C318.833 107.41 315.671 105.829 313.284 104.636C310.919 103.453 308.135 103.453 305.77 104.636C304.649 105.196 303.383 105.829 302.129 106.456V106.456Z" stroke="black" stroke-width="1.57828" stroke-miterlimit="1" stroke-linecap="round"/>
<path d="M323.766 152.579V208.955" stroke="black" stroke-width="1.57828" stroke-miterlimit="1" stroke-linecap="round"/>
<path d="M323.766 231.495V242.732" stroke="black" stroke-width="1.57828" stroke-miterlimit="1" stroke-linecap="round"/>
<path d="M370.409 208.957H311.904V231.495H370.409V208.957Z" stroke="black" stroke-width="1.57828" stroke-miterlimit="1" stroke-linecap="round"/>
<path opacity="0.9" d="M317.989 223.114L318.475 221.621H320.837L321.323 223.114H322.806L320.549 216.568H318.766L316.506 223.114H317.989ZM318.827 220.541L319.632 218.064H319.683L320.489 220.541H318.827ZM325.148 223.194C325.941 223.194 326.353 222.736 326.542 222.327H326.599V223.114H327.942V216.568H326.583V219.029H326.542C326.36 218.63 325.967 218.141 325.145 218.141C324.068 218.141 323.157 218.978 323.157 220.665C323.157 222.308 324.03 223.194 325.148 223.194ZM325.58 222.11C324.912 222.11 324.548 221.516 324.548 220.659C324.548 219.809 324.906 219.224 325.58 219.224C326.241 219.224 326.612 219.783 326.612 220.659C326.612 221.535 326.235 222.11 325.58 222.11ZM330.87 223.194C331.663 223.194 332.075 222.736 332.264 222.327H332.321V223.114H333.663V216.568H332.305V219.029H332.264C332.081 218.63 331.688 218.141 330.867 218.141C329.79 218.141 328.879 218.978 328.879 220.665C328.879 222.308 329.751 223.194 330.87 223.194ZM331.302 222.11C330.634 222.11 330.269 221.516 330.269 220.659C330.269 219.809 330.627 219.224 331.302 219.224C331.963 219.224 332.334 219.783 332.334 220.659C332.334 221.535 331.957 222.11 331.302 222.11ZM339.477 218.205H338.553V217.028H337.192V218.205H336.521V219.227H337.192V221.784C337.185 222.746 337.841 223.222 338.828 223.181C339.18 223.168 339.429 223.098 339.566 223.053L339.352 222.04C339.285 222.053 339.141 222.084 339.014 222.084C338.742 222.084 338.553 221.982 338.553 221.605V219.227H339.477V218.205ZM342.529 223.209C344.019 223.209 344.945 222.19 344.945 220.678C344.945 219.157 344.019 218.141 342.529 218.141C341.04 218.141 340.113 219.157 340.113 220.678C340.113 222.19 341.04 223.209 342.529 223.209ZM342.536 222.155C341.848 222.155 341.497 221.525 341.497 220.669C341.497 219.812 341.848 219.179 342.536 219.179C343.21 219.179 343.562 219.812 343.562 220.669C343.562 221.525 343.21 222.155 342.536 222.155ZM350.132 223.209C351.439 223.209 352.26 222.442 352.324 221.314H351.039C350.959 221.838 350.614 222.132 350.148 222.132C349.512 222.132 349.099 221.599 349.099 220.659C349.099 219.732 349.515 219.202 350.148 219.202C350.646 219.202 350.966 219.531 351.039 220.02H352.324C352.267 218.885 351.407 218.141 350.125 218.141C348.636 218.141 347.716 219.173 347.716 220.678C347.716 222.171 348.62 223.209 350.132 223.209ZM354.596 223.206C355.321 223.206 355.791 222.89 356.031 222.433H356.069V223.114H357.36V219.803C357.36 218.633 356.37 218.141 355.277 218.141C354.1 218.141 353.327 218.703 353.138 219.598L354.398 219.7C354.49 219.374 354.781 219.135 355.27 219.135C355.734 219.135 355.999 219.368 355.999 219.771V219.79C355.999 220.106 355.663 220.148 354.81 220.231C353.838 220.32 352.966 220.646 352.966 221.743C352.966 222.714 353.659 223.206 354.596 223.206ZM354.986 222.267C354.567 222.267 354.267 222.072 354.267 221.698C354.267 221.314 354.583 221.126 355.062 221.059C355.36 221.017 355.845 220.947 356.008 220.838V221.359C356.008 221.874 355.583 222.267 354.986 222.267ZM358.417 223.114H359.778V220.336C359.778 219.732 360.219 219.317 360.82 219.317C361.009 219.317 361.267 219.349 361.395 219.39V218.182C361.274 218.153 361.104 218.134 360.967 218.134C360.417 218.134 359.967 218.454 359.788 219.061H359.737V218.205H358.417V223.114ZM364.956 218.205H364.033V217.028H362.671V218.205H362V219.227H362.671V221.784C362.665 222.746 363.32 223.222 364.308 223.181C364.659 223.168 364.909 223.098 365.046 223.053L364.832 222.04C364.765 222.053 364.621 222.084 364.493 222.084C364.221 222.084 364.033 221.982 364.033 221.605V219.227H364.956V218.205Z" fill="#191919"/>
<path fill-rule="evenodd" clip-rule="evenodd" d="M231.287 33.2272C231.287 28.6863 227.601 25 223.06 25C218.519 25 214.833 28.6863 214.833 33.2272V266.773C214.833 271.314 218.519 275 223.06 275C227.601 275 231.287 271.314 231.287 266.773V33.2272Z" fill="white" stroke="black" stroke-width="2.27621"/>
<path d="M223.059 38.8005V65.3398" stroke="black"/>
<path d="M223.059 70.6478V97.187" stroke="black"/>
</svg>
