<svg width="275" height="300" viewBox="0 0 275 300" fill="none" xmlns="http://www.w3.org/2000/svg">
<g clip-path="url(#clip0)">
<rect width="275" height="300" fill="white"/>
<path fill-rule="evenodd" clip-rule="evenodd" d="M186.084 39.0077C186.084 31.2768 179.807 25 172.076 25H56.858C49.1271 25 42.8503 31.2768 42.8503 39.0077V260.992C42.8503 268.724 49.1271 275 56.858 275H172.076C179.807 275 186.084 268.724 186.084 260.992V39.0077Z" fill="white" stroke="black" stroke-width="2.61468"/>
<path d="M42.8503 52.7783H186.084" stroke="black" stroke-width="1.57828"/>
<path d="M42.8503 242.691H186.084" stroke="black" stroke-width="1.57828"/>
<path d="M114.463 265.771C118.858 265.771 122.42 262.208 122.42 257.814C122.42 253.419 118.858 249.856 114.463 249.856C110.068 249.856 106.505 253.419 106.505 257.814C106.505 262.208 110.068 265.771 114.463 265.771Z" stroke="black" stroke-miterlimit="1" stroke-linecap="round"/>
<path d="M98.1993 40.049H132.681" stroke="black" stroke-miterlimit="1" stroke-linecap="round"/>
<path d="M86.1256 140.717V242.732" stroke="black" stroke-width="1.57828" stroke-miterlimit="1" stroke-linecap="round"/>
<path fill-rule="evenodd" clip-rule="evenodd" d="M124.083 112.248L147.807 143.089L124.083 154.951L100.358 124.109L124.083 112.248Z" stroke="black" stroke-width="1.57828" stroke-miterlimit="1" stroke-linecap="round"/>
<path fill-rule="evenodd" clip-rule="evenodd" d="M52.9093 100.385L100.358 124.11L124.082 112.248L76.6335 88.523L52.9093 100.385Z" stroke="black" stroke-width="1.57828" stroke-miterlimit="1" stroke-linecap="round"/>
<path d="M52.9093 100.385V124.109L124.082 159.696V154.951L100.358 124.109" stroke="black" stroke-width="1.57828" stroke-miterlimit="1" stroke-linecap="round"/>
<path fill-rule="evenodd" clip-rule="evenodd" d="M124.083 154.951L147.808 143.089V147.834L124.083 159.696V154.951Z" stroke="black" stroke-width="1.57828" stroke-miterlimit="1" stroke-linecap="round"/>
<path fill-rule="evenodd" clip-rule="evenodd" d="M88.2123 106.456C86.9173 107.103 86.0999 108.427 86.0999 109.874C86.0999 111.322 86.9173 112.645 88.2123 113.293C91.2435 114.808 94.6673 116.52 97.1049 117.739C99.1511 118.762 101.56 118.762 103.606 117.739C104.841 117.122 106.297 116.393 107.74 115.672C109.037 115.024 109.856 113.698 109.856 112.247C109.856 110.796 109.037 109.471 107.74 108.822C104.916 107.41 101.755 105.829 99.3675 104.636C97.0026 103.453 94.2191 103.453 91.8541 104.636C90.7327 105.196 89.4664 105.829 88.2123 106.456V106.456Z" stroke="black" stroke-width="1.57828" stroke-miterlimit="1" stroke-linecap="round"/>
<path d="M109.85 152.579V208.955" stroke="black" stroke-width="1.57828" stroke-miterlimit="1" stroke-linecap="round"/>
<path d="M109.85 231.495V242.732" stroke="black" stroke-width="1.57828" stroke-miterlimit="1" stroke-linecap="round"/>
<path d="M156.493 208.957H97.9878V231.495H156.493V208.957Z" stroke="black" stroke-width="1.57828" stroke-miterlimit="1" stroke-linecap="round"/>
<path opacity="0.9" d="M104.073 223.114L104.559 221.621H106.921L107.407 223.114H108.889L106.633 216.568H104.85L102.59 223.114H104.073ZM104.91 220.541L105.716 218.064H105.767L106.572 220.541H104.91ZM111.232 223.194C112.025 223.194 112.437 222.736 112.626 222.327H112.683V223.114H114.025V216.568H112.667V219.029H112.626C112.443 218.63 112.05 218.141 111.229 218.141C110.152 218.141 109.241 218.978 109.241 220.665C109.241 222.308 110.114 223.194 111.232 223.194ZM111.664 222.11C110.996 222.11 110.631 221.516 110.631 220.659C110.631 219.809 110.989 219.224 111.664 219.224C112.325 219.224 112.696 219.783 112.696 220.659C112.696 221.535 112.319 222.11 111.664 222.11ZM116.954 223.194C117.746 223.194 118.159 222.736 118.347 222.327H118.405V223.114H119.747V216.568H118.389V219.029H118.347C118.165 218.63 117.772 218.141 116.951 218.141C115.874 218.141 114.963 218.978 114.963 220.665C114.963 222.308 115.835 223.194 116.954 223.194ZM117.385 222.11C116.717 222.11 116.353 221.516 116.353 220.659C116.353 219.809 116.711 219.224 117.385 219.224C118.047 219.224 118.418 219.783 118.418 220.659C118.418 221.535 118.04 222.11 117.385 222.11ZM125.561 218.205H124.637V217.028H123.276V218.205H122.604V219.227H123.276V221.784C123.269 222.746 123.924 223.222 124.912 223.181C125.263 223.168 125.513 223.098 125.65 223.053L125.436 222.04C125.369 222.053 125.225 222.084 125.097 222.084C124.826 222.084 124.637 221.982 124.637 221.605V219.227H125.561V218.205ZM128.613 223.209C130.102 223.209 131.029 222.19 131.029 220.678C131.029 219.157 130.102 218.141 128.613 218.141C127.124 218.141 126.197 219.157 126.197 220.678C126.197 222.19 127.124 223.209 128.613 223.209ZM128.619 222.155C127.932 222.155 127.581 221.525 127.581 220.669C127.581 219.812 127.932 219.179 128.619 219.179C129.294 219.179 129.645 219.812 129.645 220.669C129.645 221.525 129.294 222.155 128.619 222.155ZM136.215 223.209C137.523 223.209 138.344 222.442 138.408 221.314H137.123C137.043 221.838 136.698 222.132 136.231 222.132C135.595 222.132 135.183 221.599 135.183 220.659C135.183 219.732 135.599 219.202 136.231 219.202C136.73 219.202 137.05 219.531 137.123 220.02H138.408C138.35 218.885 137.491 218.141 136.209 218.141C134.72 218.141 133.799 219.173 133.799 220.678C133.799 222.171 134.704 223.209 136.215 223.209ZM140.68 223.206C141.405 223.206 141.875 222.89 142.115 222.433H142.153V223.114H143.444V219.803C143.444 218.633 142.453 218.141 141.36 218.141C140.184 218.141 139.411 218.703 139.222 219.598L140.481 219.7C140.574 219.374 140.865 219.135 141.354 219.135C141.817 219.135 142.083 219.368 142.083 219.771V219.79C142.083 220.106 141.747 220.148 140.894 220.231C139.922 220.32 139.05 220.646 139.05 221.743C139.05 222.714 139.743 223.206 140.68 223.206ZM141.069 222.267C140.651 222.267 140.35 222.072 140.35 221.698C140.35 221.314 140.667 221.126 141.146 221.059C141.443 221.017 141.929 220.947 142.092 220.838V221.359C142.092 221.874 141.667 222.267 141.069 222.267ZM144.5 223.114H145.862V220.336C145.862 219.732 146.303 219.317 146.904 219.317C147.092 219.317 147.351 219.349 147.479 219.39V218.182C147.358 218.153 147.188 218.134 147.051 218.134C146.501 218.134 146.05 218.454 145.871 219.061H145.82V218.205H144.5V223.114ZM151.04 218.205H150.117V217.028H148.755V218.205H148.084V219.227H148.755V221.784C148.749 222.746 149.404 223.222 150.391 223.181C150.743 223.168 150.992 223.098 151.13 223.053L150.916 222.04C150.848 222.053 150.705 222.084 150.577 222.084C150.305 222.084 150.117 221.982 150.117 221.605V219.227H151.04V218.205Z" fill="#191919"/>
<path fill-rule="evenodd" clip-rule="evenodd" d="M17.3706 33.2272C17.3706 28.6863 13.6843 25 9.14344 25C4.60256 25 0.91626 28.6863 0.91626 33.2272V266.773C0.91626 271.314 4.60256 275 9.14344 275C13.6843 275 17.3706 271.314 17.3706 266.773V33.2272Z" fill="white" stroke="black" stroke-width="2.27621"/>
<path d="M9.14221 38.8005V65.3398" stroke="black"/>
<path d="M9.14221 70.6478V97.187" stroke="black"/>
</g>
<defs>
<clipPath id="clip0">
<rect width="275" height="300" fill="white"/>
</clipPath>
</defs>
</svg>
