<svg width="585" height="300" viewBox="0 0 585 300" fill="none" xmlns="http://www.w3.org/2000/svg">
<rect width="585" height="300" fill="white"/>
<path fill-rule="evenodd" clip-rule="evenodd" d="M365.069 39.0077C365.069 31.2768 358.792 25 351.061 25H235.843C228.112 25 221.835 31.2768 221.835 39.0077V260.992C221.835 268.724 228.112 275 235.843 275H351.061C358.792 275 365.069 268.724 365.069 260.992V39.0077Z" fill="white" stroke="black" stroke-width="2.61468"/>
<path d="M221.835 52.7783H365.069" stroke="black" stroke-width="1.57828"/>
<path d="M221.835 242.691H365.069" stroke="black" stroke-width="1.57828"/>
<path d="M293.448 265.771C297.843 265.771 301.405 262.208 301.405 257.814C301.405 253.419 297.843 249.856 293.448 249.856C289.053 249.856 285.49 253.419 285.49 257.814C285.49 262.208 289.053 265.771 293.448 265.771Z" stroke="black" stroke-miterlimit="1" stroke-linecap="round"/>
<path d="M277.184 40.049H311.666" stroke="black" stroke-miterlimit="1" stroke-linecap="round"/>
<path d="M265.11 140.717V242.732" stroke="black" stroke-width="1.57828" stroke-miterlimit="1" stroke-linecap="round"/>
<path fill-rule="evenodd" clip-rule="evenodd" d="M303.067 112.248L326.792 143.089L303.067 154.951L279.343 124.109L303.067 112.248Z" stroke="black" stroke-width="1.57828" stroke-miterlimit="1" stroke-linecap="round"/>
<path fill-rule="evenodd" clip-rule="evenodd" d="M231.894 100.385L279.343 124.11L303.067 112.248L255.618 88.523L231.894 100.385Z" stroke="black" stroke-width="1.57828" stroke-miterlimit="1" stroke-linecap="round"/>
<path d="M231.894 100.385V124.109L303.067 159.696V154.951L279.343 124.109" stroke="black" stroke-width="1.57828" stroke-miterlimit="1" stroke-linecap="round"/>
<path fill-rule="evenodd" clip-rule="evenodd" d="M303.068 154.951L326.792 143.089V147.834L303.068 159.696V154.951Z" stroke="black" stroke-width="1.57828" stroke-miterlimit="1" stroke-linecap="round"/>
<path fill-rule="evenodd" clip-rule="evenodd" d="M267.197 106.456C265.902 107.103 265.085 108.427 265.085 109.874C265.085 111.322 265.902 112.645 267.197 113.293C270.228 114.808 273.652 116.52 276.09 117.739C278.136 118.762 280.545 118.762 282.591 117.739C283.825 117.122 285.282 116.393 286.725 115.672C288.022 115.024 288.841 113.698 288.841 112.247C288.841 110.796 288.022 109.471 286.725 108.822C283.901 107.41 280.74 105.829 278.352 104.636C275.987 103.453 273.204 103.453 270.839 104.636C269.717 105.196 268.451 105.829 267.197 106.456V106.456Z" stroke="black" stroke-width="1.57828" stroke-miterlimit="1" stroke-linecap="round"/>
<path d="M288.835 152.579V208.955" stroke="black" stroke-width="1.57828" stroke-miterlimit="1" stroke-linecap="round"/>
<path d="M288.835 231.495V242.732" stroke="black" stroke-width="1.57828" stroke-miterlimit="1" stroke-linecap="round"/>
<path d="M335.478 208.957H276.973V231.495H335.478V208.957Z" stroke="black" stroke-width="1.57828" stroke-miterlimit="1" stroke-linecap="round"/>
<path opacity="0.9" d="M283.058 223.114L283.544 221.621H285.906L286.391 223.114H287.874L285.618 216.568H283.835L281.575 223.114H283.058ZM283.895 220.541L284.701 218.064H284.752L285.557 220.541H283.895ZM290.217 223.194C291.01 223.194 291.422 222.736 291.61 222.327H291.668V223.114H293.01V216.568H291.652V219.029H291.61C291.428 218.63 291.035 218.141 290.214 218.141C289.137 218.141 288.226 218.978 288.226 220.665C288.226 222.308 289.098 223.194 290.217 223.194ZM290.648 222.11C289.981 222.11 289.616 221.516 289.616 220.659C289.616 219.809 289.974 219.224 290.648 219.224C291.31 219.224 291.681 219.783 291.681 220.659C291.681 221.535 291.304 222.11 290.648 222.11ZM295.939 223.194C296.731 223.194 297.144 222.736 297.332 222.327H297.39V223.114H298.732V216.568H297.374V219.029H297.332C297.15 218.63 296.757 218.141 295.936 218.141C294.858 218.141 293.948 218.978 293.948 220.665C293.948 222.308 294.82 223.194 295.939 223.194ZM296.37 222.11C295.702 222.11 295.338 221.516 295.338 220.659C295.338 219.809 295.696 219.224 296.37 219.224C297.032 219.224 297.402 219.783 297.402 220.659C297.402 221.535 297.025 222.11 296.37 222.11ZM304.546 218.205H303.622V217.028H302.26V218.205H301.589V219.227H302.26V221.784C302.254 222.746 302.909 223.222 303.897 223.181C304.248 223.168 304.498 223.098 304.635 223.053L304.421 222.04C304.354 222.053 304.21 222.084 304.082 222.084C303.811 222.084 303.622 221.982 303.622 221.605V219.227H304.546V218.205ZM307.598 223.209C309.087 223.209 310.014 222.19 310.014 220.678C310.014 219.157 309.087 218.141 307.598 218.141C306.108 218.141 305.182 219.157 305.182 220.678C305.182 222.19 306.108 223.209 307.598 223.209ZM307.604 222.155C306.917 222.155 306.565 221.525 306.565 220.669C306.565 219.812 306.917 219.179 307.604 219.179C308.279 219.179 308.63 219.812 308.63 220.669C308.63 221.525 308.279 222.155 307.604 222.155ZM315.2 223.209C316.508 223.209 317.329 222.442 317.393 221.314H316.108C316.028 221.838 315.683 222.132 315.216 222.132C314.58 222.132 314.168 221.599 314.168 220.659C314.168 219.732 314.583 219.202 315.216 219.202C315.715 219.202 316.034 219.531 316.108 220.02H317.393C317.335 218.885 316.476 218.141 315.194 218.141C313.705 218.141 312.784 219.173 312.784 220.678C312.784 222.171 313.689 223.209 315.2 223.209ZM319.664 223.206C320.39 223.206 320.86 222.89 321.099 222.433H321.138V223.114H322.429V219.803C322.429 218.633 321.438 218.141 320.345 218.141C319.169 218.141 318.396 218.703 318.207 219.598L319.466 219.7C319.559 219.374 319.85 219.135 320.339 219.135C320.802 219.135 321.067 219.368 321.067 219.771V219.79C321.067 220.106 320.732 220.148 319.879 220.231C318.907 220.32 318.034 220.646 318.034 221.743C318.034 222.714 318.728 223.206 319.664 223.206ZM320.054 222.267C319.636 222.267 319.335 222.072 319.335 221.698C319.335 221.314 319.652 221.126 320.131 221.059C320.428 221.017 320.914 220.947 321.077 220.838V221.359C321.077 221.874 320.652 222.267 320.054 222.267ZM323.485 223.114H324.847V220.336C324.847 219.732 325.288 219.317 325.889 219.317C326.077 219.317 326.336 219.349 326.464 219.39V218.182C326.342 218.153 326.173 218.134 326.036 218.134C325.486 218.134 325.035 218.454 324.856 219.061H324.805V218.205H323.485V223.114ZM330.025 218.205H329.101V217.028H327.74V218.205H327.069V219.227H327.74V221.784C327.734 222.746 328.389 223.222 329.376 223.181C329.728 223.168 329.977 223.098 330.115 223.053L329.9 222.04C329.833 222.053 329.689 222.084 329.562 222.084C329.29 222.084 329.101 221.982 329.101 221.605V219.227H330.025V218.205Z" fill="#191919"/>
<path fill-rule="evenodd" clip-rule="evenodd" d="M196.355 33.2272C196.355 28.6863 192.669 25 188.128 25C183.587 25 179.901 28.6863 179.901 33.2272V266.773C179.901 271.314 183.587 275 188.128 275C192.669 275 196.355 271.314 196.355 266.773V33.2272Z" fill="white" stroke="black" stroke-width="2.27621"/>
<path d="M188.127 38.8005V65.3398" stroke="black"/>
<path d="M188.127 70.6478V97.187" stroke="black"/>
</svg>
