<?xml version="1.0" encoding="UTF-8" standalone="no"?><!DOCTYPE svg PUBLIC "-//W3C//DTD SVG 1.1//EN" "http://www.w3.org/Graphics/SVG/1.1/DTD/svg11.dtd"><svg width="100%" height="100%" viewBox="0 0 203 523" version="1.1" xmlns="http://www.w3.org/2000/svg" xmlns:xlink="http://www.w3.org/1999/xlink" xml:space="preserve" xmlns:serif="http://www.serif.com/" style="fill-rule:evenodd;clip-rule:evenodd;stroke-linecap:round;stroke-miterlimit:1;"><g id="Phone-Hammer" serif:id="Phone+Hammer"><g id="Phone-front"></g><g id="Hammer"></g><g id="AddToCart"></g></g><g id="Phone-side"></g><g id="Hand-axe-side"><path d="M73.495,23.667l-4.363,9.673l-1.494,5.11l-0.578,2.798l-2.509,7.69l-1.588,8.15l-1.265,8.312l-0.944,3.325l-1.01,4.642l-0.747,5.181l-0.933,2.923l-1.384,7.18l-1.073,3.992l-2.177,4.4l-1.054,2.704l-1.925,4.751l-3.788,7.05l-3.009,7.44l-0.851,3.434l-1.667,4.251l-1.214,6.134l-0.16,2.123l-0.337,7.07l0.076,17.85l1.988,16.894l-2.723,19.25l-1.048,9.469l-0.945,17.416l-1.586,8.151l-3.861,7.014l-1.384,8.252l-1.168,4.18l-2.298,5.329l-1.188,6.053l-1.521,4.246l-1.417,3.229l-2.52,6.411l-2.391,9.022l-0.378,2.58l-1.304,5.523l-0.744,8.573l-0.552,8.667l-0.24,5.489l0.38,3.526l0.555,4.951l-0.033,4.254l0.298,4.558l-0.12,4.476l-0.882,4.969l-0.167,3.45l0.594,5.281l0.56,4.24l0.433,4.208l0.453,5.18l-0.127,3.601l-0.611,4.974l-0.01,4.281l-0.445,4.436l0.425,4.518l-0.396,4.441l0.449,4.477l2.593,5.988l1.66,1.928l3.703,5.994l3.909,6.99l1.332,4.573l1.038,3.187l2.635,7.626l1.748,4.547l0.61,3.219l2.913,7.487l6.841,5.524l2.104,1.574l4.034,4.301l3.975,6.957l4.411,6.739l1.755,4.354l1.443,2.991l3.208,7.34l2.037,1.957l2.673,4.633l3.296,4.353l0.912,2.487l4.719,6.585l3.314,2.282l4.973,2.518l3.971,-0.274l6.986,-7.162l6.967,-5.461l6.792,-5.548l2.126,-7.882l2.764,-7.562l1.198,-8.345l5.431,-6.229l8.396,-4.746l2.838,-6.302l2.333,-9.001l1.561,-8.164l2.57,-7.659l2.772,-7.558l3.011,-7.439l1.458,-8.216l1.775,-3.321l3.632,-2.919l8.944,-4.472l11.926,-11.926l4.442,-6.723l1.521,-8.184l5.542,-6.173l3.402,-7.244l1.412,-9.65l0.616,-9.252l-0.868,-8.51l-1.16,-8.365l-1.447,-8.22l-0.744,-8.573l-1.532,-8.178l-1.065,-8.412l-0.695,-5.136l-0.547,-3.187l-0.462,-8.713l-2.051,-7.919l-0.945,-8.472l-1.986,-7.951l-1.622,-8.133l-2.026,-5.165l-2.767,-4.443l-1.007,-5.381l-2.792,-7.548l-1.671,-4.635l-5.063,-9.887l-2.566,-7.661l-0.522,-4.416l-0.297,-4.119l-1.418,-8.235l-2.552,-5.413l-0.933,-2.722l-2.123,-6.95l-3.057,-7.415l-2.831,-7.529l-4.473,-6.708l-2.332,-7.779l-2.566,-7.661l-2.584,-7.652l-2.525,-7.682l-2.811,-7.539l-2.176,-7.856l-2.39,-7.749l-2.346,-7.771l-2.63,-7.629l-3.262,-7.314l-2.537,-7.676l-3.773,-7.058l-3.889,-6.999l-4.428,-6.73l-3.816,-7.037l-4.187,-6.85l-2.541,-3.282l-3.415,-2.685l-3.929,-2.405l-4.635,-2.257l-0.63,3.995l-1.364,8.262l-2.316,4.876Z" style="fill:#ffd7d7;stroke:#000;stroke-width:5px;"/><clipPath id="_clip1"><path id="Hand-axe-front" d="M73.495,23.667l-4.363,9.673l-1.494,5.11l-0.578,2.798l-2.509,7.69l-1.588,8.15l-1.265,8.312l-0.944,3.325l-1.01,4.642l-0.747,5.181l-0.933,2.923l-1.384,7.18l-1.073,3.992l-2.177,4.4l-1.054,2.704l-1.925,4.751l-3.788,7.05l-3.009,7.44l-0.851,3.434l-1.667,4.251l-1.214,6.134l-0.16,2.123l-0.337,7.07l0.076,17.85l1.988,16.894l-2.723,19.25l-1.048,9.469l-0.945,17.416l-1.586,8.151l-3.861,7.014l-1.384,8.252l-1.168,4.18l-2.298,5.329l-1.188,6.053l-1.521,4.246l-1.417,3.229l-2.52,6.411l-2.391,9.022l-0.378,2.58l-1.304,5.523l-0.744,8.573l-0.552,8.667l-0.24,5.489l0.38,3.526l0.555,4.951l-0.033,4.254l0.298,4.558l-0.12,4.476l-0.882,4.969l-0.167,3.45l0.594,5.281l0.56,4.24l0.433,4.208l0.453,5.18l-0.127,3.601l-0.611,4.974l-0.01,4.281l-0.445,4.436l0.425,4.518l-0.396,4.441l0.449,4.477l2.593,5.988l1.66,1.928l3.703,5.994l3.909,6.99l1.332,4.573l1.038,3.187l2.635,7.626l1.748,4.547l0.61,3.219l2.913,7.487l6.841,5.524l2.104,1.574l4.034,4.301l3.975,6.957l4.411,6.739l1.755,4.354l1.443,2.991l3.208,7.34l2.037,1.957l2.673,4.633l3.296,4.353l0.912,2.487l4.719,6.585l3.314,2.282l4.973,2.518l3.971,-0.274l6.986,-7.162l6.967,-5.461l6.792,-5.548l2.126,-7.882l2.764,-7.562l1.198,-8.345l5.431,-6.229l8.396,-4.746l2.838,-6.302l2.333,-9.001l1.561,-8.164l2.57,-7.659l2.772,-7.558l3.011,-7.439l1.458,-8.216l1.775,-3.321l3.632,-2.919l8.944,-4.472l11.926,-11.926l4.442,-6.723l1.521,-8.184l5.542,-6.173l3.402,-7.244l1.412,-9.65l0.616,-9.252l-0.868,-8.51l-1.16,-8.365l-1.447,-8.22l-0.744,-8.573l-1.532,-8.178l-1.065,-8.412l-0.695,-5.136l-0.547,-3.187l-0.462,-8.713l-2.051,-7.919l-0.945,-8.472l-1.986,-7.951l-1.622,-8.133l-2.026,-5.165l-2.767,-4.443l-1.007,-5.381l-2.792,-7.548l-1.671,-4.635l-5.063,-9.887l-2.566,-7.661l-0.522,-4.416l-0.297,-4.119l-1.418,-8.235l-2.552,-5.413l-0.933,-2.722l-2.123,-6.95l-3.057,-7.415l-2.831,-7.529l-4.473,-6.708l-2.332,-7.779l-2.566,-7.661l-2.584,-7.652l-2.525,-7.682l-2.811,-7.539l-2.176,-7.856l-2.39,-7.749l-2.346,-7.771l-2.63,-7.629l-3.262,-7.314l-2.537,-7.676l-3.773,-7.058l-3.889,-6.999l-4.428,-6.73l-3.816,-7.037l-4.187,-6.85l-2.541,-3.282l-3.415,-2.685l-3.929,-2.405l-4.635,-2.257l-0.63,3.995l-1.364,8.262l-2.316,4.876Z"/></clipPath><g clip-path="url(#_clip1)"><path d="M77.865,5.504l1.581,14.105l-0.915,8.486l-1.908,7.99l0.561,5.537l-0.018,3.679l-0.955,5.751l-0.587,2.423l-0.348,6.989l-0.462,1.55l-2.334,7.777l-1.497,8.196l-0.994,3.009l3.506,7.191l3.127,7.381l3.086,7.401l-0.391,6.018l3.123,10.505l2.044,7.922l4.051,6.919l1.689,6.94l-0.878,8.505l-1.813,8.038l-1.323,8.283l-0.274,5.311l1.114,8.387l0.21,4.715l-0.014,4.131l0.455,5.034l0.003,3.682l1.466,5.997l0.621,9.255l-0.316,1.751l1.909,4.396l1.146,3.02l3.614,7.137l2.071,7.909l2.113,7.888l2.066,7.912l4.721,6.583l2.157,11.179l0,14.575l-1.292,9.591l-1.716,6.794l-0.104,8.892l0.006,8.947l-1.87,8.01l-1.286,8.301l1.466,9.677l1.133,9.511l1.33,9.609l1.906,1.38l4.637,6.626l3.797,7.046l3.125,7.382l-0.24,2.067l0.598,6.698l0.417,2.754l1.418,5.273l-1.453,3.653l-2.927,6.027l-4.041,8.378l-4.434,6.727l-3.823,7.033l-0.148,3.428l-0.073,5.406l-0.744,29.779l-1.762,4.745l-2.864,7.512l-1.708,8.091l-4.053,6.917l-3.183,9.064" style="fill:none;stroke:#000;stroke-width:10px;"/></g></g><g id="Hand-axe-front1" serif:id="Hand-axe-front"></g><g id="ABSTRACT-DOG"></g></svg>