<?xml version="1.0" encoding="UTF-8" standalone="no"?><!DOCTYPE svg PUBLIC "-//W3C//DTD SVG 1.1//EN" "http://www.w3.org/Graphics/SVG/1.1/DTD/svg11.dtd"><svg width="100%" height="100%" viewBox="0 0 567 523" version="1.1" xmlns="http://www.w3.org/2000/svg" xmlns:xlink="http://www.w3.org/1999/xlink" xml:space="preserve" xmlns:serif="http://www.serif.com/" style="fill-rule:evenodd;clip-rule:evenodd;stroke-linecap:round;stroke-miterlimit:1;"><g id="Phone-Hammer" serif:id="Phone+Hammer"><g id="Phone-front"></g><g id="Hammer"></g><g id="AddToCart"></g></g><g id="Phone-side"></g><g id="Hand-axe-side"><path d="M73.495,23.667l-4.363,9.673l-1.494,5.11l-0.578,2.798l-2.509,7.69l-1.588,8.15l-1.265,8.312l-0.944,3.325l-1.01,4.642l-0.747,5.181l-0.933,2.923l-1.384,7.18l-1.073,3.992l-2.177,4.4l-1.054,2.704l-1.925,4.751l-3.788,7.05l-3.009,7.44l-0.851,3.434l-1.667,4.251l-1.214,6.134l-0.16,2.123l-0.337,7.07l0.076,17.85l1.988,16.894l-2.723,19.25l-1.048,9.469l-0.945,17.416l-1.586,8.151l-3.861,7.014l-1.384,8.252l-1.168,4.18l-2.298,5.329l-1.188,6.053l-1.521,4.246l-1.417,3.229l-2.52,6.411l-2.391,9.022l-0.378,2.58l-1.304,5.523l-0.744,8.573l-0.552,8.667l-0.24,5.489l0.38,3.526l0.555,4.951l-0.033,4.254l0.298,4.558l-0.12,4.476l-0.882,4.969l-0.167,3.45l0.594,5.281l0.56,4.24l0.433,4.208l0.453,5.18l-0.127,3.601l-0.611,4.974l-0.01,4.281l-0.445,4.436l0.425,4.518l-0.396,4.441l0.449,4.477l2.593,5.988l1.66,1.928l3.703,5.994l3.909,6.99l1.332,4.573l1.038,3.187l2.635,7.626l1.748,4.547l0.61,3.219l2.913,7.487l6.841,5.524l2.104,1.574l4.034,4.301l3.975,6.957l4.411,6.739l1.755,4.354l1.443,2.991l3.208,7.34l2.037,1.957l2.673,4.633l3.296,4.353l0.912,2.487l4.719,6.585l3.314,2.282l4.973,2.518l3.971,-0.274l6.986,-7.162l6.967,-5.461l6.792,-5.548l2.126,-7.882l2.764,-7.562l1.198,-8.345l5.431,-6.229l8.396,-4.746l2.838,-6.302l2.333,-9.001l1.561,-8.164l2.57,-7.659l2.772,-7.558l3.011,-7.439l1.458,-8.216l1.775,-3.321l3.632,-2.919l8.944,-4.472l11.926,-11.926l4.442,-6.723l1.521,-8.184l5.542,-6.173l3.402,-7.244l1.412,-9.65l0.616,-9.252l-0.868,-8.51l-1.16,-8.365l-1.447,-8.22l-0.744,-8.573l-1.532,-8.178l-1.065,-8.412l-0.695,-5.136l-0.547,-3.187l-0.462,-8.713l-2.051,-7.919l-0.945,-8.472l-1.986,-7.951l-1.622,-8.133l-2.026,-5.165l-2.767,-4.443l-1.007,-5.381l-2.792,-7.548l-1.671,-4.635l-5.063,-9.887l-2.566,-7.661l-0.522,-4.416l-0.297,-4.119l-1.418,-8.235l-2.552,-5.413l-0.933,-2.722l-2.123,-6.95l-3.057,-7.415l-2.831,-7.529l-4.473,-6.708l-2.332,-7.779l-2.566,-7.661l-2.584,-7.652l-2.525,-7.682l-2.811,-7.539l-2.176,-7.856l-2.39,-7.749l-2.346,-7.771l-2.63,-7.629l-3.262,-7.314l-2.537,-7.676l-3.773,-7.058l-3.889,-6.999l-4.428,-6.73l-3.816,-7.037l-4.187,-6.85l-2.541,-3.282l-3.415,-2.685l-3.929,-2.405l-4.635,-2.257l-0.63,3.995l-1.364,8.262l-2.316,4.876Z" style="fill:#ffd7d7;stroke:#000;stroke-width:5px;"/><clipPath id="_clip1"><path id="Hand-axe-front" d="M73.495,23.667l-4.363,9.673l-1.494,5.11l-0.578,2.798l-2.509,7.69l-1.588,8.15l-1.265,8.312l-0.944,3.325l-1.01,4.642l-0.747,5.181l-0.933,2.923l-1.384,7.18l-1.073,3.992l-2.177,4.4l-1.054,2.704l-1.925,4.751l-3.788,7.05l-3.009,7.44l-0.851,3.434l-1.667,4.251l-1.214,6.134l-0.16,2.123l-0.337,7.07l0.076,17.85l1.988,16.894l-2.723,19.25l-1.048,9.469l-0.945,17.416l-1.586,8.151l-3.861,7.014l-1.384,8.252l-1.168,4.18l-2.298,5.329l-1.188,6.053l-1.521,4.246l-1.417,3.229l-2.52,6.411l-2.391,9.022l-0.378,2.58l-1.304,5.523l-0.744,8.573l-0.552,8.667l-0.24,5.489l0.38,3.526l0.555,4.951l-0.033,4.254l0.298,4.558l-0.12,4.476l-0.882,4.969l-0.167,3.45l0.594,5.281l0.56,4.24l0.433,4.208l0.453,5.18l-0.127,3.601l-0.611,4.974l-0.01,4.281l-0.445,4.436l0.425,4.518l-0.396,4.441l0.449,4.477l2.593,5.988l1.66,1.928l3.703,5.994l3.909,6.99l1.332,4.573l1.038,3.187l2.635,7.626l1.748,4.547l0.61,3.219l2.913,7.487l6.841,5.524l2.104,1.574l4.034,4.301l3.975,6.957l4.411,6.739l1.755,4.354l1.443,2.991l3.208,7.34l2.037,1.957l2.673,4.633l3.296,4.353l0.912,2.487l4.719,6.585l3.314,2.282l4.973,2.518l3.971,-0.274l6.986,-7.162l6.967,-5.461l6.792,-5.548l2.126,-7.882l2.764,-7.562l1.198,-8.345l5.431,-6.229l8.396,-4.746l2.838,-6.302l2.333,-9.001l1.561,-8.164l2.57,-7.659l2.772,-7.558l3.011,-7.439l1.458,-8.216l1.775,-3.321l3.632,-2.919l8.944,-4.472l11.926,-11.926l4.442,-6.723l1.521,-8.184l5.542,-6.173l3.402,-7.244l1.412,-9.65l0.616,-9.252l-0.868,-8.51l-1.16,-8.365l-1.447,-8.22l-0.744,-8.573l-1.532,-8.178l-1.065,-8.412l-0.695,-5.136l-0.547,-3.187l-0.462,-8.713l-2.051,-7.919l-0.945,-8.472l-1.986,-7.951l-1.622,-8.133l-2.026,-5.165l-2.767,-4.443l-1.007,-5.381l-2.792,-7.548l-1.671,-4.635l-5.063,-9.887l-2.566,-7.661l-0.522,-4.416l-0.297,-4.119l-1.418,-8.235l-2.552,-5.413l-0.933,-2.722l-2.123,-6.95l-3.057,-7.415l-2.831,-7.529l-4.473,-6.708l-2.332,-7.779l-2.566,-7.661l-2.584,-7.652l-2.525,-7.682l-2.811,-7.539l-2.176,-7.856l-2.39,-7.749l-2.346,-7.771l-2.63,-7.629l-3.262,-7.314l-2.537,-7.676l-3.773,-7.058l-3.889,-6.999l-4.428,-6.73l-3.816,-7.037l-4.187,-6.85l-2.541,-3.282l-3.415,-2.685l-3.929,-2.405l-4.635,-2.257l-0.63,3.995l-1.364,8.262l-2.316,4.876Z"/></clipPath><g clip-path="url(#_clip1)"><path d="M77.865,5.504l1.581,14.105l-0.915,8.486l-1.908,7.99l0.561,5.537l-0.018,3.679l-0.955,5.751l-0.587,2.423l-0.348,6.989l-0.462,1.55l-2.334,7.777l-1.497,8.196l-0.994,3.009l3.506,7.191l3.127,7.381l3.086,7.401l-0.391,6.018l3.123,10.505l2.044,7.922l4.051,6.919l1.689,6.94l-0.878,8.505l-1.813,8.038l-1.323,8.283l-0.274,5.311l1.114,8.387l0.21,4.715l-0.014,4.131l0.455,5.034l0.003,3.682l1.466,5.997l0.621,9.255l-0.316,1.751l1.909,4.396l1.146,3.02l3.614,7.137l2.071,7.909l2.113,7.888l2.066,7.912l4.721,6.583l2.157,11.179l0,14.575l-1.292,9.591l-1.716,6.794l-0.104,8.892l0.006,8.947l-1.87,8.01l-1.286,8.301l1.466,9.677l1.133,9.511l1.33,9.609l1.906,1.38l4.637,6.626l3.797,7.046l3.125,7.382l-0.24,2.067l0.598,6.698l0.417,2.754l1.418,5.273l-1.453,3.653l-2.927,6.027l-4.041,8.378l-4.434,6.727l-3.823,7.033l-0.148,3.428l-0.073,5.406l-0.744,29.779l-1.762,4.745l-2.864,7.512l-1.708,8.091l-4.053,6.917l-3.183,9.064" style="fill:none;stroke:#000;stroke-width:10px;"/></g></g><g id="Hand-axe-front1" serif:id="Hand-axe-front"><path id="Rock-Outline" d="M325.74,100.478l5.907,-5.991l5.764,-6.062l5.12,-6.384l5.348,-6.27l7.237,-14.27l4.041,-6.924l4.181,-6.854l13.13,-20.267l7.188,-7.216l6.197,-3.981l8.305,-4.792l3.387,-1.134l3.678,-1.215l5.266,-0.429l8.944,4.472l6.207,5.841l4.486,6.701l1.097,2.297l1.249,5.475l1.776,8.056l4.29,6.799l7.07,5.409l4.75,1.717l13.797,22.472l16.348,20.974l3.911,6.988l4.544,6.673l6.74,10.285l2.53,2.968l4.811,6.539l4.426,5.32l4.202,8.255l1.618,8.135l0.45,8.719l1.463,8.213l1.292,8.298l1.33,8.279l1.956,7.967l1.706,2.808l2.199,4.183l5.452,6.219l5.028,6.43l5.246,6.321l3.857,7.016l1.389,8.25l3.768,7.06l1.849,8.02l0.735,8.577l0.591,8.648l0.668,7.277l-2.464,16.657l-3.342,16.217l-10.749,21.459l-0.992,8.448l-3.578,7.155l-4.374,6.757l-7.261,5.314l-10.628,12.575l-3.677,7.106l-2.34,7.774l-5.982,5.953l-3.684,7.103l-4.018,6.934l-3.65,7.12l-3.482,7.203l-3.691,7.099l-3.919,6.985l-3.931,6.979l-5.35,6.269l-5.541,6.174l-13.807,10.985l-6.991,5.449l-10.435,6.858l-2.727,4.449l-4.082,6.903l-4.618,6.635l-6.462,5.714l-3.394,7.247l-2.038,2.332l-3.512,1.042l-5.676,-0.043l-12.213,-6.106l-8.944,-5.276l-4.767,-5.757l-5.276,-6.306l-4.371,-6.759l-4.778,-6.555l-4.477,-6.706l-6.033,-5.928l-6.545,-5.672l-5.894,-5.997l-4.574,-6.657l-4.288,-6.8l-4.343,-6.773l-1.502,-8.193l-1.851,-8.019l-1.929,-7.98l-3.543,-7.173l-5.498,-6.195l-6.005,-5.942l-8.775,-4.557l-6.194,-5.847l-4.13,-3.265l-0.307,-3.461l-3.307,-7.29l-5.536,-6.177l-4.507,-6.691l-2.613,-7.637l-2.616,-7.636l-1.739,-7.198l-0.877,-4.937l0,-4.446l1.655,-8.116l2.293,-7.798l2.968,-7.46l0.96,-8.464l1.482,-8.204l2.149,-7.87l2.457,-7.715l2.682,-7.604l2.906,-7.491l4.145,-6.872l5.115,-8.366l0.861,-15.478l-0.274,-11.649l1.301,-5.726l2.262,-7.814l0.75,-8.569l2.065,-7.912l3.525,-7.182l2.104,-7.892l1.596,-8.146l1.719,-8.085l8.944,-13.416l13.638,-28.959Z" style="fill:#ffd7d7;stroke:#000;stroke-width:6px;"/><path d="M310.111,208.939l0,-6.953l0,-1.991l-6.953,2.871l-3.131,1.031l-5.813,0.424l-3.873,-1.394l-1.207,-4.476" style="fill:none;stroke:#000;stroke-width:3px;"/><path d="M389.831,16.274l0.01,8.924l1.506,9.697l1.254,5.808l1.491,7.432l1.975,7.009l1.246,4.854l1.676,5.551l0.78,2.165l1.776,3.863l1.742,3.323l3.583,7.153l0.796,5.723l0.095,2.775l2.728,7.581l1.279,3.024l5.07,2.745l2.595,4.333l0.724,2.952l2.246,7.821l0.072,3.002l-0.004,0.002l-2.496,7.696l-2.749,7.57l-2.069,7.91l-3.836,7.026l-9.776,8.919l-3.512,2.326l-6.94,5.474l-7.437,5.989l-6.627,4.868l-5.602,6.143l-4.088,6.9l-5.258,6.315l-6.845,5.522l-8.004,4.942l-8.297,1.931l-8.944,1.208l-5.15,0.305l-12.739,-3.12l-1.991,-0.996l0,-8.944l-6.953,2.873l-3.13,1.03l-5.814,0.424l-3.873,-1.395l-1.204,-4.474l2.262,-7.814l0.75,-8.569l2.065,-7.912l3.525,-7.182l2.104,-7.892l1.596,-8.146l1.719,-8.085l8.944,-13.416l3.805,-7.042l3.979,-6.955l2.554,-7.667l3.3,-7.295l5.907,-5.991l5.764,-6.062l5.12,-6.384l5.348,-6.27l7.237,-14.27l4.041,-6.924l4.181,-6.854l13.13,-20.267l7.188,-7.216l6.175,-3.966Z" style="fill:none;stroke:#000;stroke-width:3px;"/><path d="M389.831,16.274l0.022,-0.015l8.305,-4.792l3.387,-1.134l3.678,-1.215l5.266,-0.429l8.944,4.472l6.207,5.841l4.486,6.701l1.097,2.297l1.249,5.475l1.776,8.056l4.29,6.799l7.07,5.409l4.75,1.717l13.797,22.472l5.354,6.869l-5.828,4.154l-6.825,5.531l-5.569,6.16l-3.571,7.159l-5.213,6.338l-5.181,0.42l-6.34,2.763l-8.507,4.687l-0.072,-3.002l-2.246,-7.821l-0.724,-2.952l-2.595,-4.333l-5.07,-2.745l-1.279,-3.024l-2.728,-7.581l-0.095,-2.775l-0.796,-5.723l-3.583,-7.153l-1.742,-3.323l-1.776,-3.863l-0.78,-2.165l-1.676,-5.551l-1.246,-4.854l-1.975,-7.009l-1.491,-7.432l-1.254,-5.808l-1.506,-9.697l-0.01,-8.924Z" style="fill:none;stroke:#000;stroke-width:3px;"/><path d="M552.264,275.35l-2.464,16.657l-3.342,16.217l-10.749,21.459l-8.944,-6.673l-4.472,-4.508l-3.372,-7.258l-2.738,-7.576l-1.224,-7.206l1.299,-1.775l0.62,-1.253l0.942,-1.959l3.871,-4.578l7.008,-5.441l9.469,-4.21l6.485,-2.401l7.611,0.505Z" style="fill:none;stroke:#000;stroke-width:3px;"/><path d="M381.048,227.996l24.134,0.24l8.446,-1.902l5.805,-2.862l8.945,-2.297l4.843,-0.245l4.101,-2.051l0.854,3.108" style="fill:none;stroke:#000;stroke-width:1px;"/><path d="M374.712,151.797l-8.944,-2.147l-2.559,-1.045l-6.386,-4.186l-1.017,-1.057l-2.615,-7.637l0.79,-9.34l2.842,-3.225l4.578,-4.851l4.367,-3.985l1.883,-1.834l7.061,-2.638l8.944,-1.045l8.945,-1.731l8.944,-2.443" style="fill:none;stroke:#000;stroke-width:1px;"/><path d="M325.807,100.512l4.184,2.092l6.537,5.675l2.407,2.476l3.99,3.27l4.954,6.467l2.603,7.643l1.731,3.468l0.978,4.122" style="fill:none;stroke:#000;stroke-width:3px;"/><path d="M325.74,100.478l5.907,-5.991l5.764,-6.062l5.12,-6.384l5.348,-6.27l7.237,-14.27l4.041,-6.924l4.181,-6.854l13.13,-20.267l7.188,-7.216l6.175,-3.966l0.01,8.924l1.506,9.697l1.254,5.808l1.491,7.432l1.975,7.009l1.246,4.854l1.676,5.551l0.78,2.165l1.776,3.863l1.742,3.323l3.583,7.153l0.796,5.723l0.095,2.775l2.728,7.581l1.279,3.024l0.114,0.062l-1.393,1.162l-8.944,2.253l-8.944,2.443l-8.945,1.731l-8.944,1.045l-7.061,2.638l-1.883,1.834l-4.367,3.985l-4.578,4.851l-2.842,3.225l-0.79,9.34l-0.978,-4.122l-1.731,-3.468l-2.603,-7.643l-4.954,-6.467l-3.99,-3.27l-2.407,-2.476l-6.537,-5.675l-4.251,-2.126Z" style="fill:none;stroke:#000;stroke-width:3px;"/><path d="M480.503,98.902l3.911,6.988l4.544,6.673l6.74,10.285l2.53,2.968l4.811,6.539l4.426,5.32l4.202,8.255l1.618,8.135l0.45,8.719l1.463,8.213l1.292,8.298l1.33,8.279l1.956,7.967l1.706,2.808l2.199,4.183l5.452,6.219l4.368,5.586l-6.736,-0.205l-6.313,1.591l-2.632,3.338l-2.093,3.243l-1.216,2.702l-2.147,4.562l-0.531,3.135l-2.957,2.578l-0.802,1.086l-1.922,7.983l-0.816,3.132c0,0 -0.935,3.912 -1.159,4.825l-2.125,2.232l-2.12,1.844l-1.759,1.866l-7.185,3.94l-2.765,0.029l-6.18,-3.09l-3.758,-7.065l-5.186,-2.865l-4.88,-5.926l-13.009,-9.933l-12.805,-8.057l-4.229,-3.295l-0.854,-3.108c0,0 -0.538,-9.213 -0.538,-9.213l-0.641,-9.265l-0.663,-9.275l0.362,-7.284l0.141,-9.015l-0.952,-8.468l-1.824,-8.032l-0.164,-4.197l0.181,-4.756l0.691,-3.753l2.158,-7.865l1.83,-8.029l1.924,-7.982l1.357,-5.087l1.319,-2.519l5.213,-6.338l3.571,-7.159l5.569,-6.16l6.825,-5.531l5.828,-4.154l10.994,14.105Z" style="fill:none;stroke:#000;stroke-width:3px;"/><path d="M533.501,214.337l0.66,0.844l5.246,6.321l3.857,7.016l1.389,8.25l0,5.335l-4.848,1.185l-4.096,0.089l-2.728,-0.773l-6.216,-1.755l-4.551,-1.806l-4.394,-2.742l-3.131,-2.44l-2.856,-1.158l0.531,-3.135l2.147,-4.562l1.216,-2.702l2.093,-3.243l2.632,-3.338l6.313,-1.591l6.736,0.205Z" style="fill:none;stroke:#000;stroke-width:3px;"/><path d="M552.264,276.35l-7.611,-0.505l-6.485,2.401l-9.469,4.21l-7.008,5.441l-3.871,4.578l-0.942,1.959l-0.62,1.253l-1.299,1.775l-2.217,-0.017l-3.866,-0.881l-8.944,-1.658l-3.562,-1.781l-5.382,0.651l-7.716,1.744l-11.484,3.202l-9.21,4.339l-9.429,4.23l-6.883,2.653l-2.832,-4.678l-3.012,-7.438l-3.1,-12.423l-4.101,-4.918l0.209,-0.944l1.639,-8.125l3.533,-7.177l3.38,-2.97l0.293,-9.091l-0.579,-13.225l-1.321,-12.658l-2.199,-4.308l-0.854,-3.11l0.854,3.108l4.229,3.295l12.805,8.057l13.009,9.933l4.88,5.926l5.186,2.865l3.758,7.065l6.18,3.09l2.765,-0.029l7.185,-3.94l1.759,-1.866l2.12,-1.844l2.125,-2.232c0.224,-0.913 1.159,-4.825 1.159,-4.825l0.816,-3.132l1.922,-7.983l0.802,-1.086l2.957,-2.578l2.856,1.158l3.131,2.44l4.394,2.742l4.551,1.806l6.216,1.755l2.728,0.773l4.096,-0.089l4.848,-1.185l0,-5.335l-1.325,-7.865l1.325,7.865l3.768,7.06l1.849,8.02l0.735,8.577l0.591,8.648l0.668,7.277Z" style="fill:none;stroke:#000;stroke-width:3px;"/><path d="M534.717,339.131l-3.578,7.155l-4.374,6.757l-3.449,-7.22l-2.215,-4.556l0.967,-8.46l0.895,-4.696l-0.656,-8.594l4.458,4.493l8.944,6.673l-0.992,8.448Z" style="fill:none;stroke:#000;stroke-width:3px;"/><path d="M482.043,388.102l3.652,-10.872l1.159,-4.232l1.423,-3.422l3.686,-7.101l4.92,-6.484l4.405,-6.742l7.599,-5.144l8.933,-2.162l3.281,-0.676l2.215,4.556l3.449,7.22l-7.261,5.314l-10.628,12.575l-3.677,7.106l-1.951,6.483l-1.04,-1.311l-11.22,0.812l-5.135,2.231l-3.268,2.091l-0.542,0.347l0,-0.589Z" style="fill:none;stroke:#000;stroke-width:3px;"/><path d="M496.877,391.765l-3.684,7.103l-4.018,6.934l-3.65,7.12l-3.482,7.203l-3.691,7.099l-3.919,6.985l-3.931,6.979l-5.35,6.269l-0.041,0.045l-9.901,3.928l-8.944,0.106l5.307,-7.231l0.609,-3.333l3.028,-7.43l3.145,-7.373l3.217,-7.335l2.583,-7.653l3.66,-7.114l4.502,-6.693l5.689,-6.1l7.847,-5.021l5.135,-2.231l11.22,-0.812l1.04,1.311l-0.389,1.291l-5.982,5.953Z" style="fill:none;stroke:#000;stroke-width:3px;"/><path d="M459.611,453.631l-13.807,10.985l-6.991,5.449l-10.435,6.858l-2.727,4.449l-4.082,6.903l-4.618,6.635l-6.462,5.714l-2.159,-2.944l-0.753,-4.544l-0.561,-3.193l-2.78,-4.081l-2.691,-2.014l-2.084,-2.173l-0.074,-2.333l2.158,-4.546l5.369,-2.793l7.014,-5.437l7.11,-5.389l7.979,-4.955l8.305,-4.792l8.944,0.106l8.944,-0.106l9.901,-3.928l-5.5,6.129Z" style="fill:none;stroke:#000;stroke-width:3px;"/><path d="M437.322,451.43l-8.305,4.792l-7.979,4.955l-7.11,5.389l-7.014,5.437l-5.369,2.793l-0.106,0.223l-4.575,-3.36l-5.395,-6.247l-5.458,-6.215l-2.355,-2.455l-3.4,-3.611l-4.98,-6.455l-3.839,-7.025l1.173,-2.688l2.566,-7.661l4.084,-6.903l4.396,-6.746l3.672,-7.108l3.838,-7.025l3.594,-7.148l4.627,-6.631l4.05,-6.919l3.911,-6.989l3.883,-7.002l4.243,-6.823l3.497,-7.196l3.111,-7.389l4.071,-6.908l4.763,-6.563l4.548,-6.67l4.961,-6.464l5.841,-8.874l6.883,-2.653l9.429,-4.23l9.21,-4.339l11.484,-3.202l7.716,-1.744l5.382,-0.651l3.562,1.781l8.944,1.658l3.866,0.881l2.217,0.017l1.224,7.206l2.738,7.576l3.372,7.258l0.014,0.015l0.656,8.594l-0.895,4.696l-0.967,8.46l-3.281,0.676l-8.933,2.162l-7.599,5.144l-4.405,6.742l-4.92,6.484l-3.686,7.101l-1.423,3.422l-1.159,4.232l-3.652,10.872l0,0.589l-4.037,2.583l-5.689,6.1l-4.502,6.693l-3.66,7.114l-2.583,7.653l-3.217,7.335l-3.145,7.373l-3.028,7.43l-0.609,3.333l-5.307,7.231l-8.944,-0.106Z" style="fill:none;stroke:#000;stroke-width:3px;"/><path d="M319.179,428.89l-1.315,-7.173l-1.851,-8.019l-1.929,-7.98l-3.543,-7.173l-5.498,-6.195l-6.005,-5.942l-8.775,-4.557l-6.194,-5.847l-4.13,-3.265l-0.001,-0.006l5.331,-0.318l6.089,-0.055l14.472,4.38l6.272,-0.897l8.944,1.972l8.945,1.04l8.944,3.181l8.944,6.784l6.56,5.665l1.288,7.203l0.056,8.973l1.04,9.464l0,3.74l-5.564,0.352l-1.483,-0.568l-1.897,-1.441l-3.72,0.529l-5.224,0.598l-4.706,-0.857l-4.238,0.569l-1.715,0.693l-7.23,3.681l-1.867,1.469Z" style="fill:none;stroke:#000;stroke-width:3px;"/><path d="M356.323,424.806l0.5,-0.941l0,-3.74l4.205,6.842l2.529,5.469l2.211,3.288l5.669,3.927l-3.591,3.874l-2.078,3.115l-1.352,4.115l0.018,0.051l-0.07,-0.078l-4.076,-5.502l-2.64,-7.624l-2.749,-7.562l-0.185,-2.025l1.609,-3.209Z" style="fill:none;stroke:#000;stroke-width:1px;"/><path d="M347.727,422.229l0.152,0.059l-3.75,1.588l-0.38,2.786l1.836,8.035l2.294,7.789l2.889,7.5l1.132,3.455l2.144,3.851l2.779,4.592l1.42,2.253l2.641,2.74l3.975,2.896l0.017,-0.005l4.203,3.222l-3.311,5.273l-5.376,2.688l-0.063,0.093l-0.031,-0.046l-4.778,-6.555l-4.477,-6.706l-6.033,-5.928l-6.545,-5.672l-5.894,-5.997l-4.574,-6.657l-4.288,-6.8l-4.343,-6.773l-0.187,-1.02l1.867,-1.469l7.23,-3.681l1.715,-0.693l4.238,-0.569l4.706,0.857l5.224,-0.598l3.568,-0.508Z" style="fill:none;stroke:#000;stroke-width:1px;"/><path d="M347.727,422.229l0.152,-0.021l1.897,1.441l1.483,0.568l5.564,-0.352l-0.5,0.942l-1.609,3.208l0.185,2.025l2.749,7.562l2.64,7.624l4.076,5.502l0.07,0.078l1.334,3.857l-2.144,4.639l0.091,2.099l1.159,8.365l0.002,0.002l-0.017,0.005l-3.975,-2.896l-2.641,-2.74l-1.42,-2.253l-2.779,-4.592l-2.144,-3.851l-1.132,-3.455l-2.889,-7.5l-2.294,-7.789l-1.836,-8.035l0.38,-2.786l3.75,-1.588l-0.152,-0.059Z" style="fill:none;stroke:#000;stroke-width:1px;"/><path d="M312.102,375.843l8.944,1.972l8.945,1.04l8.944,3.181l8.944,6.784l6.56,5.665l1.288,7.203l0.056,8.973l1.04,9.464l0,3.74l-5.564,0.352l-1.483,-0.568l-1.897,-1.441l-3.72,0.529l-5.224,0.598l-4.706,-0.857l-4.238,0.569l-1.715,0.693l-7.23,3.681l-1.867,1.469l-1.315,-7.173l-1.851,-8.019l-1.929,-7.98l-3.543,-7.173l-5.498,-6.195l-1.885,-1.866l0,-6.136l5.515,-6.187l3.429,-2.304l0,-0.014Z" style="fill:none;stroke:#000;stroke-width:3px;"/><path d="M279.943,372.733l5.326,-0.318l6.089,-0.055l14.472,4.38l6.272,-0.897l0,0.014l-3.429,2.304l-5.515,6.187l0,6.136l-4.12,-4.076l-8.775,-4.557l-6.194,-5.847l-4.13,-3.265l0,-0.001l0.004,-0.005Z" style="fill:none;stroke:#000;stroke-width:3px;"/><path d="M305.829,338.362l4.943,7.714l1.33,29.767l-6.272,0.897l-14.472,-4.38l-6.089,0.055l-5.326,0.318l-0.004,0.006l-0.307,-3.461l-3.307,-7.29l-0.006,-0.008l0.036,-0.01l5.954,-1.779l3.742,-1.533l4.944,-2.478l3.305,-3.046l3.624,-4.651l3.317,-5.467l3.666,-3l0.922,-1.654Z" style="fill:none;stroke:#000;stroke-width:1px;"/><path d="M269.908,326.711l4.676,-1.371l17.902,-4.987l4.6,-4.523l6.072,-3.036l2.581,1.291l-0.292,6.509l0.002,-0.002l0.379,17.768l0.001,0.002l-0.922,1.654l-3.666,3l-3.317,5.467l-3.624,4.651l-3.305,3.046l-4.944,2.478l-3.742,1.533l-5.954,1.779l-0.036,0.01l-5.53,-6.169l-4.507,-6.691l-2.613,-7.637l-1.35,-3.941l0.02,-0.002l4.75,-4.424l2.819,-6.405Z" style="fill:none;stroke:#000;stroke-width:1px;"/><path d="M262.319,337.542l-1.266,-3.695l-1.739,-7.198l-0.877,-4.937l0,-4.446l2.772,2.358l3.677,3.362l5.004,3.73l0.018,-0.005l-2.819,6.405l-4.75,4.424l-0.02,0.002Z" style="fill:none;stroke:#000;stroke-width:3px;"/><path d="M316.585,320.532l1.226,-0.412l3.235,-1.337l2.762,-1.382l1.932,0.178l0.78,1.423l1.651,6.299l0.347,1.646l1.448,4.379l-0.894,3.37l-0.534,2.728l-3.096,2.788l-4.396,-0.585l-2.771,-1.386l0.282,-6.243l-0.526,-2.823l-0.735,-5.562l-0.711,-3.081l0,0Z" style="fill:none;stroke:#000;stroke-width:3px;"/><path d="M318.147,341.076l-0.528,5.781l-5.517,0.016l-1.327,-0.866l-0.036,0.017l-4.911,-7.664l-0.379,-17.768l6.653,-4.508l2.739,-0.187l1.211,3.344l0.533,1.291l0.711,3.081l0.735,5.562l0.526,2.823l-0.41,9.078Z" style="fill:none;stroke:#000;stroke-width:3px;"/><path d="M329.991,331.4l7.2,-1.59l1.744,-0.856l4.742,-0.642l4.202,-1.073l8.944,-0.933l8.945,-1.166l8.944,-2.12l8.944,-2.556l8.945,-3.004l8.944,-2.823l5.69,-3.47l8.819,-4.535l7.954,-4.967l4.37,-3.75l3.268,-10.32l1.784,-8.052l-0.209,0.944l4.101,4.918l3.1,12.423l3.012,7.438l2.832,4.678l-5.841,8.874l-4.961,6.464l-4.548,6.67l-4.763,6.563l-4.071,6.908l-3.111,7.389l-3.497,7.196l-4.243,6.823l-3.883,7.002l-3.911,6.989l-4.05,6.919l-4.627,6.631l-3.594,7.148l-3.838,7.025l-3.672,7.108l-4.396,6.746l-4.084,6.903l-2.566,7.661l-1.173,2.688l-5.669,-3.927l-2.211,-3.288l-2.529,-5.469l-4.205,-6.842l-1.04,-9.464l-0.056,-8.973l-1.288,-7.203l-6.56,-5.665l-8.944,-6.784l-8.944,-3.181l-8.945,-1.04l-8.944,-1.972l0,0.014l0,-0.014l-1.33,-29.767l-0.033,-0.052l0.036,-0.017l1.327,0.866l5.517,-0.016l0.528,-5.781l0.128,-2.835l2.771,1.386l4.396,0.585l3.096,-2.788l0.534,-2.728l0.894,-3.37l0.025,0.074Z" style="fill:none;stroke:#000;stroke-width:3px;"/><path d="M324.779,102.604l0.961,-2.126l5.907,-5.991l5.764,-6.062l5.12,-6.384l5.348,-6.27l7.237,-14.27l4.041,-6.924l4.181,-6.854l13.13,-20.267l7.188,-7.216l6.197,-3.981l8.305,-4.792l3.387,-1.134l3.678,-1.215l5.266,-0.429l8.944,4.472l6.207,5.841l4.486,6.701l1.097,2.297l1.249,5.475l1.776,8.056l4.29,6.799l7.07,5.409l4.75,1.717l13.797,22.472l5.354,6.869l-5.828,4.154l-6.825,5.531l-5.569,6.16l-3.571,7.159l-5.213,6.338l-1.319,2.519l-1.357,5.087l-1.924,7.982l-1.83,8.029l-2.158,7.865l-0.691,3.753l-0.181,4.756l0.164,4.197l1.824,8.032l0.952,8.468l-0.141,9.015l-0.362,7.284l0.663,9.275l0.641,9.265l0.538,9.213l0.854,3.11l2.199,4.308l1.321,12.658l0.579,13.225l-0.293,9.091l-3.38,2.97l-3.533,7.177l-1.639,8.125l-1.784,8.052l-3.268,10.32l-4.37,3.75l-7.954,4.967l-8.819,4.535l-5.69,3.47l-8.944,2.823l-8.945,3.004l-8.944,2.556l-8.944,2.12l-8.945,1.166l-8.944,0.933l-4.202,1.073l-4.742,0.642l-1.744,0.856l-7.2,1.59l-1.473,-4.453l-0.347,-1.646l-1.651,-6.299l-0.78,-1.423l-1.932,-0.178l-2.762,1.382l-3.235,1.337l-1.226,0.412l-0.533,-1.291l-1.211,-3.344l-2.739,0.187l-6.655,4.51l0.292,-6.509l-2.581,-1.291l-6.072,3.036l-4.6,4.523l-17.902,4.987l-4.694,1.376l-5.004,-3.73l-3.677,-3.362l-2.772,-2.358l1.655,-8.116l2.293,-7.798l2.968,-7.46l0.96,-8.464l1.482,-8.204l2.149,-7.87l2.457,-7.715l2.682,-7.604l2.906,-7.491l4.145,-6.872l4.214,-6.892l0.236,0.173l7.63,-5.13l8.944,-4.472l6.482,1.335l0.415,-4.783l-0.203,-2.149l0.259,-8.815l1.991,0.996l12.739,3.12l5.15,-0.305l8.944,-1.208l8.297,-1.931l8.004,-4.942l6.845,-5.522l5.258,-6.315l4.088,-6.9l5.602,-6.143l6.627,-4.868l7.437,-5.989l6.94,-5.474l3.512,-2.326l9.776,-8.919l3.836,-7.026l2.069,-7.91l2.749,-7.57l2.496,-7.696l0.004,-0.002l-0.072,-3.002l-2.246,-7.821l-0.724,-2.952l-2.595,-4.333l-4.956,-2.683l-1.393,1.162l-8.944,2.253l-8.944,2.443l-8.945,1.731l-8.944,1.045l-7.061,2.638l-1.883,1.834l-4.367,3.985l-4.578,4.851l-2.842,3.225l-0.79,9.34l-0.978,-4.122l-1.731,-3.468l-2.603,-7.643l-4.954,-6.467l-3.99,-3.27l-2.407,-2.476l-6.537,-5.675l-4.251,-2.126l-0.961,2.126Z" style="fill:none;stroke:#000;stroke-width:3px;"/><path d="M309.852,217.754l0.203,2.149l-0.415,4.783l-6.482,-1.335l-8.944,4.472l-7.63,5.13l-0.236,-0.173l0.901,-1.474l0.861,-15.478l-0.274,-11.649l1.301,-5.726l1.204,4.474l3.873,1.395l5.814,-0.424l3.13,-1.03l6.953,-2.873l0,8.944l-0.259,8.815Z" style="fill:none;stroke:#000;stroke-width:3px;"/><path d="M258.437,317.266l1.655,-8.116l2.293,-7.798l2.968,-7.46l0.96,-8.464l1.482,-8.204l2.149,-7.87l2.457,-7.715l2.682,-7.604l2.906,-7.491l4.145,-6.872l5.115,-8.366l0.861,-15.478l-0.274,-11.649l1.301,-5.726l2.262,-7.814l0.75,-8.569l2.065,-7.912l3.525,-7.182l2.104,-7.892l1.596,-8.146l1.719,-8.085l8.944,-13.416l3.805,-7.042l3.979,-6.955l2.554,-7.667l3.3,-7.295l5.907,-5.991l5.764,-6.062l5.12,-6.384l5.348,-6.27l7.237,-14.27l4.041,-6.924l4.181,-6.854l13.13,-20.267l7.188,-7.216l6.197,-3.981l8.305,-4.792l3.387,-1.134l3.678,-1.215l5.266,-0.429l8.944,4.472l6.207,5.841l4.486,6.701l1.097,2.297l1.249,5.475l1.776,8.056l4.29,6.799l7.07,5.409l4.75,1.717l13.797,22.472l5.354,6.869l-5.828,4.154l-6.825,5.531l-5.569,6.16l-3.571,7.159l-5.213,6.338l-1.319,2.519l-1.357,5.087l-1.924,7.982l-1.83,8.029l-2.158,7.865l-0.691,3.753l-0.181,4.756l0.164,4.197l1.824,8.032l0.952,8.468l-0.141,9.015l-0.362,7.284l0.663,9.275l0.641,9.265l0.538,9.213l0.854,3.11l2.199,4.308l1.321,12.658l0.579,13.225l-0.293,9.091l-3.38,2.97l-3.533,7.177l-1.639,8.125l-1.784,8.052l-3.268,10.32l-4.37,3.75l-7.954,4.967l-8.819,4.535l-5.69,3.47l-8.944,2.823l-8.945,3.004l-8.944,2.556l-8.944,2.12l-8.945,1.166l-8.944,0.933l-4.202,1.073l-4.742,0.642l-1.744,0.856l-7.2,1.59l-1.473,-4.453l-0.347,-1.646l-1.651,-6.299l-0.78,-1.423l-1.932,-0.178l-2.762,1.382l-3.235,1.337l-1.226,0.412l-0.533,-1.291l-1.211,-3.344l-2.739,0.187l-6.655,4.51l0.292,-6.509l-2.581,-1.291l-6.072,3.036l-4.6,4.523l-17.902,4.987l-4.694,1.376l-5.004,-3.73l-3.677,-3.362l-2.772,-2.358Z" style="fill:none;stroke:#000;stroke-width:3px;"/><path d="M325.74,100.478l4.251,2.126l6.537,5.675l2.407,2.476l3.99,3.27l4.954,6.467l2.603,7.643l1.731,3.468l0.978,4.122l0.79,-9.34l2.842,-3.225l4.578,-4.851l4.367,-3.985l1.883,-1.834l7.061,-2.638l8.944,-1.045l8.945,-1.731l8.944,-2.443l8.944,-2.253l1.393,-1.162l4.956,2.683l2.595,4.333l0.724,2.952l2.246,7.821l0.072,3.002l-0.004,0.002l-2.496,7.696l-2.749,7.57l-2.069,7.91l-3.836,7.026l-9.776,8.919l-3.512,2.326l-6.94,5.474l-7.437,5.989l-6.627,4.868l-5.602,6.143l-4.088,6.9l-5.258,6.315l-6.845,5.522l-8.004,4.942l-8.297,1.931l-8.944,1.208l-5.15,0.305l-12.739,-3.12l-1.991,-0.996l0,-8.944l-6.953,2.873l-3.13,1.03l-5.814,0.424l-3.873,-1.395l-1.204,-4.474l2.262,-7.814l0.75,-8.569l2.065,-7.912l3.525,-7.182l2.104,-7.892l1.596,-8.146l1.719,-8.085l8.944,-13.416l3.805,-7.042l3.979,-6.955l2.554,-7.667l3.3,-7.295Z" style="fill:none;stroke:#000;stroke-width:3px;"/></g><g id="ABSTRACT-DOG"></g></svg>