<?xml version="1.0" encoding="UTF-8" standalone="no"?><!DOCTYPE svg PUBLIC "-//W3C//DTD SVG 1.1//EN" "http://www.w3.org/Graphics/SVG/1.1/DTD/svg11.dtd"><svg width="100%" height="100%" viewBox="0 0 399 523" version="1.1" xmlns="http://www.w3.org/2000/svg" xmlns:xlink="http://www.w3.org/1999/xlink" xml:space="preserve" xmlns:serif="http://www.serif.com/" style="fill-rule:evenodd;clip-rule:evenodd;"><g id="Phone-Hammer" serif:id="Phone+Hammer"><g id="Phone-front"><path d="M383.904,50.071c0,-14.573 -11.832,-26.405 -26.405,-26.405l-217.19,0c-14.573,0 -26.405,11.832 -26.405,26.405l0,418.449c0,14.574 11.832,26.405 26.405,26.405l217.19,0c14.573,0 26.405,-11.831 26.405,-26.405l0,-418.449Z" style="fill:#ffd7d7;stroke:#000;stroke-width:4.97px;"/><path d="M113.904,76.03l270,0" style="fill:none;fill-rule:nonzero;stroke:#000;stroke-width:3px;"/><path d="M113.904,434.021l270,0" style="fill:none;fill-rule:nonzero;stroke:#000;stroke-width:3px;"/><circle id="btn" cx="248.904" cy="462.529" r="15" style="fill:none;stroke:#000;stroke-width:1px;stroke-linecap:round;stroke-miterlimit:1;"/><path id="mikro" d="M218.235,52.035l65,0" style="fill:none;stroke:#000;stroke-width:1px;stroke-linecap:round;stroke-miterlimit:1;"/></g><g id="Hammer"><path d="M195.48,241.797l0,192.302" style="fill:none;stroke:#000;stroke-width:3px;stroke-linecap:round;stroke-miterlimit:1;"/><path d="M267.034,188.132l44.721,58.137l-44.721,22.361l-44.721,-58.138l44.721,-22.36Z" style="fill:none;stroke:#000;stroke-width:3px;stroke-linecap:round;stroke-miterlimit:1;"/><path d="M132.87,165.771l89.443,44.721l44.721,-22.36l-89.443,-44.722l-44.721,22.361Z" style="fill:none;stroke:#000;stroke-width:3px;stroke-linecap:round;stroke-miterlimit:1;"/><path d="M132.87,165.771l0,44.721l134.164,67.082l0,-8.944l-44.721,-58.138" style="fill:none;stroke:#000;stroke-width:3px;stroke-linecap:round;stroke-miterlimit:1;"/><path d="M267.034,268.63l44.721,-22.361l0,8.945l-44.721,22.36l0,-8.944Z" style="fill:none;stroke:#000;stroke-width:3px;stroke-linecap:round;stroke-miterlimit:1;"/><path d="M199.422,177.216c-2.441,1.22 -3.982,3.715 -3.982,6.443c0,2.729 1.541,5.223 3.982,6.444c5.714,2.857 12.168,6.084 16.763,8.381c3.857,1.929 8.398,1.929 12.255,0c2.327,-1.163 5.073,-2.536 7.792,-3.896c2.446,-1.222 3.99,-3.722 3.99,-6.456c0,-2.735 -1.544,-5.234 -3.99,-6.457c-5.322,-2.661 -11.282,-5.641 -15.782,-7.891c-4.458,-2.229 -9.705,-2.229 -14.163,0c-2.114,1.057 -4.501,2.25 -6.865,3.432Z" style="fill:none;stroke:#000;stroke-width:3px;stroke-linecap:round;stroke-miterlimit:1;"/><path d="M240.201,264.158l0,106.27" style="fill:none;stroke:#000;stroke-width:3px;stroke-linecap:round;stroke-miterlimit:1;"/><path d="M240.201,412.918l0,21.181" style="fill:none;stroke:#000;stroke-width:3px;stroke-linecap:round;stroke-miterlimit:1;"/></g><g id="AddToCart"><rect x="217.84" y="370.433" width="110.284" height="42.485" style="fill:none;stroke:#000;stroke-width:3px;stroke-linecap:round;stroke-miterlimit:1;"/><g><path d="M231.66,396.485l0.809,-2.487l3.937,0l0.809,2.487l2.472,0l-3.761,-10.909l-2.972,0l-3.766,10.909l2.472,0Zm1.395,-4.288l1.343,-4.128l0.085,0l1.342,4.128l-2.77,0Z" style="fill-rule:nonzero;"/><path d="M243.586,396.618c1.321,0 2.008,-0.761 2.323,-1.443l0.095,0l0,1.31l2.238,0l0,-10.909l-2.264,0l0,4.102l-0.069,0c-0.304,-0.666 -0.959,-1.481 -2.328,-1.481c-1.795,0 -3.313,1.396 -3.313,4.208c0,2.738 1.454,4.213 3.318,4.213Zm0.719,-1.805c-1.113,0 -1.72,-0.991 -1.72,-2.419c0,-1.417 0.596,-2.391 1.72,-2.391c1.103,0 1.721,0.932 1.721,2.391c0,1.46 -0.629,2.419 -1.721,2.419Z" style="fill-rule:nonzero;"/><path d="M253.116,396.618c1.321,0 2.008,-0.761 2.322,-1.443l0.096,0l0,1.31l2.237,0l0,-10.909l-2.264,0l0,4.102l-0.069,0c-0.304,-0.666 -0.959,-1.481 -2.328,-1.481c-1.795,0 -3.313,1.396 -3.313,4.208c0,2.738 1.454,4.213 3.319,4.213Zm0.719,-1.805c-1.114,0 -1.721,-0.991 -1.721,-2.419c0,-1.417 0.597,-2.391 1.721,-2.391c1.102,0 1.72,0.932 1.72,2.391c0,1.46 -0.628,2.419 -1.72,2.419Z" style="fill-rule:nonzero;"/><path d="M267.46,388.303l-1.539,0l0,-1.96l-2.269,0l0,1.96l-1.119,0l0,1.705l1.119,0l0,4.261c-0.011,1.604 1.081,2.397 2.727,2.328c0.586,-0.021 1.001,-0.138 1.231,-0.213l-0.357,-1.688c-0.112,0.021 -0.352,0.074 -0.565,0.074c-0.453,0 -0.767,-0.17 -0.767,-0.799l0,-3.963l1.539,0l0,-1.705Z" style="fill-rule:nonzero;"/><path d="M272.547,396.645c2.483,0 4.027,-1.699 4.027,-4.219c0,-2.535 -1.544,-4.229 -4.027,-4.229c-2.482,0 -4.027,1.694 -4.027,4.229c0,2.52 1.545,4.219 4.027,4.219Zm0.011,-1.758c-1.145,0 -1.731,-1.049 -1.731,-2.477c0,-1.427 0.586,-2.482 1.731,-2.482c1.124,0 1.71,1.055 1.71,2.482c0,1.428 -0.586,2.477 -1.71,2.477Z" style="fill-rule:nonzero;"/><path d="M285.23,396.645c2.179,0 3.548,-1.278 3.654,-3.159l-2.141,0c-0.133,0.874 -0.708,1.364 -1.486,1.364c-1.06,0 -1.747,-0.89 -1.747,-2.456c0,-1.544 0.692,-2.429 1.747,-2.429c0.831,0 1.364,0.549 1.486,1.364l2.141,0c-0.096,-1.891 -1.528,-3.132 -3.664,-3.132c-2.483,0 -4.017,1.72 -4.017,4.229c0,2.488 1.508,4.219 4.027,4.219Z" style="fill-rule:nonzero;"/><path d="M292.677,396.64c1.209,0 1.992,-0.528 2.392,-1.289l0.064,0l0,1.134l2.152,0l0,-5.518c0,-1.95 -1.652,-2.77 -3.473,-2.77c-1.961,0 -3.25,0.937 -3.564,2.429l2.099,0.17c0.154,-0.543 0.639,-0.942 1.454,-0.942c0.772,0 1.214,0.388 1.214,1.06l0,0.032c0,0.527 -0.559,0.596 -1.981,0.735c-1.619,0.149 -3.074,0.692 -3.074,2.519c0,1.619 1.156,2.44 2.717,2.44Zm0.65,-1.566c-0.698,0 -1.199,-0.325 -1.199,-0.948c0,-0.64 0.528,-0.954 1.327,-1.066c0.495,-0.069 1.305,-0.186 1.576,-0.367l0,0.868c0,0.858 -0.708,1.513 -1.704,1.513Z" style="fill-rule:nonzero;"/><path d="M299.048,396.485l2.269,0l0,-4.629c0,-1.006 0.735,-1.699 1.736,-1.699c0.315,0 0.746,0.053 0.959,0.123l0,-2.014c-0.202,-0.048 -0.485,-0.08 -0.714,-0.08c-0.916,0 -1.667,0.533 -1.965,1.545l-0.085,0l0,-1.428l-2.2,0l0,8.182Z" style="fill-rule:nonzero;"/><path d="M309.941,388.303l-1.54,0l0,-1.96l-2.269,0l0,1.96l-1.118,0l0,1.705l1.118,0l0,4.261c-0.01,1.604 1.082,2.397 2.728,2.328c0.585,-0.021 1.001,-0.138 1.23,-0.213l-0.357,-1.688c-0.112,0.021 -0.351,0.074 -0.565,0.074c-0.452,0 -0.767,-0.17 -0.767,-0.799l0,-3.963l1.54,0l0,-1.705Z" style="fill-rule:nonzero;"/></g></g></g><g id="Phone-side"><path d="M46.723,38.592c0,-8.555 -6.946,-15.5 -15.5,-15.5c-8.555,0 -15.5,6.945 -15.5,15.5l0,440c0,8.554 6.945,15.5 15.5,15.5c8.554,0 15.5,-6.946 15.5,-15.5l0,-440Z" style="fill:#ffd7d7;stroke:#000;stroke-width:4px;"/><path id="btn1" serif:id="btn" d="M31.223,49.092l0,50" style="fill:none;fill-rule:nonzero;stroke:#000;stroke-width:1px;"/><path id="btn2" serif:id="btn" d="M31.223,109.092l0,50" style="fill:none;fill-rule:nonzero;stroke:#000;stroke-width:1px;"/></g><g id="Hand-axe-side"></g><g id="Hand-axe-front"></g><g id="ABSTRACT-DOG"></g></svg>