<svg width="1024" height="1102" viewBox="0 0 1024 1102" fill="none" xmlns="http://www.w3.org/2000/svg">
<path d="M388.898 649.596L375.488 626.401L372.319 598.136L360.568 566.29L358.534 535.748L351.203 510.023L362.828 480.795L364.321 459.85L382.31 432.434L401.607 403.495L438.352 380.396L477.014 367.358L533.806 369.013L568.324 386.613L588.397 404.511L597.946 419.256L610.831 424.921L632.622 454.43L652.437 487.633L647.075 509.191L652.437 560.66L640.336 586.438L626.935 628.091L602.325 650.305L578.715 676.661L549.026 687.361L533.806 685.164L518.829 699.795L489.081 694.48L480.892 701.52L462.945 693.526L444.757 696.52L426.343 681.722L402.775 668.868" stroke="#252525" stroke-width="0.749577" stroke-miterlimit="1.5" stroke-linejoin="round"/>
<path d="M375.987 665.484L393.266 674.161L407.852 693.258L428.601 702.794L448.616 718.511L518.493 723.099L532.904 714.948L556.021 710.035L594.35 674.608L621.153 670.431L651.534 631.186L660.516 580.409L668.155 535.586L662.226 477.48L646.297 443.935L644.679 425.591L613.281 403.254L600.988 379.674L564.786 375.891L532.904 351.531L508.786 348.379L474.777 344.78L428.96 371.907L396.327 375.891L374.369 404.769L367.847 430.433L345.339 459.74L342.245 489.695L334.822 508.74L337.391 561.89L350 594.804L354.412 624.487L365.854 641.571" stroke="#252525" stroke-width="0.749577" stroke-miterlimit="1.5" stroke-linejoin="round"/>
<path d="M725.916 379.831L722.488 370.138L715.708 368.518L708.128 336.041L666.972 311.086L641.619 284.923L601.806 273.084L566.922 262.139L534.956 261.176L508.653 249.898L476.462 258.68L432.346 261.395L383.843 284.923L347.224 301.48L315.108 339.5L289.322 368.693L280.432 408.192L268.323 434.951L264.045 462.507L248.809 495.211L251.177 513.424L252.486 521.217L249.568 597.115L261.018 634.898L280.432 688.083L295.844 704.877L319.261 737.503L336.407 751.093L364.395 774.436L394.718 797.141L428.31 811.423L445.464 821.483" stroke="#252525" stroke-width="0.749577" stroke-miterlimit="1.5" stroke-linejoin="round"/>
<path d="M526.941 284.841L500.588 292.572L475.253 289.534L455.271 299.227L438.734 297.852L411.104 309.402L393.099 307.685L378.013 330.408L358.298 336.029L341.936 349.041L332.029 366.124L320.403 379.749L307.944 419.834L293.625 466.312L290.823 486.951L282.133 517.326L286.736 549.907L281.574 593.662L293.617 641.05L324.557 670.515L332.029 701.267H353.687L372.442 729.689L411.104 761.492L439.618 781.211L458.423 790.974L479.681 795.115L538.166 803.224L569.773 789.433L590.539 791.77L605.483 767.42L644.796 772.008L657.414 744.785L677.079 701.267L700.221 682.66L715.441 641.05L733.413 595.615L727.091 566.028L738.016 537.447L733.905 502.44L728.067 480.559L730.127 461.531L718.585 449.448L718.109 432.172L704.649 417.383L701.305 397.664L688.02 379.749L673.026 342.982L651.067 333.901L631.294 316.31L608.077 309.901L582.533 295.208L560.8 295.777L542.261 287.66" stroke="#252525" stroke-width="0.749577" stroke-miterlimit="1.5" stroke-linejoin="round"/>
<path d="M377.778 367.358L365.553 379.731" stroke="#252525" stroke-width="0.749577" stroke-miterlimit="1.5" stroke-linejoin="round"/>
<path d="M388.074 359.632L407.614 342.785L444.892 326.656L465.632 325.422L502.218 310.913L534.984 311.823L572.946 322.077L594.37 336.025L614.644 346.436L633.024 368.493L650.579 374.859L678.792 421.249L696.822 474.408L708.339 519.021L700.508 560.604L700.308 593.632L683.946 641.922L671.662 674.338L655.408 689.906L632.832 720.824" stroke="#252525" stroke-width="0.749577" stroke-miterlimit="1.5" stroke-linejoin="round"/>
<path d="M619.438 735.867L597.939 747.881L561.386 752.478L537.418 761.453L521.49 755.56L502.768 758.835" stroke="#252525" stroke-width="0.749577" stroke-miterlimit="1.5" stroke-linejoin="round"/>
<path d="M488.89 761.426L459.102 748.634L432.29 735.841L402.859 711.998L387.706 700.291L359.302 683.496L346.184 659.741L330.73 640.985" stroke="#252525" stroke-width="0.749577" stroke-miterlimit="1.5" stroke-linejoin="round"/>
<path d="M324.82 629.725L317.372 615.164L317.981 601.495L310.042 593.072L315.521 573.843L308.207 549.256L314.287 516.849L312.394 502.559" stroke="#252525" stroke-width="0.749577" stroke-miterlimit="1.5" stroke-linejoin="round"/>
<path d="M316.396 487.002L324.703 475.444L332.909 435.262L350.038 413.59" stroke="#252525" stroke-width="0.749577" stroke-miterlimit="1.5" stroke-linejoin="round"/>
<path d="M467.945 821.342L490.554 827.717L509.968 829.109" stroke="#252525" stroke-width="0.749577" stroke-miterlimit="1.5" stroke-linejoin="round"/>
<path d="M533.49 829.248H556.716L574.638 821.481L603.843 825.369L627.16 809.669L651.053 803.304L686.938 755.924L708.847 730.286L730.388 686.461L762.403 654.878L766.665 594.259L770.76 535.689L757.141 476.234L749.252 408.654L730.388 386.711" stroke="#252525" stroke-width="0.749577" stroke-miterlimit="1.5" stroke-linejoin="round"/>
<path d="M451.559 375.959L472.391 381.869L489.921 382.351L496.309 386.677L512.254 391.23L537.556 392.552L557.763 395.818L576.427 414.18L596.142 431.245L613.838 453.687L623.054 486.558L636.322 518.536L631.668 542.764L630.968 575.915L614.647 607.945L600.879 623.023L591.705 637.926L579.021 643.784L565.936 656.016" stroke="#252525" stroke-width="0.749577" stroke-miterlimit="1.5" stroke-linejoin="round"/>
<path d="M550.757 661.95L539.399 667.405L529.383 674.148" stroke="#252525" stroke-width="0.749577" stroke-miterlimit="1.5" stroke-linejoin="round"/>
<path d="M522.045 677.628L497.643 674.274H475.694L455.895 668.18L444.587 662.077H436.573L427.457 652.147L418.292 651.631L407.467 637.052L395.809 628.094L388.828 620.652L389.312 613.936L382.299 607.911L382.474 598.533L375.627 588.7L373.767 572.746L365.553 552.669L367.963 534.464L367.863 500L373.667 485.377L382.49 475.658L387.911 457.471L401.555 441.903L409.26 425.59L419.668 420.634L431.802 402.334L446.755 397.474L456.596 387.501L469.047 386.94L471.666 382.142" stroke="#252525" stroke-width="0.749577" stroke-miterlimit="1.5" stroke-linejoin="round"/>
<path d="M537.306 408.214L543.936 415.683L557.396 415.062L576.71 436.97L586.651 456.321L604.915 472.222L608.434 498.464L620.202 519.637L615.665 546.098L605.557 572.252L600.545 599.528L589.829 605.719L583.866 627.977L556.195 638.44L530.709 656.005H506.992L486.285 662.1L471.448 650.174L451.559 644.727" stroke="#252525" stroke-width="0.749577" stroke-miterlimit="1.5" stroke-linejoin="round"/>
<path d="M440.152 639.956L427.476 637.242L413.49 613.407L400.489 598.96L395.86 576.106L389.005 571.886L387.462 543.192L383.977 511.328L393.2 495.882L391.891 481.942L407.869 467.442L414.191 449.579L429.302 439.624L440.903 426.235L454.463 419.336L465.354 408.242L481.108 403.645H501.106" stroke="#252525" stroke-width="0.749577" stroke-miterlimit="1.5" stroke-linejoin="round"/>
<path d="M515.214 403.645L509.844 404.8L504.807 403.645" stroke="#252525" stroke-width="0.749577" stroke-miterlimit="1.5" stroke-linejoin="round"/>
<path d="M474.088 634.803L480.084 635.425L483.595 639.891" stroke="#252525" stroke-width="0.749577" stroke-miterlimit="1.5" stroke-linejoin="round"/>
<path d="M466.941 633.069L450.937 626.59L440.488 618.105L433.124 616.012L424.559 601.477L423.892 593.255L415.069 584.928L413.459 571.373L405.678 559.071L404.461 527.785L408.831 513.547L410.899 498.434L419.956 481.719L427.745 463.269L442.398 450.731L450.937 437.85L465.557 432.667L483.045 419.235L490.108 424.287L505.528 420.25L519.564 425.469L525.276 426.362L544.532 437.159L556.108 441.782L569.818 456.51L580.668 465.021L583.962 482.726L592.043 506.805L590.325 537.32L589.016 561.426L581.81 578.737L579.217 595.882L568.175 612.019" stroke="#252525" stroke-width="0.749577" stroke-miterlimit="1.5" stroke-linejoin="round"/>
<path d="M560.293 619.482L547.75 625.366L540.278 636.583H523.24" stroke="#252525" stroke-width="0.749577" stroke-miterlimit="1.5" stroke-linejoin="round"/>
<path fill-rule="evenodd" clip-rule="evenodd" d="M468.667 619.497H484.187L511.874 626.974L524.634 618.131L539.428 609.909L546.959 612.264L561.378 584.603L570.66 578.754L573.712 559.841L580.017 550.971L577.031 521.839L577.89 503.81L570.042 493.198L568.383 480.142L553.08 458.129L534.591 447.035L524.717 442.351L514.468 443.629L499.657 445.284L474.679 445.494L463.296 455.905L446.316 462.823L434.199 486.044L423.85 501.017L420.731 531.488L414.701 547.127L426.402 568.308L435.417 592.064L451.987 607.474L457.325 615.784L468.667 619.497Z" stroke="#252525" stroke-width="0.749577" stroke-miterlimit="1.5" stroke-linejoin="round"/>
<path fill-rule="evenodd" clip-rule="evenodd" d="M439.266 523.322L446.463 535.756L441.592 542.279L447.047 560.422L451.091 575.176L467.795 596.988L482.49 600.499L496.375 609.658L510.711 604.264L526.164 604.571L531.568 590.727L543.477 585.526L550.466 563.355L560.256 547.979L558.597 521.527L551.958 503.34L553.193 489.155L538.815 475.181L522.695 468.202L507.192 457.94L489.353 464.682L476.093 464.157L461.891 478.919L442.918 492.597L443.861 511.834L439.266 523.322Z" stroke="#252525" stroke-width="0.749577" stroke-miterlimit="1.5" stroke-linejoin="round"/>
<path fill-rule="evenodd" clip-rule="evenodd" d="M487.918 481.458L478.595 485.985L468.103 494.286L462.608 512.98L455.652 521.123L458.846 540.282L456.186 549.423L466.986 566.402L475.993 581.515H491.613L507.074 586.803L523.161 583.099L534.62 567.925L541.659 558.924L537.681 541.481L544.778 517.244L534.62 505.397L530.025 489.96L517.29 480.25L500.319 481.633L487.918 481.458Z" stroke="#252525" stroke-width="0.749577" stroke-miterlimit="1.5" stroke-linejoin="round"/>
<path fill-rule="evenodd" clip-rule="evenodd" d="M475.367 507.666L488.978 504.146L492.339 497.457L498.952 493.42L510.894 501.66L518.216 501.598L519.809 509.225L527.14 517.237L520.852 537.621L522.953 551.246L510.369 561.701L493.064 559.827L482.648 560.676L475.584 545.668L467.945 537.971L472.399 522.307L475.367 507.666Z" stroke="#252525" stroke-width="0.749577" stroke-miterlimit="1.5" stroke-linejoin="round"/>
<path fill-rule="evenodd" clip-rule="evenodd" d="M493.173 509.021L488.319 517.803L482.281 520.816L484.033 535.211L482.723 541.892L492.889 549.868L508.251 549.658L511.52 539.133L517.141 533.538L512.004 523.469L514.822 515.868L508.242 511.709L507.225 505.247L493.173 509.021Z" stroke="#252525" stroke-width="0.749577" stroke-miterlimit="1.5" stroke-linejoin="round"/>
<path d="M396.657 232.964L386.341 234.251L370.329 257.087L352.59 263.322L343.592 277.507L299.292 301.034L285.557 328.1L270.12 341.19L267.752 361.277L250.005 377.966L245.294 417.045L227.047 456.5L222.068 518.012L209.9 577.913L225.579 605.81L222.585 624.505L243.751 665.16L252.741 682.401L250.806 696.463L266.017 710.683L271.63 738.458L300.16 756.023L345.068 805.171L362.415 821.957L379.002 822.473" stroke="#252525" stroke-width="0.749577" stroke-miterlimit="1.5" stroke-linejoin="round"/>
<path d="M390.129 833.425L413.23 834.31L439.266 852.978L468.488 850.447L498.085 866.865L527.682 860.709L564.434 858.801L595.149 847.12L623.379 848.136L644.545 840.964L658.53 822.419L701.103 806.745L734.804 754.593L778.195 663.056L797.801 642.462L794.707 603.418L804.206 561.739L802.871 511.522L797.709 458.714L784.424 422.332L776.06 413.322" stroke="#252525" stroke-width="0.749577" stroke-miterlimit="1.5" stroke-linejoin="round"/>
<path d="M410.602 233.028L425.579 217.862L452.299 216.225L470.305 210.393L506.323 211.006L531.784 206.085L550.498 208.502L561.881 214.062L574.141 213.493L584.282 222.809L601.478 222.617L612.986 233.028L630.433 237.633L645.085 249.857L667.953 271.896L680.437 274.611L693.622 294.303L712.911 305.809L724.136 319.46" stroke="#252525" stroke-width="0.749577" stroke-miterlimit="1.5" stroke-linejoin="round"/>
<path d="M734.189 327.847L738.434 348.284L756.248 365.796L761.034 384.779L773.294 408.001" stroke="#252525" stroke-width="0.749577" stroke-miterlimit="1.5" stroke-linejoin="round"/>
<path d="M660.686 867.037L622.582 880.259L586.497 877.01L549.353 881.878L519.689 893.971L474.088 888.594" stroke="#252525" stroke-width="0.749577" stroke-miterlimit="1.5" stroke-linejoin="round"/>
<path d="M453.613 888.539H447.459" stroke="#252525" stroke-width="0.749577" stroke-miterlimit="1.5" stroke-linejoin="round"/>
<path d="M439.28 888.539L415.32 877.76H397.331L368.327 856.457L343.45 845.52L311.517 816.187L261.963 776.399L255.025 751.549L234.993 729.851L207.94 669.013L189.301 642.386L191.769 617.238L177.125 576.408L181.562 514.764L178.251 471.176L192.778 441.081L205.93 401.705L230.798 361.724L255.3 313.075L288.583 276.605L318.356 238.271L358.936 218.718" stroke="#252525" stroke-width="0.749577" stroke-miterlimit="1.5" stroke-linejoin="round"/>
<path d="M371.693 209.811L394.585 203.41L412.632 187.229L439.628 188.673L464.396 178.805L494.969 185.32L524.591 174.637L541.354 183.787L560.677 183.927L587.33 189.768" stroke="#252525" stroke-width="0.749577" stroke-miterlimit="1.5" stroke-linejoin="round"/>
<path d="M599.018 192.108L610.409 201.722L627.489 203.01L653.542 218.692L680.228 236.642L714.112 255.065L730.041 277.279L753.617 298.426" stroke="#252525" stroke-width="0.749577" stroke-miterlimit="1.5" stroke-linejoin="round"/>
<path d="M761.622 305.806L782.913 330.332L799.417 381.013L821.734 419.26L822.176 457.087L834.585 498.276L833.401 553.466L833.534 590.82L828.272 611.563L825.086 660.51L801.01 699.747L781.228 749.639L738.279 800.6" stroke="#252525" stroke-width="0.749577" stroke-miterlimit="1.5" stroke-linejoin="round"/>
<path d="M733.466 809.247L722.324 825.857L698.973 839.569L676.84 859.542" stroke="#252525" stroke-width="0.749577" stroke-miterlimit="1.5" stroke-linejoin="round"/>
<path fill-rule="evenodd" clip-rule="evenodd" d="M335.567 889.727L372.562 897.801L399.298 915.908L435.55 929.498L466.924 922.983L493.602 931.915L553.414 913.465L589.807 917.502L656.391 908.08L717.712 859.405L753.572 834.257L780.058 781.624L835.308 710.051L865.147 602.954L879.808 465.552L835.308 359.611L787.155 270.824L704.585 202.841L649.227 175.241L624.475 173.945L582.811 151.153L485.287 142.651L390.258 162.195L335.567 182.124L288.932 249.791L237.26 298.388L176.248 366.065L172.929 442.112L149.812 505.472L136.168 574.225L189.374 694.99L205.095 771.309L285.78 834.257L335.567 889.727Z" stroke="#252525" stroke-width="0.749577" stroke-miterlimit="1.5" stroke-linejoin="round"/>
<path d="M243.393 842.82L213.463 821.157L199.335 789.425L173.308 758.06L158.38 705.602L146.104 672.363L116.448 596.193L115.689 505.427L140.049 419.205L156.862 360.031L202.246 297.704L229.55 249.747L248.981 230.343L279.037 201.483L293.764 175.774L312.287 165.293H331.501L364.743 136.95L388.477 132.869L410.577 117.616L446.838 100.182L476.051 106.583L510.477 119.963L539.132 119.096L578.111 120.033L601.053 130.978L659.438 142.019L687.309 161.064L716.373 168.997L746.061 198.716L793.547 249.747L829.799 294.158L857.395 318.474L868.353 379.102L886.033 426.332L888.46 456.848L901.928 487.757L896.841 515.89L899.993 551.397" stroke="#252525" stroke-width="0.749577" stroke-miterlimit="1.5" stroke-linejoin="round"/>
<path d="M252.908 852.521L294.156 893.325L333.252 907.519L397.85 931.914L436.546 961.764L495.948 955.433L547.512 956.396L622.318 931.914L667.51 924.996" stroke="#252525" stroke-width="0.749577" stroke-miterlimit="1.5" stroke-linejoin="round"/>
<path d="M682.984 907.139L735.44 878.2L769.232 868.393L791.557 815.821L828.652 773.467L878.572 702.148V637.169L900.956 571.638" stroke="#252525" stroke-width="0.749577" stroke-miterlimit="1.5" stroke-linejoin="round"/>
<path d="M267.242 177.997L286.465 157.762L311.6 150.065L336.302 117.002L368.259 108.963L376.149 100.312H387.265L398.174 93.8853L421.082 100.312L441.781 89.6998L491.051 95.4264L561.362 87.0117L598.223 107.86L637.545 113.359L689.542 142.736H720.907L723.684 154.452L735.268 153.874L740.438 173.032L760.061 182.717L777.016 197.681L810.674 225.92L821.04 249.877L868.701 294.804L875.706 324.024L897.531 364.092L897.781 385.194L911.299 405.334L916.07 436.506L922.099 457.538L923.083 477.835L920.156 511.371L923.934 521.887L927.22 544.802L923.342 558.33" stroke="#252525" stroke-width="0.749577" stroke-miterlimit="1.5" stroke-linejoin="round"/>
<path d="M923.095 571.638L909.326 654.532L893.765 677.202L892.313 712.078L851.666 780.42L834.245 825.374L793.656 862.509L782.94 881.168L747.655 893.453L728.049 919.056" stroke="#252525" stroke-width="0.749577" stroke-miterlimit="1.5" stroke-linejoin="round"/>
<path d="M709.599 928.102L690.926 936.92L649.662 946.14L637.503 954.204L575.765 963.293L535.468 977.531L508.74 971.612L479.71 980.893L458.11 972.584L420.491 975.149L396.598 957.576L366.125 950.168L339.722 947.007L317.397 928.575L302.952 907.289L266.592 895.424L231.557 866.844L196.981 851.88L163.089 774.799L149.696 734.083L127.613 702.394L108.957 650.812L88.7088 624.937L93.5207 587.724L84.9727 562.243L104.729 506.895L101.118 438.308L123.652 398.582L132.3 347.139L166.192 322.736L180.244 274.682L211.259 246.224L238.429 204.457L266.592 177.593" stroke="#252525" stroke-width="0.749577" stroke-miterlimit="1.5" stroke-linejoin="round"/>
<path fill-rule="evenodd" clip-rule="evenodd" d="M116.797 309.381L154.6 291.343L171.746 249.926L202.011 216.364L199.467 197.127L222.651 177.583L238.546 142.786H272.73L303.628 113.059L317.113 83.3138L365.358 83.7604L397.866 58.9191L445.543 70.4685L528.071 54.4885L570.111 65.1448L610.233 75.6259L637.728 85.4066L662.264 76.6941L710.183 100.362H731.49L764.24 128.618V142.786L776.065 158.871L796.581 169.772L832.107 201.706L870.978 262.071L912.951 309.381L913.427 332.541L918.389 362.837L943.441 399.806L943.666 418.439L952.781 451.327L947.56 490.204L954.674 512.883L943.866 550.359L956.659 570.823L931.832 614.708L945.634 659.128L930.389 687.428L918.564 741.358L902.443 775.647L881.086 822.335L859.478 822.265L824.018 888.759L797.248 899.914L784.33 917.654L756.376 920.815L746.293 936.016L751.664 952.285L723.009 964.929L710.183 966.759L672.755 987.432L632.85 989.359L593.47 996.136L546.369 1025.28L509.324 1014.19L466.851 1020.74L448.712 1006.83L428.172 1018.44L416.446 1004.78L351.639 980.883H331.958L304.145 953.397L255.326 921.428L225.887 914.494L212.327 895.834L180.578 871.711L170.554 836.108L142.399 775.621L105.313 754.439V733.827L85.5568 700.046V668.944L69.303 644.646L77.409 604.63L62.0308 586.838L69.378 565.297L54.25 527.208L64.8663 513.706L58.6784 494.749L71.0543 480.284L67.0262 459.996L85.5568 446.896V407.073L105.313 371.147V340.491L116.797 309.381Z" stroke="#252525" stroke-width="0.749577" stroke-miterlimit="1.5" stroke-linejoin="round"/>
<path fill-rule="evenodd" clip-rule="evenodd" d="M71.8718 289.818L114.707 269.38L134.135 222.451L168.428 184.421L165.545 162.623L191.815 140.478L221.279 142.681L248.56 101.05L283.571 67.3657L298.851 33.662L353.516 34.168L390.351 6.02034L444.374 19.1069L537.887 1L585.522 13.0746L630.984 24.9507L662.139 36.0332L689.94 26.1612L744.237 52.9793H768.381L805.49 84.9964V101.05L818.889 119.276L842.135 131.628L882.39 167.812L926.435 236.212L973.994 289.818L974.533 316.061L980.156 350.39L1008.54 392.279L1008.8 413.392L1019.13 450.658L1013.21 494.71L1021.27 520.407L1009.02 562.871L1023.52 586.058L995.388 635.785L1011.03 686.118L993.754 718.184L980.354 779.292L962.088 818.145L937.888 871.047L913.404 870.967L873.224 946.312L842.891 958.952L828.254 979.053L796.579 982.635L785.154 999.859L791.24 1018.29L758.771 1032.62L744.237 1034.69L701.828 1058.12L656.612 1060.3L611.991 1067.98L558.62 1101L516.644 1088.44L468.518 1095.86L447.965 1080.1L424.691 1093.25L411.405 1077.77L337.972 1050.7H315.671L284.156 1019.55L228.839 983.33L195.482 975.472L180.117 954.329L144.142 926.995L132.784 886.653L100.882 818.115L58.8597 794.114V770.759L36.4737 732.481V697.24L18.0565 669.707L27.2415 624.365L9.81641 604.205L18.1415 579.797L1 536.638L13.0293 521.339L6.01778 499.859L20.0409 483.469L15.4767 460.48L36.4737 445.637V400.514L58.8597 359.805V325.07L71.8718 289.818Z" stroke="#252525" stroke-width="0.754973" stroke-miterlimit="1.5" stroke-linejoin="round"/>
<path fill-rule="evenodd" clip-rule="evenodd" d="M71.8742 289.816L114.707 269.379L134.137 222.444L168.426 184.416L165.547 162.616L191.821 140.469L221.284 142.675L248.557 101.043L283.572 67.3633L298.853 33.6546L353.515 34.1652L390.353 6.01425L444.379 19.0999L537.889 1L585.52 13.0681L630.979 24.945L662.14 36.0284L689.941 26.1537L744.236 52.9788H768.383L805.492 84.9891V101.043L818.888 119.276L842.136 131.624L882.391 167.806L926.435 236.207L973.993 289.816L974.522 316.059L980.154 350.38L1008.54 392.277L1008.8 413.393L1019.13 450.65L1013.21 494.697L1021.27 520.398L1009.02 562.865L1023.51 586.056L995.386 635.773L1011.03 686.115L993.757 718.172L980.352 779.289L962.085 818.144L937.88 871.038L913.402 870.96L873.228 946.308L842.885 958.942L828.256 979.051L796.579 982.628L785.155 999.854L791.241 1018.28L758.769 1032.61L744.236 1034.69L701.824 1058.11L656.612 1060.29L611.992 1067.97L558.615 1101L516.642 1088.43L468.519 1095.86L447.961 1080.09L424.692 1093.24L411.407 1077.77L337.974 1050.69H315.674L284.155 1019.55L228.837 983.323L195.481 975.465L180.113 954.322L144.142 926.981L132.786 886.65L100.881 818.109L58.8637 794.11V770.754L36.4706 732.472V697.229L18.0568 669.705L27.2434 624.364L9.81865 604.194L18.1478 579.787L1 536.635L13.0289 521.336L6.01631 499.846L20.0473 483.471L15.4808 460.479L36.4706 445.632V400.508L58.8637 359.804V325.061L71.8742 289.816ZM116.14 309.274L153.943 291.239L171.09 249.815L201.352 216.255L198.81 197.016L221.998 177.47L237.89 142.675H272.069L302.972 112.951L316.459 83.2022L364.7 83.6528L397.211 58.8083L444.891 70.357L527.417 54.3827L569.452 65.0337L609.572 75.5154L637.074 85.2973L661.608 76.5816L709.526 100.257H730.836L763.586 128.507V142.675L775.409 158.766L795.926 169.663L831.449 201.595L870.324 261.962L912.294 309.274L912.765 332.434L917.727 362.721L942.783 399.701L943.015 418.334L952.128 451.215L946.902 490.096L954.013 512.775L943.205 550.249L955.998 570.714L931.173 614.596L944.983 659.017L929.734 687.314L917.909 741.25L901.783 775.538L880.423 822.225L858.821 822.155L823.365 888.647L796.587 899.804L783.676 917.551L755.721 920.703L745.638 935.907L751.008 952.169L722.352 964.82L709.526 966.652L672.096 987.325L632.195 989.253L592.815 996.025L545.708 1025.17L508.666 1014.09L466.194 1020.63L448.052 1006.72L427.517 1018.33L415.792 1004.67L350.983 980.77H331.303L303.486 953.289L254.666 921.32L225.229 914.382L211.665 895.723L179.919 871.603L169.898 836.004L141.74 775.512L104.658 754.335V733.722L84.8955 699.938V668.837L68.645 644.543L76.7525 604.524L61.3744 586.725L68.7252 565.183L53.5919 527.101L64.2075 513.6L58.0186 494.637L70.4014 480.18L66.3717 459.889L84.8955 446.787V406.968L104.658 371.039V340.379L116.14 309.274Z" fill="#252525" stroke="#252525" stroke-width="0.750791" stroke-miterlimit="1.5" stroke-linejoin="round"/>
</svg>
